<svg id="圖層_1" data-name="圖層 1" xmlns="http://www.w3.org/2000/svg" viewBox="0 0 275.95 107.44"><defs><style>.cls-1{fill:#3f6e29;}</style></defs><path class="cls-1" d="M123.35,66v-26a3,3,0,0,1,3-3h27.06a3,3,0,0,1,3,3V66q0,.9.9.9h.26v2.8a2.08,2.08,0,0,1-2.08,2.08h-1.57q-3.54,0-3.54-3.54V41.52h-21V68.19q0,3.54-3.54,3.54h-1.23a2.07,2.07,0,0,1-2-1.74l-.51-3.14h.4A.8.8,0,0,0,123.35,66ZM137,63.78h-6.29V52.22a2,2,0,0,1,2-2H137V47.74h-5.19a1.42,1.42,0,0,1-1.42-1.43V43.44h19.07v2.87a1.42,1.42,0,0,1-1.42,1.43H142.9v2.49h4.15a2,2,0,0,1,2,2v8q0,3.54-3.54,3.54h-2.6v3.65h1a1.06,1.06,0,0,0,.83-.33,1.14,1.14,0,0,0,.25-.76v-1h4.59v3.36a3.14,3.14,0,0,1-1,2.21,2.75,2.75,0,0,1-2,.79H133.16a2.7,2.7,0,0,1-2.66-2.27l-.32-2H137Zm0-9h-2.28v4.37H137Zm5.89,4.37h1.23q.9,0,.9-.9V54.82H142.9Z"/><path class="cls-1" d="M172.92,42.6v1.52h-6a1.52,1.52,0,0,0-1.51-1.52h-3.44V39.86a2,2,0,0,1,2-2h1.45a1.52,1.52,0,0,0,1.51-1.52v0h6v1.55h13.47V36.32h6v1.55h2.93a2,2,0,0,1,2,2V42.6h-4.91v1.52h-6V42.6ZM162.08,66.45V63.38h14.63V61.25H165.65a2.1,2.1,0,0,1-2.09-2.1h0V46.83A1.44,1.44,0,0,1,165,45.39h29.31a1.43,1.43,0,0,1,1.44,1.44V57.71q0,3.54-3.54,3.54h-9.46v2.13h14.59v3.07A1.52,1.52,0,0,1,195.83,68H182.75V70.4a1.34,1.34,0,0,1-1.33,1.33H178a1.33,1.33,0,0,1-1.33-1.33V68H163.59A1.52,1.52,0,0,1,162.08,66.45Zm27.64-15.14V49.54H169.59v1.77Zm-20.13,3.87v1.91h19.23q.9,0,.9-.9v-1Z"/><path class="cls-1" d="M208.93,64.57v3.62q0,3.54-3.54,3.54h0a3.71,3.71,0,0,1-3.65-3.11l-.29-1.77H202a.9.9,0,0,0,.9-.9V54.38a2.27,2.27,0,0,1,2.27-2.27h30.75a1,1,0,0,1,1.05,1v2.67h-28V61h27a1,1,0,0,1,1,1v2.55H217.32v2.75q0,.9.9.9h2.85V71.8h-6.25q-3.54,0-3.54-3.54V64.57Zm21.43-26.7h2.75a2.71,2.71,0,0,1,2.71,2.71v6.58q0,3.54-3.54,3.54H203V40.58a2.71,2.71,0,0,1,2.71-2.71h6V36.46h6v1.41h3.36V36.46h6v1.41Zm-18.64,5v-1.7H208.5v1.7Zm-3.22,2.85v1.7h3.22v-1.7ZM236.11,57v2.57h-25.3V57Zm-15-14.16v-1.7h-3.36v1.7Zm-3.36,2.85v1.7h3.36v-1.7Zm12.14,20.56a1.19,1.19,0,0,0,1-.54l.36-.22h4.59l-.94.87A6.11,6.11,0,0,1,230.43,68h-.29l.29.29a2,2,0,0,0,1.66.61h5v2a.89.89,0,0,1-.89.89h-8.51a4.15,4.15,0,0,1-3.57-1.45l-3.33-4.77H228l.65.76Zm.47-23.41v-1.7h-3.22v1.7Zm-3.22,2.85v1.7h2.32q.9,0,.9-.9v-.8Z"/><path class="cls-1" d="M242.46,67.43V39.86a2.93,2.93,0,0,1,2.92-2.93H273A2.93,2.93,0,0,1,276,39.86V68.19q0,3.54-3.54,3.54H244.63a2.17,2.17,0,0,1-2.17-2.17h0ZM256.26,46v-1.2H250V42.57h6.25V41.23h-7.91v26.2h20.81a.9.9,0,0,0,.9-.91V41.23H262.3v1.34h6.07v2.27H262.3V46h6.64v2.85H249.43V46Zm-6.5,16.73-.87-3.44h.94a1.37,1.37,0,0,0,1.3-.75l.65-1H250V50.08h18.47V54q0,3.54-3.58,3.54h-6.54L256.59,60v2.17q0,.9.9.9h.32v3.43h-3.57q-3.54,0-3.54-3.54v-.21Zm11.88-8.06c.61,0,.91-.28.91-.9v-.87h-6.69v1.77Zm2.64,5.35a.85.85,0,0,0,.91-.69l.32-.51h3.72l-1,2c-.53,1-1.71,1.51-3.54,1.51h-.22l.11.33c.09.48.49.72,1.19.72h3.29v3.14h-6.22c-1.95,0-3.12-.73-3.5-2.2L257.71,59h5.74l.33,1.05Z"/><path class="cls-1" d="M26.68,97.49a1.79,1.79,0,0,0-.84-.21,1.18,1.18,0,0,0-.66.21,1.24,1.24,0,0,0,0,2.06c.13.12.25.23.35.34a1.34,1.34,0,0,1,.24.34.41.41,0,0,1,0,.37.38.38,0,0,1-.37.25.94.94,0,0,1-.5-.12,1.31,1.31,0,0,1-.43-.36,1.9,1.9,0,0,1-.32-.58l-.64.33a1.8,1.8,0,0,0,.43.74,2.2,2.2,0,0,0,.71.54,2,2,0,0,0,.92.24,1.37,1.37,0,0,0,.72-.23,1.45,1.45,0,0,0,.47-.54,1,1,0,0,0,.06-.82,2.43,2.43,0,0,0-.5-.71c-.12-.11-.23-.23-.34-.34a.86.86,0,0,1-.24-.33.44.44,0,0,1,0-.37.37.37,0,0,1,.33-.21.82.82,0,0,1,.47.1,1.31,1.31,0,0,1,.36.29,1.27,1.27,0,0,1,.26.43l.62-.37a1.92,1.92,0,0,0-.43-.61A2.71,2.71,0,0,0,26.68,97.49Z"/><rect class="cls-1" x="27.71" y="100.82" width="4.18" height="1.01" transform="translate(-75.36 91.59) rotate(-68.32)"/><path class="cls-1" d="M31.37,97.49a.66.66,0,0,0-.44,0,.47.47,0,0,0-.31.29.46.46,0,0,0,0,.44.6.6,0,0,0,.32.29.58.58,0,0,0,.43,0,.49.49,0,0,0,.31-.3.5.5,0,0,0,0-.43A.57.57,0,0,0,31.37,97.49Z"/><path class="cls-1" d="M36.11,101.09a2,2,0,0,0-1.07,0,1.54,1.54,0,0,0-.81.49l.16-.79-.87-.25-1.18,4,1,.28.54-1.83a1.78,1.78,0,0,1,.66-1,1.1,1.1,0,0,1,1-.17.77.77,0,0,1,.48.36.76.76,0,0,1,0,.56l-.77,2.63,1,.28.87-3a1.23,1.23,0,0,0-.13-1A1.34,1.34,0,0,0,36.11,101.09Z"/><path class="cls-1" d="M41.77,102.41a2.31,2.31,0,0,0-1.11.07,2.13,2.13,0,0,0-.93.61,2.2,2.2,0,0,0-.51,1.1,2.24,2.24,0,0,0,.09,1.19,2,2,0,0,0,.67.89,2.55,2.55,0,0,0,1.14.47,2.38,2.38,0,0,0,.8,0,2.09,2.09,0,0,0,.73-.24l-.39-.71a1.46,1.46,0,0,1-.43.15,1.62,1.62,0,0,1-.49,0,1.52,1.52,0,0,1-.67-.3,1.32,1.32,0,0,1-.4-.57,1.31,1.31,0,0,1-.05-.71,1.41,1.41,0,0,1,.28-.66,1.32,1.32,0,0,1,.54-.4,1.18,1.18,0,0,1,.67-.07,1.61,1.61,0,0,1,.57.21,2.07,2.07,0,0,1,.38.32l.6-.55a2,2,0,0,0-.61-.51A2.84,2.84,0,0,0,41.77,102.41Z"/><path class="cls-1" d="M48.86,103.57A2,2,0,0,0,47.5,103a2.27,2.27,0,0,0-1.19.23,2.25,2.25,0,0,0-.9.74,2.15,2.15,0,0,0-.39,1.11,2.48,2.48,0,0,0,.21,1.16,1.9,1.9,0,0,0,.75.84,2.54,2.54,0,0,0,1.22.36,2.51,2.51,0,0,0,.76-.07,3.18,3.18,0,0,0,.73-.29l-.41-.78a1.77,1.77,0,0,1-.48.23,1.35,1.35,0,0,1-.53,0,1.27,1.27,0,0,1-.64-.2,1.3,1.3,0,0,1-.45-.48l3.34-.91A2.39,2.39,0,0,0,48.86,103.57ZM46,105.28a1.55,1.55,0,0,1,0-.21,1.37,1.37,0,0,1,.41-1,1.18,1.18,0,0,1,.94-.32,1,1,0,0,1,.67.26,1.48,1.48,0,0,1,.35.53Z"/><path class="cls-1" d="M56.44,106.19c.3-.41.58-.82.86-1.24a6.16,6.16,0,0,0,.66-1.23,2.72,2.72,0,0,0,.2-1.25,2.23,2.23,0,0,0-.36-1,2.11,2.11,0,0,0-.81-.7,2,2,0,0,0-1.13-.19,2.58,2.58,0,0,0-1.26.41,2,2,0,0,0-.72.85,2.07,2.07,0,0,0-.18,1,2.29,2.29,0,0,0,.14.56,2.68,2.68,0,0,0,.32.57,1.3,1.3,0,0,0,.45.4l.59-.65a1.39,1.39,0,0,1-.48-1,1,1,0,0,1,.07-.48,1.09,1.09,0,0,1,1-.68,1.34,1.34,0,0,1,.6.07,1,1,0,0,1,.48.34,1.3,1.3,0,0,1,.23.66,2.2,2.2,0,0,1-.18,1,5.29,5.29,0,0,1-.63,1.15,15.31,15.31,0,0,1-.93,1.23l-1.09,1.33,4.51-.42-.09-1Z"/><path class="cls-1" d="M65.08,100.53a2.54,2.54,0,0,0-2.69-1,3,3,0,0,0-1.35.66,2.48,2.48,0,0,0-.71,1.29,4.49,4.49,0,0,0,.07,1.91,4.19,4.19,0,0,0,.74,1.68,2.78,2.78,0,0,0,1.2.92,2.59,2.59,0,0,0,1.49.07,2.55,2.55,0,0,0,2-2,4.27,4.27,0,0,0,0-1.87A4.18,4.18,0,0,0,65.08,100.53Zm-.25,3.14a1.85,1.85,0,0,1-.37.93,1.46,1.46,0,0,1-.86.5,1.38,1.38,0,0,1-1-.1,1.7,1.7,0,0,1-.72-.69,3.27,3.27,0,0,1-.44-1.14,3.45,3.45,0,0,1-.08-1.22,1.69,1.69,0,0,1,.36-.92,1.43,1.43,0,0,1,.84-.49,1.39,1.39,0,0,1,1.38.35,3,3,0,0,1,.77,1.54A3.86,3.86,0,0,1,64.83,103.67Z"/><polygon class="cls-1" points="66.69 98.49 67.02 99.44 67.69 99.22 69.47 104.51 70.46 104.17 68.36 97.93 66.69 98.49"/><path class="cls-1" d="M74.92,96.45a2.17,2.17,0,0,0-1.13-.4,2.44,2.44,0,0,0-1.23.22,2.36,2.36,0,0,0-.92.73,2.26,2.26,0,0,0-.46,1.09,2.31,2.31,0,0,0,.21,1.26,2,2,0,0,0,.71.87,2,2,0,0,0,1,.38,1.91,1.91,0,0,0,1-.14,2.54,2.54,0,0,0,.57-.36,1.52,1.52,0,0,0,.37-.44,4.65,4.65,0,0,1-.48,1.26,8.35,8.35,0,0,1-1,1.42l1,.42q.38-.58.72-1.23a6.58,6.58,0,0,0,.57-1.31A4.34,4.34,0,0,0,76,98.84a3.52,3.52,0,0,0-.32-1.42A2.3,2.3,0,0,0,74.92,96.45Zm-.17,2.36a1.31,1.31,0,0,1-.7.67,1.26,1.26,0,0,1-1,.06,1.21,1.21,0,0,1-.72-.7,1.25,1.25,0,0,1-.06-1,1.29,1.29,0,0,1,.68-.7,1.24,1.24,0,0,1,.65-.1,1.36,1.36,0,0,1,.61.22,1.25,1.25,0,0,1,.42.49l.08.18A1.07,1.07,0,0,1,74.75,98.81Z"/><path class="cls-1" d="M97.68,31.1,51.47,3.36a1,1,0,0,0-1,0L25.64,18.25a10.05,10.05,0,1,0-16.51-5.6,7,7,0,0,0-1.77-.23,7.36,7.36,0,0,0-.48,14.7V29.3a1.29,1.29,0,0,0,0,.19L4.24,31.1a1,1,0,0,0-.49.85V78.28a1,1,0,0,0,2,0V32.52L19.87,24a.9.9,0,0,0,.39-.23L51,5.38,96.17,32.52V78.28a1,1,0,0,0,2,0V32A1,1,0,0,0,97.68,31.1ZM20.55,20.65a10.34,10.34,0,0,0,1.93-.51L20.55,21.3ZM19,2.68a8.05,8.05,0,0,1,1.56,16V13.89a1,1,0,1,0-2,0v4.87A8,8,0,0,1,14,17.05a8.21,8.21,0,0,1-1.35-1.35l-.08-.1c-.16-.21-.31-.44-.45-.66,0-.06-.07-.11-.1-.16q-.21-.37-.39-.75A8,8,0,0,1,19,2.68ZM2,19.78a5.37,5.37,0,0,1,5.36-5.36,5.44,5.44,0,0,1,2.58.66,1.09,1.09,0,0,0,.08.15c.1.21.22.42.34.63l.16.26c.14.22.29.43.44.63l.16.21c.18.22.36.44.56.65l.11.12a10.27,10.27,0,0,0,.77.71,5.53,5.53,0,0,1,.17,1.34A5.35,5.35,0,0,1,8.88,24.9V22.34a1,1,0,0,0-2,0V25.1A5.36,5.36,0,0,1,2,19.78ZM8.88,27a7.35,7.35,0,0,0,5.84-7.16,10.09,10.09,0,0,0,3.83.94V22.5L8.88,28.31Z"/><circle class="cls-1" cx="36.25" cy="41.69" r="0.8"/><path class="cls-1" d="M68.66,45.74c-4.48-1.05-8.3-.54-11.35,1.51C53.53,49.79,52,54,51.51,56c-11.28-3.36-8.8-15.48-8.69-16a1,1,0,0,0-.76-1.19,1,1,0,0,0-1.19.77c0,.15-3.17,15.25,11.16,18.64l1,.25.18-1.06c0-.06,1-5.63,5.19-8.47,2.57-1.72,5.85-2.13,9.77-1.21,6.15,1.44,8.22,6.79,8.13,10.93-.11,4.74-2.88,10-8.81,11.14a1,1,0,0,0,.18,2,.62.62,0,0,0,.19,0c7-1.3,10.31-7.68,10.44-13.06C78.48,52.22,74.69,47.15,68.66,45.74Z"/><path class="cls-1" d="M67.83,59.28a1,1,0,0,0-1.09-.91,1,1,0,0,0-.9,1.09c0,.56,1,13.7-15,15.41l-.35,0-4,3.93V76a1.06,1.06,0,0,0-1-1,16.52,16.52,0,0,1-2.66-1c-11.59-5.13-9.14-18.27-9-18.83a1,1,0,0,0-.5-1.07c-2.68-1.46-2.3-3.25-2.26-3.43a.67.67,0,0,0,0-.24c.07-1.43,1.8-2.78,2.46-3.18a1,1,0,0,0-.83-1.8c-1.08.36-2-.9-2.62-2a5,5,0,0,0,4.22-3.3c1-2.86,7.32-2.67,9.64-2.36A1,1,0,0,0,45.14,37a1,1,0,0,0-.86-1.13h-.06c1.44-3,1.75-5.1.94-6.46a2.53,2.53,0,0,0-1.84-1.22,2.94,2.94,0,0,0-2.48.43,3.46,3.46,0,0,0-1,1.21,2.41,2.41,0,0,0-1.26-.19,2.77,2.77,0,0,0-2.07,1A3.22,3.22,0,0,0,35.9,32a4.15,4.15,0,0,0-1.59.15l-.18.07a2.89,2.89,0,0,0-1.52,1.92,5.61,5.61,0,0,0,.88,3.77,4.44,4.44,0,0,0-1,1.58,3.31,3.31,0,0,1-3.74,2,1,1,0,0,0-.93.33,1,1,0,0,0-.19,1,8.16,8.16,0,0,0,3.09,4.26,5.33,5.33,0,0,0-1.57,3.18c-.13.63-.47,3.24,2.64,5.25-.39,3.08-1.15,15.28,10.3,20.34a25,25,0,0,0,2.44.93v6L42,84.49a1,1,0,0,0-.27,1.39,1,1,0,0,0,.83.44,1,1,0,0,0,.56-.17l2.36-1.6,2,1.56a1,1,0,0,0,.61.21,1,1,0,0,0,.79-.39,1,1,0,0,0-.17-1.4l-2.18-1.7V81.65l4.9-4.83C69.06,74.74,67.84,59.43,67.83,59.28ZM34.56,34.58A.83.83,0,0,1,35,34c.36-.09.76-.07.87.08h0a.29.29,0,0,0,0,.09h0a1,1,0,0,0,1.94-.46,2.87,2.87,0,0,1,.27-1.89c.09-.13.26-.27.74-.3.25,0,.4.14.47.55a1,1,0,0,0,1,.83,1,1,0,0,0,.95-.94A2.89,2.89,0,0,1,42,30.18a1,1,0,0,1,.88-.08l.17,0a.49.49,0,0,1,.39.28c.14.27.5,1.42-1.12,4.72a1,1,0,0,0-.08.52,15.89,15.89,0,0,0-7.12,1.1A3.56,3.56,0,0,1,34.56,34.58Z"/><path class="cls-1" d="M25.08,84.82a.51.51,0,0,0,.5-.5V79a.5.5,0,0,0-.5-.5.5.5,0,0,0-.5.5v5.33A.5.5,0,0,0,25.08,84.82Z"/><path class="cls-1" d="M29,84.32V79a.5.5,0,0,0-.5-.5.5.5,0,0,0-.5.5v5.33a.5.5,0,0,0,.5.5A.51.51,0,0,0,29,84.32Z"/><path class="cls-1" d="M21.64,78.49a.5.5,0,0,0-.5.5v5.33a.5.5,0,0,0,.5.5.51.51,0,0,0,.5-.5V79A.5.5,0,0,0,21.64,78.49Z"/><path class="cls-1" d="M18.2,78.49a.5.5,0,0,0-.5.5v5.33a.5.5,0,0,0,.5.5.51.51,0,0,0,.5-.5V79A.5.5,0,0,0,18.2,78.49Z"/><path class="cls-1" d="M14.76,78.49a.5.5,0,0,0-.5.5v5.33a.5.5,0,0,0,.5.5.51.51,0,0,0,.5-.5V79A.5.5,0,0,0,14.76,78.49Z"/><path class="cls-1" d="M85.15,78.49a.5.5,0,0,0-.5.5v5.33a.51.51,0,0,0,.5.5.5.5,0,0,0,.5-.5V79A.5.5,0,0,0,85.15,78.49Z"/><path class="cls-1" d="M88.59,78.49a.5.5,0,0,0-.5.5v5.33a.51.51,0,0,0,.5.5.5.5,0,0,0,.5-.5V79A.5.5,0,0,0,88.59,78.49Z"/><path class="cls-1" d="M81.71,78.49a.5.5,0,0,0-.5.5v5.33a.51.51,0,0,0,.5.5.5.5,0,0,0,.5-.5V79A.5.5,0,0,0,81.71,78.49Z"/><path class="cls-1" d="M78.27,78.49a.5.5,0,0,0-.5.5v5.33a.51.51,0,0,0,.5.5.5.5,0,0,0,.5-.5V79A.5.5,0,0,0,78.27,78.49Z"/><path class="cls-1" d="M74.33,79v5.33a.51.51,0,0,0,.5.5.5.5,0,0,0,.5-.5V79a.5.5,0,0,0-.5-.5A.5.5,0,0,0,74.33,79Z"/></svg>