<svg xmlns="http://www.w3.org/2000/svg" viewBox="0 0 412.05 418.93"><defs><style>.cls-1{fill:#fff;}</style></defs><g id="圖層_2" data-name="圖層 2"><path class="cls-1" d="M405.06,194a17.57,17.57,0,0,0-5.19-4.43c2.66-8.73,5.78-26.46-7.23-39.06-12.81-12.42-32.66-9.33-45.16-3.63A177.36,177.36,0,0,0,344,118.17,144.06,144.06,0,0,0,260.46,15.39c-34.57-15-72.41-14.64-109.4,1-27.77,11.74-45.13,27.75-45.86,28.43a5.5,5.5,0,0,0,7.5,8,161,161,0,0,1,43-26.49c34.54-14.51,68.32-14.81,100.41-.9a133,133,0,0,1,77.09,94.94,166.86,166.86,0,0,1,3.47,35,5.38,5.38,0,0,0,0,2.46,202.11,202.11,0,0,1-10.69,59.82,5.6,5.6,0,0,0-.26,1.38c-13.76,5.47-22.1,2.64-23.13,2.25l-58.9-31.05C204,169,174,185.56,170.93,187.4l-61.74,31.73-.59.36c-5,3.44-13.19,2.15-16.38,1.25l-10.88-5.62c-10.29-49.44-7-82.77-2.29-102.07,5-20.82,12.58-30.16,12.77-30.39a5.5,5.5,0,0,0-8.37-7.13c-1,1.19-18.51,22.4-19.85,72.75-12.66-5.92-33.32-9-45.92,3.24-13.4,13-9.69,31.4-7,39.81a26,26,0,0,0-8.39,11.34C-2.27,213.74.32,237.82,8.9,264c10.24,31.28,27.47,61.7,48.49,85.66,28.35,32.29,74.45,65.8,143.66,65.8,19.87,0,41.66-2.76,65.47-9.11l.39-.12c1.74-.61,42.91-15.1,67.34-38.36a5.5,5.5,0,0,0-7.59-8c-21.91,20.86-60.21,34.81-63.19,35.88-101.15,26.89-163.4-14.18-197.81-53.38-46.17-52.6-59.62-120-53.2-135.55,3.91-9.51,10.64-8.84,12.65-8.4l62.51,32.29L88,231l.43.14c.63.2,15.26,4.78,26-2.33l61.63-31.67.37-.21c1.07-.66,26.71-15.83,62,3.11l59.16,31.18.31.15c.87.4,21.57,9.29,52.12-13.75,15.42-9.3,34.52-19.4,38.82-19.7,3,.22,5.69.61,7.61,3s4.75,9,2.17,26.3v.11c-.09.71-9.46,70.88-46.49,109.88a5.5,5.5,0,1,0,8,7.58c39.32-41.42,48.94-112.25,49.42-116C412,212.19,410.53,200.82,405.06,194Zm-376.34-6a20,20,0,0,0-7.73-.68c-1.95-6.46-4.37-19.51,4.34-28C36,149.09,57,155.79,63.6,160.93a308.45,308.45,0,0,0,5.26,47.75L29.18,188.19Zm315.4,20.26-.48.33c-1.5,1.14-3,2.18-4.4,3.15a209,209,0,0,0,8.33-52.43c6.75-4.38,26.37-11.65,37.41-1,9,8.68,6.16,22.22,4.19,28.48C381.06,186.74,357.56,200.2,344.12,208.31Z"/><path class="cls-1" d="M196,166.28a17.53,17.53,0,0,0,9.12,2.47,21.57,21.57,0,0,0,10.86-3l.67-.41,12.73-14.1a20.12,20.12,0,0,0-.1-27.51l-14.49-15.81a12.61,12.61,0,0,0-18.62.27l-15,17.42a18.84,18.84,0,0,0-.6,24.12C190.14,162.06,193.93,165.08,196,166.28Zm-6.49-33.49,15-17.42a1.43,1.43,0,0,1,1.06-.42h0a1.47,1.47,0,0,1,1.08.4l14.49,15.82a9.17,9.17,0,0,1,0,12.7l-11.56,12.79c-1.39.65-5,2-8,.17-.3-.18-3.19-2.08-12.39-13.87A7.85,7.85,0,0,1,189.46,132.79Z"/><circle class="cls-1" cx="138.61" cy="116.41" r="11.31" transform="translate(-34 61.9) rotate(-22.5)"/><circle class="cls-1" cx="272.82" cy="116.41" r="11.31" transform="translate(-23.78 113.27) rotate(-22.5)"/></g></svg>