<svg xmlns="http://www.w3.org/2000/svg" viewBox="0 0 545.19 546.41"><defs><style>.cls-1{fill:#80bc63;}.cls-2{fill:#fff;}</style></defs><g id="圖層_2" data-name="圖層 2"><circle class="cls-1" cx="272.47" cy="273.68" r="272.72"/><path class="cls-2" d="M426.32,261.41a13.77,13.77,0,0,0-4-3.41c2.05-6.72,4.45-20.38-5.57-30.1-9.86-9.56-25.16-7.18-34.79-2.79A135.9,135.9,0,0,0,379.23,203a111,111,0,0,0-64.32-79.19c-26.64-11.55-55.78-11.28-84.29.77a130.51,130.51,0,0,0-35.33,21.9,4.24,4.24,0,0,0,5.78,6.2,124.29,124.29,0,0,1,33.11-20.4c26.61-11.18,52.64-11.41,77.36-.7a102.53,102.53,0,0,1,59.4,73.15,128.52,128.52,0,0,1,2.67,27,4.35,4.35,0,0,0,0,1.9,155.7,155.7,0,0,1-8.23,46.08,4,4,0,0,0-.2,1.07c-10.6,4.21-17,2-17.82,1.73l-45.38-23.92c-30.57-16.42-53.62-3.65-56-2.23l-47.57,24.45-.45.27c-3.89,2.66-10.16,1.66-12.62,1l-8.38-4.33c-7.93-38.09-5.36-63.77-1.77-78.64,3.87-16,9.7-23.23,9.84-23.41a4.24,4.24,0,0,0-6.45-5.5c-.78.92-14.26,17.26-15.29,56.05-9.76-4.56-25.67-6.92-35.38,2.5-10.32,10-7.46,24.19-5.39,30.67a20.07,20.07,0,0,0-6.47,8.74c-3.51,8.53-1.51,27.08,5.1,47.25a193.4,193.4,0,0,0,37.36,66C180.3,406.22,215.81,432,269.14,432a195.26,195.26,0,0,0,50.44-7l.3-.09c1.34-.47,33.06-11.63,51.88-29.55a4.24,4.24,0,0,0-5.85-6.14c-16.88,16.07-46.39,26.82-48.68,27.64C239.3,437.59,191.34,406,164.83,375.74c-35.57-40.52-45.93-92.42-41-104.43,3-7.32,8.2-6.81,9.74-6.46l48.17,24.87.31.16.34.11c.48.15,11.75,3.68,20.06-1.79l47.48-24.41.28-.16c.83-.5,20.58-12.19,47.74,2.4l45.58,24,.24.12c.66.3,16.61,7.15,40.15-10.6,11.88-7.16,26.6-14.94,29.91-15.18,2.33.17,4.38.48,5.86,2.32s3.66,6.92,1.68,20.27l0,.08c-.07.55-7.29,54.61-35.81,84.66a4.23,4.23,0,1,0,6.14,5.83c30.29-31.9,37.7-86.48,38.07-89.37C431.66,275.42,430.53,266.66,426.32,261.41Zm-289.95-4.59a15.2,15.2,0,0,0-6-.52c-1.5-5-3.36-15,3.35-21.54,8.2-7.95,24.39-2.79,29.48,1.17a238.18,238.18,0,0,0,4.06,36.78l-30.57-15.78Zm243,15.61-.37.25q-1.73,1.32-3.39,2.43A160.77,160.77,0,0,0,382,234.72c5.2-3.37,20.32-9,28.83-.73,6.89,6.68,4.74,17.12,3.22,21.94C407.82,255.81,389.71,266.18,379.36,272.43Z"/><path class="cls-2" d="M265.2,240.05a13.61,13.61,0,0,0,7,1.9,16.64,16.64,0,0,0,8.36-2.31l.51-.31,9.82-10.87a15.49,15.49,0,0,0-.08-21.19l-11.16-12.18a9.73,9.73,0,0,0-14.35.2l-11.56,13.43a14.52,14.52,0,0,0-.46,18.58C260.73,236.8,263.65,239.13,265.2,240.05Zm-5-25.8,11.56-13.43a1.16,1.16,0,0,1,.82-.32h0a1.16,1.16,0,0,1,.83.31L284.6,213a7.07,7.07,0,0,1,0,9.78l-8.91,9.86c-1.07.5-3.84,1.53-6.19.13-.23-.14-2.45-1.6-9.54-10.69A6,6,0,0,1,260.2,214.25Z"/><circle class="cls-2" cx="221.03" cy="201.63" r="8.72" transform="translate(-60.33 99.93) rotate(-22.5)"/><circle class="cls-2" cx="324.43" cy="201.63" r="8.72" transform="translate(-52.46 139.5) rotate(-22.5)"/></g></svg>