<svg xmlns="http://www.w3.org/2000/svg" viewBox="0 0 545.19 546.41"><defs><style>.cls-1{fill:#3f6e29;}.cls-2{fill:#fff;}</style></defs><g id="圖層_2" data-name="圖層 2"><circle class="cls-1" cx="272.47" cy="273.68" r="272.72"/><path class="cls-2" d="M102.15,306.54a5.16,5.16,0,0,1-1.58-3.81v-70a7.62,7.62,0,0,1,2.28-5.5,7.32,7.32,0,0,1,5.45-2.35h3.87a7.41,7.41,0,0,1,4.22,1.35,8.65,8.65,0,0,1,3,3.69L145,293.71c.23.55.55.82.94.82s.7-.27.94-.82L172.4,230a8.67,8.67,0,0,1,3-3.69,7.39,7.39,0,0,1,4.22-1.35h3.86a7.32,7.32,0,0,1,5.45,2.35,7.59,7.59,0,0,1,2.29,5.5v70a5.39,5.39,0,0,1-5.39,5.39,5.35,5.35,0,0,1-3.87-1.58,5.1,5.1,0,0,1-1.64-3.81V240.86c0-.7-.23-1.06-.7-1.06-.32,0-.59.24-.82.71l-25.32,62.58a8.3,8.3,0,0,1-15.23,0L113,240.51c-.24-.47-.51-.71-.82-.71-.47,0-.71.36-.71,1.06v61.87a5.06,5.06,0,0,1-1.64,3.81,5.35,5.35,0,0,1-3.86,1.58A5.16,5.16,0,0,1,102.15,306.54Z"/><path class="cls-2" d="M228.42,303.32a37.39,37.39,0,0,1-14.24-14.94,47.59,47.59,0,0,1-.06-43.65,36.47,36.47,0,0,1,14.41-15,46.08,46.08,0,0,1,43.25,0,37.36,37.36,0,0,1,14.24,15,47.18,47.18,0,0,1,.05,43.47,37.13,37.13,0,0,1-14.47,15.12,42.19,42.19,0,0,1-21.5,5.39A42.74,42.74,0,0,1,228.42,303.32Zm37.85-9A27.72,27.72,0,0,0,276.76,283a35.63,35.63,0,0,0,3.69-16.47,36.18,36.18,0,0,0-3.63-16.4,27.56,27.56,0,0,0-10.67-11.49,30.91,30.91,0,0,0-16-4.1q-9.49,0-16.17,4.22a27.53,27.53,0,0,0-10.49,11.31,35.59,35.59,0,0,0-3.69,16.46,36.19,36.19,0,0,0,3.63,16.41A27.08,27.08,0,0,0,234,294.47a31.1,31.1,0,0,0,16.12,4Q259.6,298.52,266.27,294.3Z"/><path class="cls-2" d="M369.51,280.41a40.76,40.76,0,0,1,3.4,16.93v5.39a5.39,5.39,0,0,1-5.39,5.39,5.51,5.51,0,0,1-4-1.46,5.23,5.23,0,0,1-1.52-3.93v-3.51a53.41,53.41,0,0,0-1.05-10.9,16.05,16.05,0,0,0-5.34-9.08q-4.15-3.57-11.66-3.58H319.82v27.07a5.06,5.06,0,0,1-1.64,3.81,5.35,5.35,0,0,1-3.86,1.58,5.39,5.39,0,0,1-5.39-5.39V231a5.35,5.35,0,0,1,1.58-3.87,5.1,5.1,0,0,1,3.81-1.64h27.3q15.47,0,23.73,6.5a21,21,0,0,1,8.26,17.4,22.33,22.33,0,0,1-3.92,12.89,22,22,0,0,1-11.19,8.32A16.87,16.87,0,0,1,369.51,280.41Zm-12.6-19.1a12.8,12.8,0,0,0,5.8-11.08q0-7.26-5.21-10.84t-17.17-3.57h-19.1a1.25,1.25,0,0,0-1.41,1.41v28.12h21.1Q351.1,265.35,356.91,261.31Z"/><path class="cls-2" d="M394,306a5.2,5.2,0,0,1-1.59-3.81V231a5.36,5.36,0,0,1,1.59-3.87,5.09,5.09,0,0,1,3.8-1.64h47a5.19,5.19,0,0,1,5.15,5.15,4.8,4.8,0,0,1-1.52,3.58,5.05,5.05,0,0,1-3.63,1.46H404.67a1.25,1.25,0,0,0-1.41,1.41v24.26h37.27a5.19,5.19,0,0,1,5.15,5.15,4.8,4.8,0,0,1-1.52,3.58,5.09,5.09,0,0,1-3.63,1.46H403.26v24.38a1.24,1.24,0,0,0,1.41,1.4h40.08a5.21,5.21,0,0,1,5.15,5.16,4.76,4.76,0,0,1-1.52,3.57,5.06,5.06,0,0,1-3.63,1.47h-47A5.19,5.19,0,0,1,394,306Z"/></g></svg>