<svg id="圖層_1" data-name="圖層 1" xmlns="http://www.w3.org/2000/svg" viewBox="0 0 608.23 6.47"><defs><style>.cls-1{fill:#90c477;}</style></defs><path class="cls-1" d="M626,33.33c.32-.17.14-.56-.74-.48l-.63.66Z" transform="translate(-17.92 -28.76)"/><path class="cls-1" d="M620.07,32.1c-1,.33-2.24.89-1.56,1.5,1-.64,1.27-.37,2.38-1.13.88-.08,1.54.21,1.39.46.31-.17,1.37.14,1.84-.27a6.06,6.06,0,0,0-4.12-.11C619.68,32.4,620,32.23,620.07,32.1Z" transform="translate(-17.92 -28.76)"/><path class="cls-1" d="M533.84,31.07l.56.08A2.68,2.68,0,0,0,533.84,31.07Z" transform="translate(-17.92 -28.76)"/><path class="cls-1" d="M480.42,30.71c.41,0,.58-.08.6-.14C480.64,30.61,480.33,30.65,480.42,30.71Z" transform="translate(-17.92 -28.76)"/><path class="cls-1" d="M471.3,30l.54,0A1,1,0,0,0,471.3,30Z" transform="translate(-17.92 -28.76)"/><path class="cls-1" d="M533.84,31.07l-1.42-.21C532.32,31.08,533.15,31,533.84,31.07Z" transform="translate(-17.92 -28.76)"/><path class="cls-1" d="M608.18,33.7a3.25,3.25,0,0,0,.77-.17l-.73.07A.69.69,0,0,1,608.18,33.7Z" transform="translate(-17.92 -28.76)"/><path class="cls-1" d="M557.39,30.54h.44a1.83,1.83,0,0,0,.36-.26Z" transform="translate(-17.92 -28.76)"/><path class="cls-1" d="M575.47,30.43c-.41,0-.55.54-.71.79a1.49,1.49,0,0,1,.89-.39A.64.64,0,0,0,575.47,30.43Z" transform="translate(-17.92 -28.76)"/><path class="cls-1" d="M604.13,31.42l.5-.07Z" transform="translate(-17.92 -28.76)"/><path class="cls-1" d="M544.46,30.41a.47.47,0,0,0-.17-.2C544.29,30.28,544.36,30.35,544.46,30.41Z" transform="translate(-17.92 -28.76)"/><path class="cls-1" d="M39,34.64s0-.07,0-.1S38.81,34.64,39,34.64Z" transform="translate(-17.92 -28.76)"/><path class="cls-1" d="M18,31.85l.29,0a1.13,1.13,0,0,0,.06-.31Z" transform="translate(-17.92 -28.76)"/><path class="cls-1" d="M454.61,29.26h.07C455.12,29.21,454.87,29.22,454.61,29.26Z" transform="translate(-17.92 -28.76)"/><path class="cls-1" d="M301.37,29.67c1.73.51-2.83.65-.21,1.21C300.91,30.66,303.53,30,301.37,29.67Z" transform="translate(-17.92 -28.76)"/><path class="cls-1" d="M607.71,33.63H607A4.45,4.45,0,0,0,607.71,33.63Z" transform="translate(-17.92 -28.76)"/><path class="cls-1" d="M301.16,30.88h0l.27.05Z" transform="translate(-17.92 -28.76)"/><path class="cls-1" d="M416.15,29.6a1,1,0,0,0,.39.24C416.53,29.79,416.44,29.72,416.15,29.6Z" transform="translate(-17.92 -28.76)"/><path class="cls-1" d="M444.8,30.4l-.71-.08A5.49,5.49,0,0,0,444.8,30.4Z" transform="translate(-17.92 -28.76)"/><path class="cls-1" d="M401.27,30.39a2.89,2.89,0,0,0-1,0l.16.06A1.52,1.52,0,0,1,401.27,30.39Z" transform="translate(-17.92 -28.76)"/><path class="cls-1" d="M385.78,30.39c.09.05.2.08.29.12l.49,0Z" transform="translate(-17.92 -28.76)"/><path class="cls-1" d="M86,34.37a2.26,2.26,0,0,1-.72-.51C85.53,34.26,83.26,34.41,86,34.37Z" transform="translate(-17.92 -28.76)"/><path class="cls-1" d="M608.17,33.39a.56.56,0,0,1-.46.24l.51,0C608.27,33.51,608.28,33.43,608.17,33.39Z" transform="translate(-17.92 -28.76)"/><path class="cls-1" d="M400.64,34.83l-2.46-.09C398.87,34.8,399.76,34.83,400.64,34.83Z" transform="translate(-17.92 -28.76)"/><path class="cls-1" d="M197.1,34.29l-.57.07A1.42,1.42,0,0,0,197.1,34.29Z" transform="translate(-17.92 -28.76)"/><path class="cls-1" d="M390.88,34.83a5.13,5.13,0,0,0-1.39-.39,1,1,0,0,0-.28.14Z" transform="translate(-17.92 -28.76)"/><path class="cls-1" d="M85.29,33.86Z" transform="translate(-17.92 -28.76)"/><path class="cls-1" d="M69.08,35.19c2.35,0,1.11-.72,1.6-1.14,2.8-.21,1.3.54,2.25.92,1.75-.2,3.09-.88,4.39-.85.1.12.35.17.05.32,1.85-.59,5.49,0,7.64-.77a.62.62,0,0,1,.28.19,1.09,1.09,0,0,1-.33-1c1.05,0,2-.46,2.34,0a1.4,1.4,0,0,0-1,.33l1.1-.21c1,.7-1.51.24-1.51.76,2.15-.23,4.65-.81,6.3-.61.34.68-3.85.23-1.65.83L88,33.7c2,1.08-1.55-.07.24,1.08,3.35.19,3.75-.35,7.09-.15.75-.38-.25-.56.5-.94,4.75-.68,3.74,1.71,7.24.8.9-.45,1.25-1.31,3.74-.85l-.85.77c3.24.07,1.85-1.11,5.25-.59-.61.3-2.55.25-2.06.34,2.2.61,1.56-.43,3.25-.43l.35.68c3.45-.11,7.26-.6,11.08-.72-.21.2-.87.41,0,.62a98.9,98.9,0,0,1,15,.49l1.78-.59c.41,0,.76.26.32.38,1.81.22.09-.37,1-.61,1,0,1.36.34.71.52,3.2-.5,9.12-1.07,12.49-.45l-.66.18c2.63.24,3-1.2,5.4-.66l-.47.11c5.7.25,12-.29,16.34.6.83-.85,5.64.38,6-.8,3.25.58,2.32.79,6.9,1.19,1.23,0,1.83-.74,3.34-.86l0,.61,2.05-.64,1.1.73,1.41-.15c-.56,0-1.2-.28-1.11-.46,2.22-.28,5.4.43,5.46.75l5.24-.52c-.11.24-1,.33-1.69.49,2.8-.63.51.65,3.08.07-.35-.14.18-.37.24-.49a24.25,24.25,0,0,0,6.34.22l-.41.42c3.89.11,8.2-.2,12.57-.19-1.57-.2-1.21-.94.07-1l.51.65c.83-.4-1.33-.24.36-.74,1.63.08,1.1.74.16,1l2-.23c.11.19-.35.3-.47.54.81-.4,3.42.66,4.59,0l.11.19c4.37,0,6.35-.22,9.9-.25.07-.56,1.46-.44,2.52-.89,2.61.18,5.51.62,8.66.57,2.21-.28.65-.48,1.64-.81.17.51,3.31.46,1.68.83,3.78-.08,4.82-.1,9.6-.52-.52-.21-1.1-.3-.8-.47.87-.09,2,.21,1.85.46l-.23,0c5.37-.77,12.38,1.49,16.65.43l-.24.05,4.43-.56c2,.09-1.22.39.29.71,4.77-.86,7.54.12,11.48-.45,3,1.51,10.81-.11,14.92.86l-.24-.36c1.06-.35,1.28.21,2.07.29-.11-.28-1.16-.32-.5-.52,9-.42,18.58.52,27.81.85,3.37.09,1.91-1.85,6.17-1L350,34.9c6.81-.79,13.92,0,20.59-.64-.4.15-.41.35-1.06.35,1.41.48,5.21,0,5.23-.37,1,0,.24.35.88.55,1.42.29,3.55-.61,4.3-.13.13.08-.4.15-.66.19.92-.23,4.29.06,3.41-.49,2.5.26,4.79-.25,6.78.08,1.3-.62,4.29.3,4.7-.58-.18.9,4.39.73,6,.3-.53.28,1.37.29.75.67,1.81,0,3.46-.18,3.15-.65,3.33,1.08,6.69-.87,8.56.52,5.36-.49,10.32-.82,15.15-1-.17.9-5.33.09-5.13,1,4.58-.38,7.22-1.15,11.76-.93,1.17.12-.67.39-1.07.54,4.58-.37,8.85.09,12.91-.41,0,.09-.45.18-.86.25.8,0,1.86.13,1.77-.28l-.78.11c-1.28-.59,3.19-1.24,3.33-1.56-1.36,1.18,4,.3,1.86,1.79.52-.08,1.19-.28,1.07-.55.78.08,1,.24.23.55,2.88-.22,1.85-.66,4.46-.65,0,.2-.54.28-.81.51a12,12,0,0,1,4.84-.61c-.13.12.13.28-.53.28,3.78-.06,6.44-1,10.58-.66-1.22.86,1.41.28,1.63,1l2.23-.22-.9-.37c2,0,3.68-.53,5.36-.28l-1.45.31,3.65-.15-2.06-.28c2-.38-.22-.94,2.38-.74-.53.08,1.95,0,3,.45h0a8.47,8.47,0,0,1,3.41-.31c.37.24-.31.83-.06,1,.95-.63,4.57-.18,5.77-.84-.4.16-.42.55-.29.63l.8-.51c.91.16,1,.24.89.55,2.72.1-.86-.94,2.37-.54-.26,0-.14.12-.66.2,3.24.21,6.26-.32,9.24-.07.88.75-2.6.18-1.6.81,4.3-.13,8.89-.9,13.05-.72l-.77-.08c.57-1.06,3.09.52,5.19,0-.51.08-.67.59-.53.47,2.84.17,5.82-.26,10.13-.59l-.54.27c1.68.24,4.42.14,6.23.26.54-.27,1.58-.22.95-.62,5.58,1.55,10.65-.83,15.61.46-.59,0-1.41.24-.94.24l4.22-.25c-.33-.46-.55-.28-1.44-.64a7.4,7.4,0,0,1,2.77-.49c-1.9.31,0,.75.84,1-.14-.14.14-.29.07-.44,2.21.82.37-.93,3.38-.37l-.16.24a18.6,18.6,0,0,1,3.38-.38c.51.54-1.19.25-1.27.69,1.7,0,3.37-1,4.91-.48-.72.15-1.77.15-2.49.3a7.56,7.56,0,0,0,3.13.57h-.13l2.89.28-.73-.17c2.13-1.39,4.35-.26,7.22-1.17-2.79.87-.46.5-.67,1.11.73.17,1.85.35,1.53.52,1.36-.48,2.27.39,4.19-.33.09.2,1.45,0,1.15.51,1.77-.15-.42-.34-.27-.58,2.72-.67,6.41.81,10.33-.11,3.38-.37,4-1,7.14-1.36,1.06.31-.87.71-.87.71a13.66,13.66,0,0,0,4.6,0c-.32.17,0,.32.5.54,1.3-.05.87-.71,2.57-.43a4.37,4.37,0,0,1-1.29.79c1.52-.18,3-.55,4.6-.72.42.34-.95.51-1.5.74,1.77-.16,4.59-.31,5.13-.85l-1.13-.19c.64,0,.33.46-.15.56-1.52.42-2.19-.19-2.27-.38l1.12-.13c-1.15-1.14-4.51.18-6.77.12l.94-.83-2.31.69c-.5-.22-.83-.69.28-.81-1.62-.41-1.43.3-2.82-.16-.16-.07-.09-.11.06-.15l-1.59.25c.31-.17-.26-.59.71-.47-2.84-.48-4.58.63-5.65,0l.24-.05c-3.94.28-.38.61-3.34,1.32l-2-1.5-.38.61c-.41,0-1.21-.07-1.07-.31-1.51.41.26.26-.62.66-2-.56-5.39.26-5.83-.72-.71.47,1.87.36-.22.68-.6-1-2.42.18-4.2-.3.55-.54,2.24-.25.45-.73-1.08.91-3.48-.2-5,0-.07.73-3.28.31-5.81.55.16-.25-4.76-.4-7.11-.66l.07-.13c-.46.74-2.89.6-4.65.75.06-.44.38-.61,1.34-.81h-1.66a4.45,4.45,0,0,1-2,.45l.42-.55c-2.21,0-4.46.65-7.3.28-.16.51,2.26,1.43-.75,1.77-.11-.28-.22-.75.57-.87a4,4,0,0,1-1.44.12l1.2-.47c-1.3-.21-.68.39-1.72.35,0-.4-.76-.29-.61-.6.26,0,.9.16,1.3,0a8.75,8.75,0,0,1-3-.61c.1.23,0,.54-.86.59-2.21,0-.75-.48-2-.68-.54.27-1.95,0-2,.58a1.35,1.35,0,0,1-1-.44c-1.14.26-5.34.08-4,.7l.29.05-.19,0h0c-3.75.59-7.79-.33-11.51-.08V31c-2.22.23-5,.14-6.53.56-.66,0-1.55-.36-1.27-.6a13,13,0,0,1-4.35.05c1.71-.35-.59-.31,1.75-.25-2.2-.17-2.7-.49-5.07.05.8-.51-1.67-.64-2.72-.49l1.55.37a32,32,0,0,1-3.26,0l.57-.66c-4.52-.81-8.15,1.37-11.59,0-1.19.46,2.46.33,1.39.87-2.08-.09-4.25-1-4.9-1.05-2.84-.37-2.65,1-5.63.72.38.24.74.87-1.49,1.1-2.08-.09-2.55-1-1.24-1.19.5,0,.74.06.72.14.67-.09,1.55-.19.73-.45l-.27.24c-1-.24-3.89-.22-3.22-.61-1.57.23-.67.39.49.52-2.67-.35-4.17,0-6.91-.25.43.14.84.41.4.41-4-.29-1.77.45-4.5.56-1.55-.37.56-.87-2.19-.56-1.68-.25-.36-.63.31-.83-2.5.46-4.67-.3-6.1-.38l1.31-.19a14.09,14.09,0,0,1-2.09.11l.76.47c-.78-.08-1.43-.08-1.42-.28-.8.31.61.79-1,1.21-1-.24-3.14.26-3.5-.37,3.25.22-.36-.63,2.39-.73a8.48,8.48,0,0,1-1.95,0c-.12-.07.11-.13.32-.17-3.11-.56-1.43.71-4.65.7.41-.36-.74-.68-1.27-.6,1.3,0,.62.59-.57.86-2.06-.27-2.24.21-3.32.18l1.23.13c-.41.35-1.45.31-2.88.42-.13-.28,1.3-.19.79-.31-1.6.62-3.61-.65-5.84-.23-1-.24-.1-.67-1-.83-2.5.46-2.71-.49-5.33-.11.76.48.89.36-1,.83l4.31-.34-2.76.7c1.3,0,2.74-.3,3.52-.22-1.32.39-1.18.27-.56.67-1.78-.72-3.53.41-5.59-.07l.07-1.18c-3.1-.53-5.5.6-9.52.31l1.29.2c-.54.47-2.48.07-3.78.26.12-.4-.7-.54-1.25-.79.07.3-2.94,0-3.31.77l-1.79-.52c-3.25-.22-3.71,1.12-6.82,1,.93-.43-.48-.71,1.61-1-1,0-2-.08-2,.2-.61-.25-2.89.53-3.84.15a2.61,2.61,0,0,1-1.76.56c-.12-.08,0-.2,0-.2,0,.2-1.83.27-.81.71-3.21-1.24-9,.09-11.76-1-2.27.13-5,.26-7.07.29.13-.12,0-.2.39-.16-2.84-.37-1.75,1.13-5,.72-1.65-.63,1.72-.34.69-.58-.45-1.3-3.91.17-6.09-.58l.53-.08c-1.67-.44-4.06.49-6.79.4,0,0,.14-.12,0-.2-1.86.66-5.39.88-8,1.07.82-.51,1.19-.27.7-.79-1.18.08.34.83-2,1-.76-.28-2.45-.53-2.68-1.08l2.21,0c-1.13-.71-2.86,0-4-.1l.14-.31c-3.38.1-3.43.89-7.07.83l.38.24c-2,.78-1.67-.44-3.66.14l-.6-.79c-1.31.19-4.59.76-6.95.91A38.68,38.68,0,0,1,337,30.16c-1.3,0-4.42.06-5.1.45a5,5,0,0,1,1.71-.15,17.33,17.33,0,0,1-6.29.91c.46-1.53-6.76-.38-8.64-1.57-4.59.56-9.1-.24-14.45-.15,1.9,1.19-1.56,0-1.23,1.25a5.14,5.14,0,0,1-1.83,0l-3.77-.73c-.9-.35,1.18-.27,1.07-.54-2.73-.1-1.15-.52-2.95-.85.37.44-.95.63-2.5.46l2.19.57c-3.81.65-3.29-1-7.13-.38l1.21-.39c-2,.23-7.27,0-9.2,1-.35-.15-.81-.48.06-.57-4.71-.15-10.48,1.05-14.14.44l.36-.3c-.88.09-1.53.57-2.63.26.06-.12.35-.29-.05-.31a12.05,12.05,0,0,1-3.5.35l1-.34c-4.59-.39-7,.82-10.89,1,0-.88-3.61-1.17-5.41-1.31l.06-.13c-5.35-.11-9.08.73-14,1.08-3.08-1-10.42-.4-15.36-.94.76.16-.12.69-1,.78-1.16-.18-3.2.61-3-.2h.42c-.88-.79-3.26-.58-5.12-.6l-.31,1.06c-4.86-1.54-12.75.56-15.4-.81-1.18.26-2.63.26-3.8.52l.07-.57c-3.26-.14-4.88-.21-8.9-.08l.82-.4c-2.27,0-2.87,1.63-5,1.67l-.63-.85c-4,0-8-.73-11.87,0,.06-.13.18-.37.82-.4-1.86,0-7.21-.58-6.53.58,0-.75-4.08-.07-6.22.26l.33-.55a10.18,10.18,0,0,1-4.38,1.1c-.6-.07-.52-.45.27-.3-2-.3-1.55.52-4,.23l.9-.36a5,5,0,0,0-3,.56c-1.29.23-3.89-.14-4.19-.64a3.57,3.57,0,0,1-2.6.57c-.16-.19.28-.31.5-.36-3.43-.38-5.09.64-7.45.1,0-.19-.2-.28-.39-.34,2.72,0,4.9,0,4.7.09,0-.52-2.2-.61-.45-1.32-1.76.39-4.78,1.23-6.92,1a1,1,0,0,1-.28-.18l.22-.05a4.24,4.24,0,0,0-1.35.08,13.79,13.79,0,0,0-1.77-.15c-.26-.43-2.52-.23-3.62-.25.09.56-1.34.47,0,.93-.17,0,.21-.07.94-.09a2.58,2.58,0,0,0,.46-.06.18.18,0,0,1-.07.05l2.72,0a4.86,4.86,0,0,1-3,.22c-.56.36-1.18.73-1.53.91-1.5-.79-4.39-1.21-4.79-1.7-3.34.32-7.87.21-10,1.27-1,.13-1.09-.3-1.44-.47a9.46,9.46,0,0,0,1.49-.24c-1.9.27-5.63.1-6.08.84-2.4-.33,1.34-.68-2-.56l.45-.22c-6.48-1.18-10.53,1.88-17.71.37.5.09.74.13.85.26-8.19-.67-16.87.62-25-.44-2.3-.21-2.55.26-4,.62l-.49-.6-2.4.69c-3.4.51-5.88-1.48-10.18-.51l.55.4c-1.54-.07-4.89.24-4.63-.23a1.17,1.17,0,0,1-1.12.22l0-.32-3.8.54c-2.94-.23.46-1.25-3.83-1.32-1.59.13-4.54.92-3.94,1.14.64,0,1.64.19,1.69.51l-1.46.16c-.26.94-1.39,1.89,2.2,2.54L23,33.79l.81.45-2.1,0a3.77,3.77,0,0,0,2.79-.21,1.73,1.73,0,0,0,1.05.5L28,33.67c.29.36-1.1.72.54.92,1.15-.41-1.1-.81.8-1.08,1.2.42.85.76,2.25.4.2.24-.1.39-.66.5,1.25-.29,3.3-.12,3.95-.62,1.24.53,4.21-.13,4.09.75a11.73,11.73,0,0,1,3.34-.73C40.2,34.87,46.58,33.87,46,35c1.55-1,5.6-.42,8.34-.94a1.34,1.34,0,0,1-.7.18,14.6,14.6,0,0,1,3,.54c.2-.78,2.6-1,3.9-1.45,1.89.76-1.15.92-.55,1.65-.1-.64,3.29-.63,2.64-1.16,1.45.46,1.25.22,2,.87.25-1,1.34-.16,2.55-.76,2.09.48.53.91,2.84.62C71.13,34.85,69.08,35.19,69.08,35.19Zm54.76-1.69h0l-1.13,0Zm4.6,0c-.56,0-1.26,0-2,0-.16-.2,0-.4.48-.39C126.67,33.21,127.75,33.33,128.44,33.49Zm-9.73-3.9c.72-.08,1,0,1.07.15-.35,0-.75,0-1.28.07a.5.5,0,0,0-.08.07A.8.8,0,0,1,118.71,29.59Z" transform="translate(-17.92 -28.76)"/><path class="cls-1" d="M117.4,30.33a2.43,2.43,0,0,1-.3,0l.43.13.26-.18Z" transform="translate(-17.92 -28.76)"/><path class="cls-1" d="M534.5,31.16h-.1a.76.76,0,0,1,.2.08A.43.43,0,0,1,534.5,31.16Z" transform="translate(-17.92 -28.76)"/><polygon class="cls-1" points="174.06 5.8 174.05 5.66 173.65 5.78 174.06 5.8"/><path class="cls-1" d="M559.84,33.09a.72.72,0,0,0,.33.15S560,33.15,559.84,33.09Z" transform="translate(-17.92 -28.76)"/><path class="cls-1" d="M570.79,33.22l1.54.2C571.66,33.31,571.18,33.25,570.79,33.22Z" transform="translate(-17.92 -28.76)"/><path class="cls-1" d="M579.2,33.5a.59.59,0,0,0,.17-.24h0Z" transform="translate(-17.92 -28.76)"/><path class="cls-1" d="M445.38,34.16l-.33,0C444.29,34.29,444.81,34.25,445.38,34.16Z" transform="translate(-17.92 -28.76)"/><path class="cls-1" d="M485.2,32.85c-.42.1-.84.2-1.28.26C484.63,33.15,485.18,33.17,485.2,32.85Z" transform="translate(-17.92 -28.76)"/><path class="cls-1" d="M400.91,34.84h0Z" transform="translate(-17.92 -28.76)"/><path class="cls-1" d="M482.07,33.1a6,6,0,0,0,1.85,0A9.53,9.53,0,0,0,482.07,33.1Z" transform="translate(-17.92 -28.76)"/><path class="cls-1" d="M615.68,33.75l.41,0a.08.08,0,0,1,0-.09Z" transform="translate(-17.92 -28.76)"/><path class="cls-1" d="M616.14,33.69l.45-.07C616.38,33.62,616.2,33.62,616.14,33.69Z" transform="translate(-17.92 -28.76)"/><path class="cls-1" d="M617.53,33.48l-.94.14A1.75,1.75,0,0,0,617.53,33.48Z" transform="translate(-17.92 -28.76)"/><path class="cls-1" d="M604.54,33.49l-.13.21A.26.26,0,0,0,604.54,33.49Z" transform="translate(-17.92 -28.76)"/><path class="cls-1" d="M601.15,33.55a15.93,15.93,0,0,0,3.16.31l.1-.16C603.88,34,601.92,33.21,601.15,33.55Z" transform="translate(-17.92 -28.76)"/><path class="cls-1" d="M587,31l2.84.17c-.5-.22-1.15-.51.14-.57C586.42,30,590.74,31.12,587,31Z" transform="translate(-17.92 -28.76)"/><path class="cls-1" d="M578.22,30.72c1.53-.1,0-.32.07-.44C577.32,30.48,577.09,30.53,578.22,30.72Z" transform="translate(-17.92 -28.76)"/><path class="cls-1" d="M514.65,30.72l.15-.52C513.63,30.28,514.79,30.4,514.65,30.72Z" transform="translate(-17.92 -28.76)"/><polygon class="cls-1" points="484.58 4.59 485.72 4.91 486.27 4.44 484.58 4.59"/><polygon class="cls-1" points="477.4 0.95 477.91 0.88 475.95 1.06 477.4 0.95"/><path class="cls-1" d="M388.54,29.9l.35.63C389.69,30.41,389.85,29.71,388.54,29.9Z" transform="translate(-17.92 -28.76)"/><path class="cls-1" d="M342.44,30.54a3.56,3.56,0,0,0-2.59-.21C340.88,30.37,341.92,30.62,342.44,30.54Z" transform="translate(-17.92 -28.76)"/><polygon class="cls-1" points="186.28 0.75 187.21 0.54 185.47 0.71 186.28 0.75"/></svg>