<svg xmlns="http://www.w3.org/2000/svg" viewBox="0 0 388.29 388.29"><defs><style>.cls-1{fill:#aaa;}</style></defs><g id="圖層_1" data-name="圖層 1"><path class="cls-1" d="M170.45,194.27c.2,3.87-1.48,6.84-4,9.4q-53.07,53-106.14,106c-5.72,5.71-13.66,6-18.65,1S37.08,297.77,42.84,292q46.93-47,93.9-93.93c3.89-3.89,3.89-3.89,0-7.77q-46.69-46.69-93.4-93.38c-2.91-2.91-5.19-6-5.16-10.38,0-4.94,2.07-8.73,6.44-11a12,12,0,0,1,12.78.7,26.68,26.68,0,0,1,3.91,3.46q52.43,52.34,104.82,104.71C168.9,187.19,170.76,190.3,170.45,194.27Z"/><path class="cls-1" d="M260.27,194.26c.21,3.85-1.45,6.83-4,9.39q-53.06,53-106.13,106c-5.73,5.72-13.65,6.07-18.66,1s-4.57-12.89,1.18-18.65q47.07-47.11,94.17-94.19c3.64-3.64,3.64-3.66.05-7.25Q180,143.76,133.2,97C130.29,94,128,91,128,86.58c0-4.94,2-8.74,6.41-11a12,12,0,0,1,12.78.68A28.25,28.25,0,0,1,151.4,80L255.94,184.41C258.7,187.17,260.57,190.27,260.27,194.26Z"/><path class="cls-1" d="M350.09,194.24c.23,3.82-1.42,6.81-4,9.38q-53.06,53-106.14,106c-5.74,5.73-13.62,6.11-18.65,1s-4.62-12.9,1.11-18.65q46.94-47,93.91-93.93c3.94-3.94,3.94-3.94.11-7.77q-46.69-46.7-93.4-93.38c-2.9-2.9-5.22-6-5.21-10.35,0-4.94,2-8.76,6.38-11a12,12,0,0,1,13.08.83,29.93,29.93,0,0,1,3.89,3.5L345.73,184.38C348.49,187.13,350.38,190.22,350.09,194.24Z"/></g></svg>