<svg id="圖層_1" data-name="圖層 1" xmlns="http://www.w3.org/2000/svg" viewBox="0 0 512 512"><defs><style>.cls-1{fill:#3f6e29;}</style></defs><path class="cls-1" d="M512.32,291.42c-3.5-6.05-8.86-8.8-16-8.17a65.93,65.93,0,0,1-7,.1l-1.39,0V234.6c0-39,0-79.43,0-119.14,0-18.6-10.88-32.44-28.34-36.14a45.14,45.14,0,0,0-9.38-.74c-140.31,0-267.39,0-388.49,0C38.84,78.57,24,93.44,24,116.44Q24,173.71,24,231v52.2a45,45,0,0,1-5.84.08c-6.55-.18-14-.39-18.52,8.26l-.29.54V346l.33.58c4.21,7.41,11.13,8.24,17.94,8.05,4.21-.13,6.84-.16,7.8.57s1.67,3.38,2.75,7.38l.06.24,2.07,7.72c2.48,9.24,5,18.8,7.71,28.17,5.92,20.69,23.49,34.26,44.77,34.55,17.93.25,35.65.25,52.68,0A47,47,0,0,0,180,398.91l.61-2.12c.63-2.2,1.27-4.44,2-6.7.24.88.46,1.74.66,2.62,4,17.72,12.79,29.4,26.87,35.71a53.48,53.48,0,0,0,19.51,4.63c8.65.29,17.25.4,25.87.4,8.9,0,17.83-.11,26.85-.24A47.08,47.08,0,0,0,326.92,399l.56-1.91c.66-2.29,1.34-4.62,2.12-6.95.77,2.75,1.54,5.5,2.33,8.25,5.94,20.85,23.65,34.5,45.12,34.8,15.86.21,32.6.22,51.17,0,22.23-.24,39.81-13.68,45.9-35.09,3.86-13.59,7.67-27.6,11.3-41.66.58-2.24.92-2.21,2.37-2.07a35.31,35.31,0,0,0,4.23.05,28.14,28.14,0,0,1,3.69,0c7.43.71,13-2,16.59-7.95l.35-.6V292ZM460.27,354.8c-.93,3.4-1.82,6.79-2.7,10.1-2.76,10.44-5.38,20.3-8.78,30.1-2.88,8.31-10.05,13.16-19.66,13.32-19.27.32-36.45.31-52.52,0-9.75-.21-16.75-5.17-19.71-14-3.24-9.62-5.78-19.29-8.47-29.53-.86-3.27-1.75-6.63-2.66-10Zm-147.16-.12c-.17.64-.33,1.27-.49,1.9-.89,3.51-1.77,6.93-2.68,10.33l-1.14,4.26c-1.8,6.74-3.66,13.72-5.62,20.52-2.94,10.2-11.26,16.6-21.73,16.69-16.54.16-33.71.16-51,0-9.89-.09-18-5.79-20.78-14.52-3-9.6-5.56-19.15-8.26-29.27-.88-3.28-1.76-6.58-2.67-9.91Zm-146.83.08c-.94,3.44-1.85,6.86-2.74,10.21-2.77,10.46-5.39,20.34-8.81,30.13-2.93,8.39-9.94,13.09-19.73,13.24-15.11.23-31.65.23-52,0-9.61-.11-17.58-5.82-20.31-14.55-3-9.63-5.56-19.18-8.26-29.3q-1.29-4.85-2.62-9.75Zm321.25-46.61v21.22H24.6V308.15H318.48q28.72,0,57.44,0Zm-284-96.4c5.69-16.64,12.38-29.26,21.05-39.73a82.17,82.17,0,0,1,15.27-14.49c11.29-8.07,22.31-8,32.76.33a95.64,95.64,0,0,1,19.67,21c15.07,22.33,23.23,46.9,24.24,73,.26,6.68-.95,13.68-2.13,20.44-.54,3.1-1.09,6.3-1.51,9.48-.18,1.37-.54,1.58-1.73,1.61l-.75,0c-1.2-.11-2.39-.15-3.57-.15s-2.19,0-3.27.06l-1.38,0c-.45,0-.89,0-1.32.08H211.37c-.38,0-.77-.07-1.16-.09h-1.56c-4.92,0-7.9-.06-9-1s-1.69-3.91-2.68-8.86l0-.17C193.26,254.76,195.27,235.78,203.5,211.75Zm259.38,48.59a73.65,73.65,0,0,1-2.05,13.5c-.53,2.47-1.08,5-1.49,7.58-.25,1.56-.45,2-3,1.94-13.47-.1-27.15-.09-40.38-.07H388.48c-13,0-26.51,0-39.77.1-2.32,0-2.72-.28-3.39-2.53-5.25-17.62-4.85-36.13,1.26-58.24,6.27-22.69,14.79-39.67,26.81-53.45a74.58,74.58,0,0,1,16-13.53,24.48,24.48,0,0,1,13.19-4.13,22.55,22.55,0,0,1,12.67,4.05c8.36,5.6,14.49,11.09,18.75,16.78C453.89,199,463.62,228.58,462.88,260.34Zm.26-100.55v10.65c-8-13.14-16.21-22.77-25.62-30.15-23.2-18.2-48.46-17.92-71.13.8-15.5,12.79-27,29.71-37.18,54.81-7.65-18.91-16-32.85-26.61-44.67-8.38-9.32-21.78-21.94-41.39-23.9a52.92,52.92,0,0,0-5.42-.28c-21.81,0-36.78,13.57-46.37,24.16-10.63,11.74-19,25.69-26.64,44.69-9.57-23.63-20.76-40.53-35.19-53.16-24.52-21.46-53.12-21.2-76.53.69-6.06,5.67-11.12,12.45-16,19-2,2.66-4,5.41-6.12,8l-.05.07c0-19.8,0-36.61,0-54,0-9.45,3.74-13.13,13.3-13.13q193.81,0,387.64,0c9.57,0,13.3,3.68,13.32,13.12C463.15,130.77,463.15,145,463.14,159.79ZM51.65,231.13c5.65-25.61,15.1-45.89,28.89-62a71.79,71.79,0,0,1,16-13.5,24.43,24.43,0,0,1,13.16-4.12,22.73,22.73,0,0,1,12.7,4c8.21,5.46,14.24,10.83,18.44,16.41,20,26.5,29.82,56.08,29.21,87.9A75.06,75.06,0,0,1,168,273.73c-.53,2.51-1.08,5.1-1.49,7.7-.23,1.46-.32,2-3,1.93-13.46-.1-27.14-.09-40.38-.07H95.61c-13,0-26.52,0-39.78.11-2.28,0-2.71-.29-3.39-2.54-4.54-15.27-4.8-31.53-.79-49.72Z"/></svg>