<svg id="圖層_1" data-name="圖層 1" xmlns="http://www.w3.org/2000/svg" viewBox="0 0 512 512"><defs><style>.cls-1{fill:#3f6e29;}</style></defs><path class="cls-1" d="M435,502.32H77c-4.54-1.42-9.37-2.27-13.58-4.36-17.05-8.47-24.89-22.73-24.9-41.53q0-106.89.07-213.8c0-3.34-.93-5-4-6.4a45.23,45.23,0,0,1-9.65-6.18c-8.63-6.92-12.76-16.51-15.25-27V163.63a15.68,15.68,0,0,0,.76-2.25c3.43-19.23,17.76-33.94,37.1-35.4,18-1.37,36.19-.65,54.3-.83,3,0,6,0,9.61,0-1.25-2.15-2.06-3.66-3-5.1-23-36.23-9.27-84.49,29.58-102.88,7.41-3.51,15.75-5,23.66-7.48H179a9,9,0,0,0,2.13.87c17.23,2.18,31,10.41,41.89,23.77C233.38,47,239.8,61.86,246.19,76.7c3.25,7.56,6.26,15.22,9.75,23.74,1-2.31,1.62-3.71,2.24-5.1C264.74,80.6,270.79,65.6,278,51.18c8.44-16.87,20.47-30.61,38.9-37.23,5.2-1.86,10.71-2.87,16.07-4.27h17.32a18.23,18.23,0,0,0,2.72.86c47.47,7.38,74.56,56.25,55.41,100.17-2.08,4.78-4.85,9.25-7.6,14.43h5c17.16,0,34.31,0,51.47,0,15,0,27.89,5.33,36.34,18,4.06,6.06,5.86,13.63,8.68,20.52v39.45c-.58,2-1.18,3.93-1.75,5.9-3.51,12.2-10.9,21.35-22.29,26.82-3.75,1.8-4.94,3.68-4.93,7.79q.21,106.43.11,212.84c0,15.37-5.09,28.56-18,37.24C449.41,497.73,441.84,499.51,435,502.32ZM67.41,240.84v5.07q0,105.11,0,210.22c0,11.92,5.4,17.31,17.32,17.32H198V240.84Zm377.18.11H314v232.5H426.63c12.85,0,18-5.15,18-18.13V241ZM284.53,473.24V154.41H227.39V473.24ZM198.08,154.4a8.68,8.68,0,0,0-1.37-.34q-71.86,0-143.72,0c-8.44,0-14.25,6.22-14.4,14.82-.15,8.33-.05,16.66,0,25,0,12.6,5.21,17.85,17.74,17.85H198.08Zm115.85,57a13.53,13.53,0,0,0,1.81.29q71.37,0,142.75,0c8.83,0,14.76-6,14.92-14.81.15-8.33,0-16.66,0-25,0-12.63-5.2-17.88-17.7-17.88H313.93Zm-80-87a1.43,1.43,0,0,0,0-.69c-8.33-19.57-16.23-39.35-25.27-58.59a57.82,57.82,0,0,0-14.15-18.52c-14.22-12.33-38.72-10.61-54.21,3.6-12.74,11.7-17,26.59-12.24,43.32,4.94,17.28,16.66,29.18,34.47,30.46C186.07,125.65,209.86,124.37,233.9,124.37Zm43.49.64c23.05,0,45.16.26,67.27-.19a39.48,39.48,0,0,0,16.15-4c30-14.76,33.77-53.14,7.36-73.71C353.34,35.59,323.65,33.05,309,55.49,295.08,76.87,287.57,101.12,277.39,125Z"/></svg>