<svg xmlns="http://www.w3.org/2000/svg" viewBox="0 0 512 512"><defs><style>.cls-1{fill:#3f6e29;}.cls-2{fill:#fff;}</style></defs><g id="圖層_1" data-name="圖層 1"><rect class="cls-1" width="512" height="512" rx="256"/></g><g id="圖層_2" data-name="圖層 2"><path class="cls-2" d="M183.28,108H328.71a6,6,0,0,0,1.05.44c11.66,2.51,19.46,10.29,21.05,22,.75,5.49.25,11.15.45,16.73a10.24,10.24,0,0,0,1,4.11c4.82,9.84,9.64,19.69,14.68,29.43,2.15,4.16,2.13,8-.71,11.59-3.3,4.22-6.8,8.29-10.42,12.68.23.33.77,1.11,1.32,1.88A58.21,58.21,0,0,1,368.47,241q.18,60.14,0,120.26a43.08,43.08,0,0,1-31.42,41c-2.19.62-4.41,1.13-6.62,1.69H181.55a10,10,0,0,0-1.57-.54,43.29,43.29,0,0,1-36.5-42.76q-.1-59.42,0-118.82a59.37,59.37,0,0,1,11.58-35.35c.5-.69,1-1.4,1.11-1.6-3.77-4.65-7.43-8.95-10.84-13.45-2.42-3.21-2.37-6.72-.5-10.33,3.1-6,5.68-12.25,9.13-18,5.36-8.95,8.15-18.32,6.82-28.78a5,5,0,0,1,0-.86c.33-8.4,3.59-15.49,10.53-20.21C174.87,110.89,179.27,109.71,183.28,108Zm20.87,92.52a3.64,3.64,0,0,0-.68.37c-8.06,7.83-17.47,12-28.92,11.09a4.23,4.23,0,0,0-2.79,1.54c-6.93,7.75-10.86,16.9-10.91,27.28q-.22,60.14,0,120.27a25.6,25.6,0,0,0,25.33,25.56q69.82.19,139.65,0a25.57,25.57,0,0,0,25.36-25.53q.18-60.12,0-120.26c0-10.28-3.93-19.31-10.63-27.13a4.48,4.48,0,0,0-4.19-1.76,32.46,32.46,0,0,1-22-6.28c-2.23-1.61-4.33-3.42-6.56-5.19-7.24,7.17-15.63,11.61-25.95,11.58s-18.61-4.63-25.75-11.63C240,216.14,219.57,215.67,204.15,200.5ZM256,160q-39.36,0-78.73,0c-1.74,0-2.75.38-3.55,2.06-3.46,7.19-7.1,14.29-10.61,21.46a3.48,3.48,0,0,0-.34,2.6c2.66,5.35,12.06,9.6,18.14,8.3,7.12-1.52,11.63-6.37,15.36-12.2,4.16-6.5,11.24-6.36,15.67,0a41.93,41.93,0,0,0,8.3,9.07c6.17,4.82,13.57,4.79,19.71-.08a43.14,43.14,0,0,0,8.25-9.11c4.31-6.17,11.29-6.2,15.57,0a42.9,42.9,0,0,0,7.57,8.6c6.62,5.49,14.51,5.55,21.11.09a45.75,45.75,0,0,0,7.92-9.05c4-5.7,11.19-5.8,15.07,0a50.54,50.54,0,0,0,4.3,5.77c8.65,9.64,19.75,9.58,28.46,0,1.29-1.41,1.57-2.52.65-4.29-3.51-6.74-6.93-13.52-10.18-20.38-1-2.1-2.13-2.88-4.51-2.87C308.1,160.05,282.05,160,256,160Zm-77.89-17.55H333.9v-6.81c0-7.11-3.27-10.34-10.44-10.34h-135c-.77,0-1.55,0-2.31,0a8.64,8.64,0,0,0-8.05,8C178,136.34,178.11,139.32,178.11,142.47Z"/><path class="cls-2" d="M247,265.41c0-3.2-.05-6.19,0-9.18.11-5.31,4-9.26,9-9.24s8.84,4,8.94,9.34c0,3,0,6,0,8.88,3.75.85,7.29,1.44,10.7,2.47,17.53,5.26,27,19,25.11,37.29a107.23,107.23,0,0,1-18.27,50.81,55.8,55.8,0,0,1-11.48,12.09c-9.26,7.2-20.16,7.1-29.77.38-8.71-6.1-14.2-14.8-18.75-24.14a118.85,118.85,0,0,1-11.35-38.33c-2.37-20.18,9.7-35.78,30.72-39.52C243.47,266,245.05,265.73,247,265.41Zm10.53,17.13c-5.61.71-9.82,1-13.9,1.81-11,2.28-15.9,9.29-14.42,20.46a86.4,86.4,0,0,0,1.69,9.44c3.15,12.61,7.58,24.69,16,34.86,6.6,8,11.81,8.08,18.21-.08,11-14.09,16.65-30.4,17.82-48.19.47-7.2-3.05-12.56-9.84-14.83C267.67,284.2,261.89,283.47,257.53,282.54Z"/></g></svg>