<svg xmlns="http://www.w3.org/2000/svg" viewBox="0 0 512 512"><defs><style>.cls-1{fill:#3f6e29;}.cls-2{fill:#fff;}</style></defs><g id="圖層_1" data-name="圖層 1"><rect class="cls-1" width="512" height="512" rx="256"/></g><g id="圖層_2" data-name="圖層 2"><path class="cls-2" d="M363.55,404H148.45c-2.73-.85-5.63-1.36-8.16-2.61-10.25-5.1-15-13.67-15-25q0-64.24,0-128.48c0-2-.56-3-2.43-3.85a27.08,27.08,0,0,1-5.8-3.71c-5.19-4.17-7.67-9.93-9.16-16.21V200.49a9.72,9.72,0,0,0,.45-1.35c2.06-11.56,10.68-20.4,22.3-21.28,10.82-.82,21.75-.38,32.63-.5,1.79,0,3.58,0,5.77,0-.75-1.29-1.24-2.2-1.79-3.07a42.93,42.93,0,0,1,17.78-61.82c4.45-2.11,9.46-3,14.21-4.49h10.41a6,6,0,0,0,1.28.52c10.36,1.31,18.64,6.25,25.18,14.28,6.21,7.63,10.06,16.55,13.9,25.47,2,4.54,3.77,9.15,5.86,14.27l1.35-3.07c3.94-8.86,7.58-17.87,11.91-26.53,5.07-10.15,12.3-18.4,23.38-22.38,3.12-1.12,6.43-1.72,9.66-2.56h10.41a10.6,10.6,0,0,0,1.63.51c28.53,4.44,44.81,33.8,33.3,60.2-1.25,2.87-2.92,5.56-4.57,8.67h3c10.31,0,20.62,0,30.93,0,9,0,16.76,3.21,21.84,10.79,2.44,3.64,3.52,8.19,5.21,12.33V224.2l-1,3.55a24.68,24.68,0,0,1-13.39,16.11c-2.26,1.08-3,2.21-3,4.68q.12,64,.06,127.91c0,9.23-3.06,17.16-10.82,22.38C372.23,401.27,367.68,402.34,363.55,404ZM142.67,246.89V376.27c0,7.16,3.25,10.4,10.41,10.41h68.09V246.89Zm226.66.07h-78.5V386.68h67.71c7.72,0,10.79-3.1,10.79-10.9V247ZM273.14,386.55V195H238.81v191.6ZM221.2,194.94a5.78,5.78,0,0,0-.83-.2q-43.18,0-86.37,0c-5.07,0-8.56,3.74-8.65,8.91-.09,5,0,10,0,15,0,7.57,3.14,10.72,10.66,10.72H221.2Zm69.61,34.27a8.47,8.47,0,0,0,1.09.18q42.89,0,85.79,0c5.3,0,8.87-3.61,9-8.9.09-5,0-10,0-15,0-7.58-3.13-10.74-10.64-10.74H290.81ZM242.72,176.9a.85.85,0,0,0,0-.42c-5-11.76-9.75-23.65-15.18-35.21A34.8,34.8,0,0,0,219,130.14c-8.54-7.41-23.27-6.37-32.57,2.17-7.66,7-10.24,16-7.36,26,3,10.38,10,17.53,20.72,18.31C214,177.67,228.27,176.9,242.72,176.9Zm26.13.38c13.86,0,27.15.16,40.43-.11a23.72,23.72,0,0,0,9.7-2.4c18-8.86,20.3-31.93,4.43-44.29-8.91-6.94-26.75-8.46-35.55,5C279.49,148.35,275,162.93,268.85,177.28Z"/></g></svg>