<svg xmlns="http://www.w3.org/2000/svg" viewBox="0 0 512 512"><defs><style>.cls-1{fill:#3f6e29;}.cls-2{fill:#fff;}</style></defs><g id="圖層_1" data-name="圖層 1"><rect class="cls-1" width="512" height="512" rx="256"/></g><g id="圖層_2" data-name="圖層 2"><path class="cls-2" d="M251.4,108.76h9.2a1.89,1.89,0,0,0,.51.26c12.1,1.79,22,7.33,29.47,17.13a2.89,2.89,0,0,0,2.41.65c13.11-2.59,24.15,3,29.75,15.27.7,1.52,1.58,1.79,3.05,1.83a41.94,41.94,0,0,1,29.34,12.53,44.19,44.19,0,0,1,12.16,22.37l2.13.16c11.64.66,20.84,5.76,27.7,15.15,3.35,4.58,4.84,9.9,6.12,15.3v7.48c-1.17,5.61-2.7,11.08-6.06,15.87a2.07,2.07,0,0,0-.09,1.83c3.42,5.52,4.89,11.7,6.15,18v8.05a7.55,7.55,0,0,0-.43,1.35,41.74,41.74,0,0,1-12.39,24.69c-3.05,3-6.63,5.4-10.11,8.2.3.71.68,1.57,1,2.45,4.82,11.83,5.6,23.73.76,35.78-5,12.44-14.09,21.26-25.05,28.39-7.82,5.1-16.47,7.91-25.84,7.06-3.42-.31-4.8.85-6.44,3.46-10,16-24.43,25.8-42.81,29.83-2.32.51-4.65,1-7,1.43H237c-.63-.19-1.24-.41-1.88-.58-5.54-1.43-11.28-2.33-16.58-4.38a64.3,64.3,0,0,1-33-28.1c-.92-1.57-1.95-1.77-3.68-1.78-4.47,0-9,0-13.37-.94-11.07-2.39-19.81-9-27.51-16.88-11.9-12.21-17.43-26.63-13.78-43.75.9-4.24,2.48-8.34,3.77-12.62-8.15-4.71-14.57-11.17-18.24-19.94-1.76-4.18-2.67-8.72-4-13.09v-8.63c1.2-6.18,2.68-12.26,6-17.74a2.35,2.35,0,0,0,0-2.07c-3.31-4.8-4.88-10.24-6-15.85v-7.48c.19-.63.42-1.26.55-1.9,2.7-13.32,10.49-22.33,23.28-26.78,3.64-1.26,7.61-1.56,11.63-2.33.08-.32.2-.87.35-1.42,5.2-19.51,21.24-32.44,41.22-33.06,2-.06,2.53-1,3.21-2.46,5.11-11.11,17.5-17.45,29.14-14.74,2.13.49,3.06-.14,4.23-1.64a37.53,37.53,0,0,1,15.92-12.36C242.52,111.06,247,110.06,251.4,108.76Zm-4,277.15c-.57-.65-.73-.9-.94-1.08a214.13,214.13,0,0,1-44.73-52.15,3.69,3.69,0,0,0-2.93-1.37c-9.25.83-18.49,1.84-27.74,2.79-5.66.58-10-2.64-10.52-7.73s3.13-8.87,8.67-9.45c7.43-.76,14.85-1.56,22.55-2.37l-.94-2.54c-3.7-9.95-7.34-19.91-11.16-29.81a6.9,6.9,0,0,0-2.9-3.45c-9-4.67-18.13-9.11-27.17-13.71a14.84,14.84,0,0,1-4.38-3.15,8.27,8.27,0,0,1-.1-10.61,8.44,8.44,0,0,1,10.6-2.38c6.48,3.09,12.86,6.37,19.29,9.57.81.4,1.64.75,2.76,1.27V256.1c0-11,0-22.05,0-33.07,0-2.93.73-5.52,3-7.45a8.09,8.09,0,0,1,9.12-1.34,8.47,8.47,0,0,1,5.12,8.29c0,12.56.24,25.12-.08,37.67-.22,8.44.63,16.59,3.62,24.5,1.85,4.89,3.66,9.8,5.63,15.1.87-1.17,1.44-1.91,2-2.67,2.65-3.75,5.2-7.59,8-11.26a8,8,0,0,1,8.65-3.16c3.6.84,6.19,3.22,6.45,6.84a12.67,12.67,0,0,1-1.9,7.2c-4.05,6.39-8.47,12.55-12.91,18.67-1.22,1.69-1.25,2.91-.1,4.56,6,8.63,11.66,17.55,18,25.91,7.15,9.37,15.59,17.6,25.15,25.61-.36-1.5-.55-2.38-.79-3.25-3.56-12.52-7.08-25-10.68-37.55a43.36,43.36,0,0,1,.47-26.26c2.37-7.16,6.82-13,11.29-18.87,11.29-14.84,8.27-36.84-6.67-47.94a34.27,34.27,0,0,0-26.61-6.51c-8.11,1.28-11.82-1.65-12.25-9.67-.88-16.09-14.4-27.23-30.15-24.81-5.18.8-9.44,3.44-13.47,6.65s-8.19,2.89-11.93-.57c-.7-.65-1.38-1.33-2.08-2A16.86,16.86,0,0,0,133.92,199c-6.51,4.18-9.63,12.42-6.84,19.57,1.17,3,3.37,5.72,5.49,8.24,3.29,3.91,3.66,7.88.6,12-.63.85-1.28,1.67-1.93,2.51A25.57,25.57,0,0,0,132.89,274c3.65,3.91,8.18,6.15,13.19,7.75,6.69,2.14,8.61,7.95,4.79,13.87-.78,1.21-1.68,2.34-2.4,3.58-5,8.59-6.89,17.58-3.28,27.21,2.58,6.88,7.49,12,12.95,16.57,8.21,6.93,17.27,10.36,28.17,7.27,5.31-1.51,8.78.38,11.1,5.53A50.46,50.46,0,0,0,208.69,372C219.4,382.12,232.28,386.38,247.42,385.91Zm23.3-153.32,1.7,2.5c9,13.28,11.5,27.72,7.71,43.27C278,287,273.24,294,267.87,300.86c-6,7.61-8,16.14-5.11,25.65,2.42,8,4.6,16,6.89,24,.46,1.59.94,3.17,1.5,5a189.26,189.26,0,0,0,27.36-37.81c-4.9-7.06-9.86-14.1-14.72-21.21-3.09-4.53-2.31-9.57,1.75-12.47s9.13-1.87,12.32,2.51c2.48,3.41,4.82,6.92,7.24,10.37.61.88,1.27,1.71,2.3,3.08,2.28-6.63,4.27-12.61,6.41-18.53a49.42,49.42,0,0,0,2.64-17.74c-.21-13.51-.08-27-.06-40.54,0-5.88,3.46-9.75,8.62-9.75s8.61,3.87,8.62,9.74q0,16.53,0,33.07v3.42c1.23-.55,2.09-.89,2.91-1.3,6.26-3.11,12.47-6.32,18.77-9.33,5.54-2.64,11.31.07,12.62,5.74.9,3.93-1,7.67-5.26,9.81q-13.95,7.06-28,14a5.68,5.68,0,0,0-3.12,3.73q-3.74,11.46-7.83,22.79c-1.13,3.12-2.63,6.1-4.05,9.33.73.13,1.18.23,1.63.27,7.14.76,14.29,1.49,21.43,2.26,4.65.51,7.93,3.87,8.12,8.23a8.56,8.56,0,0,1-7.09,8.82,17.88,17.88,0,0,1-4.56-.09c-8.77-.86-17.53-1.82-26.31-2.59a3.79,3.79,0,0,0-3,1.36,222.29,222.29,0,0,1-32.05,40.82c-.53.55-1.15,1.54-1,2.14.72,3,1.68,6,2.61,9.14,15.94-4.11,27.21-13.3,34-28,3-6.43,6.2-8,13-6.28s13.3,1.33,19.09-2.47A81.58,81.58,0,0,0,359.43,337c6.81-7,9.94-15.54,8.2-25.5-1-6-3.81-11.13-7.2-16.09-3.75-5.5-1.65-11.36,4.59-13.56.82-.29,1.64-.55,2.46-.81,17.76-5.75,24-25.82,12.59-40.6-4.79-6.21-4.63-9.37.74-15,6-6.25,6.78-14.79,2.06-21.54a17.47,17.47,0,0,0-21.39-6.15,25.42,25.42,0,0,0-6.22,4.5c-4.46,4-8.24,4.3-13.08.63-.84-.63-1.63-1.34-2.5-1.93-8.23-5.5-17-6.38-25.86-2-9.81,4.78-14.37,13.05-14.68,23.82-.16,5.55-4,9.09-9.52,8.68-1.33-.1-2.66-.33-4-.48A33.69,33.69,0,0,0,270.72,232.59ZM283,212.31c3.42-12.68,10.56-22.37,21.37-28.05,13.82-7.26,27.68-7.1,41.51.16a4.18,4.18,0,0,0,3.51,0c.62-.38.81-2.15.57-3.15a25.74,25.74,0,0,0-30.25-19.5c-7.84,1.6-11.8-1.61-12-9.61A9.1,9.1,0,0,0,303,144.4c-2.84-1.73-5.66-1.33-8.36.46-.8.53-1.59,1.08-2.42,1.56a8.45,8.45,0,0,1-10.69-1.79,27.18,27.18,0,0,1-2.58-4.45c-4.64-8.62-11.85-13.6-21.58-14-11.59-.5-19.92,4.93-25,15.36-3.15,6.42-8.18,7.81-14.1,3.88-3-2-6-3-9.37-1a9.42,9.42,0,0,0-5.15,9.21,8.09,8.09,0,0,1-7.16,8.59,21.47,21.47,0,0,1-5.68-.54c-13.39-2.52-27.34,7-29.66,20.45a2.8,2.8,0,0,0,.76,2.38,4.59,4.59,0,0,0,2.79.37,5.31,5.31,0,0,0,1.78-.89,42.78,42.78,0,0,1,48,5.52,44,44,0,0,1,14.1,23.9,27.28,27.28,0,0,1,3.81.21c5.7,1.13,11.72,1.56,17,3.75,4.63,1.94,8.13,1.88,12.77.13C268.68,215,275.66,214.05,283,212.31Z"/></g></svg>