<svg id="圖層_1" data-name="圖層 1" xmlns="http://www.w3.org/2000/svg" viewBox="0 0 512 512"><defs><style>.cls-1{fill:#3f6e29;}</style></defs><path class="cls-1" d="M248.34,11h15.32a3.19,3.19,0,0,0,.84.43c20.15,3,36.62,12.19,49,28.51.68.89,2.76,1.33,4,1.08,21.82-4.31,40.19,5,49.51,25.4,1.16,2.54,2.62,3,5.08,3,19,.43,35.27,7.58,48.81,20.86,10.5,10.3,17,22.86,20.25,37.23,1.36.1,2.45.2,3.54.27,19.36,1.09,34.67,9.58,46.09,25.21,5.57,7.62,8.05,16.47,10.18,25.46v12.44c-1.95,9.34-4.49,18.44-10.08,26.4a3.42,3.42,0,0,0-.15,3.05c5.7,9.2,8.14,19.48,10.23,29.89v13.4a13.37,13.37,0,0,0-.72,2.25A69.34,69.34,0,0,1,479.67,307c-5.07,4.95-11,9-16.82,13.63.5,1.19,1.13,2.63,1.72,4.08,8,19.69,9.31,39.5,1.27,59.55-8.31,20.69-23.46,35.38-41.69,47.25-13,8.47-27.41,13.15-43,11.73-5.71-.51-8,1.42-10.72,5.76-16.66,26.61-40.65,42.93-71.25,49.65-3.86.85-7.74,1.58-11.61,2.37H224.42c-1-.32-2.07-.68-3.13-.95-9.22-2.39-18.77-3.9-27.6-7.29-23.66-9.11-42-24.87-54.95-46.78-1.53-2.6-3.24-2.93-6.13-2.95-7.44-.05-15.05,0-22.25-1.57-18.41-4-33-14.93-45.78-28.09-19.79-20.31-29-44.3-22.92-72.8,1.5-7.06,4.12-13.88,6.28-21-13.57-7.84-24.26-18.6-30.37-33.18-2.92-7-4.43-14.51-6.58-21.8V250.26c2-10.29,4.45-20.4,10-29.51a3.88,3.88,0,0,0,0-3.45c-5.51-8-8.12-17-10-26.38V178.48c.31-1.06.7-2.1.91-3.17,4.5-22.17,17.45-37.16,38.74-44.56,6-2.1,12.67-2.59,19.35-3.88.14-.54.34-1.45.59-2.36,8.65-32.47,35.34-54,68.58-55,3.28-.1,4.22-1.67,5.34-4.1,8.51-18.48,29.13-29,48.5-24.53,3.54.82,5.1-.23,7-2.73,7.06-9.09,15.74-16.36,26.48-20.57C233.58,14.81,241.06,13.15,248.34,11Zm-6.62,461.19a21,21,0,0,0-1.57-1.8,356.58,356.58,0,0,1-74.42-86.78,6.16,6.16,0,0,0-4.88-2.28c-15.4,1.38-30.77,3.06-46.15,4.64-9.43,1-16.7-4.39-17.51-12.87-.79-8.27,5.21-14.76,14.43-15.71,12.35-1.27,24.7-2.6,37.52-4l-1.56-4.22c-6.16-16.55-12.23-33.13-18.58-49.6a11.49,11.49,0,0,0-4.82-5.75c-15-7.77-30.18-15.14-45.22-22.8a24.51,24.51,0,0,1-7.28-5.25c-4.43-5-4.28-12.35-.18-17.65a14,14,0,0,1,17.64-4c10.78,5.14,21.41,10.6,32.11,15.91,1.34.67,2.73,1.26,4.59,2.12v-6.06c0-18.34,0-36.68,0-55,0-4.87,1.22-9.19,5-12.39,4.56-3.83,9.76-4.73,15.18-2.23,5.77,2.66,8.51,7.47,8.51,13.8,0,20.89.41,41.8-.13,62.68-.36,14.05,1.05,27.61,6,40.76,3.08,8.14,6.08,16.31,9.36,25.14,1.46-2,2.4-3.18,3.29-4.44,4.41-6.25,8.66-12.63,13.25-18.75a13.26,13.26,0,0,1,14.4-5.25c6,1.39,10.29,5.35,10.73,11.38a21.13,21.13,0,0,1-3.16,12c-6.74,10.63-14.09,20.88-21.48,31.07-2,2.81-2.08,4.83-.17,7.58,10,14.36,19.4,29.21,30,43.12,11.89,15.59,25.94,29.28,41.85,42.62-.61-2.49-.92-4-1.33-5.41-5.91-20.83-11.77-41.68-17.77-62.48a72.23,72.23,0,0,1,.79-43.71c3.94-11.91,11.35-21.61,18.79-31.4,18.79-24.69,13.76-61.3-11.1-79.76a57,57,0,0,0-44.28-10.83c-13.5,2.12-19.67-2.76-20.39-16.1-1.45-26.77-24-45.31-50.16-41.28-8.63,1.32-15.71,5.72-22.43,11.06S97,173.1,90.8,167.34c-1.17-1.08-2.3-2.21-3.46-3.3a28.08,28.08,0,0,0-34.49-2.89c-10.83,6.95-16,20.67-11.38,32.57,2,5,5.61,9.52,9.14,13.71,5.47,6.5,6.08,13.11,1,19.94-1,1.4-2.14,2.78-3.21,4.17C36,247.66,37.22,271.14,51.13,286c6.08,6.5,13.61,10.22,22,12.89,11.13,3.55,14.32,13.22,8,23.07-1.29,2-2.78,3.91-4,6-8.33,14.29-11.48,29.24-5.46,45.27,4.3,11.44,12.46,19.9,21.55,27.58C106.81,412.34,121.89,418,140,412.9c8.84-2.5,14.61.63,18.47,9.2A83.79,83.79,0,0,0,177.28,449C195.1,465.87,216.53,473,241.72,472.18ZM280.49,217l2.83,4.17c15,22.1,19.13,46.12,12.83,72-3.48,14.29-11.46,26.07-20.4,37.44-10,12.67-13.32,26.85-8.51,42.68,4,13.25,7.66,26.62,11.48,39.93.76,2.65,1.57,5.28,2.49,8.4a315.12,315.12,0,0,0,45.53-62.93c-8.16-11.74-16.41-23.45-24.5-35.29-5.14-7.53-3.84-15.92,2.92-20.74s15.19-3.12,20.5,4.17c4.13,5.67,8,11.51,12,17.26,1,1.45,2.12,2.85,3.83,5.13,3.8-11,7.11-21,10.66-30.85,3.45-9.57,4.56-19.35,4.4-29.52-.36-22.48-.14-45-.1-67.46,0-9.78,5.76-16.22,14.34-16.22s14.33,6.44,14.35,16.21c0,18.35,0,36.69,0,55v5.69c2.05-.91,3.48-1.49,4.86-2.17,10.41-5.17,20.74-10.5,31.23-15.51,9.21-4.4,18.81.1,21,9.54,1.51,6.54-1.7,12.77-8.74,16.33q-23.23,11.75-46.6,23.25a9.48,9.48,0,0,0-5.19,6.22q-6.23,19.06-13,37.92c-1.87,5.19-4.38,10.16-6.73,15.53,1.21.21,1.95.37,2.7.45,11.89,1.26,23.78,2.47,35.67,3.76,7.74.85,13.19,6.44,13.52,13.69a14.25,14.25,0,0,1-11.8,14.68,29.81,29.81,0,0,1-7.6-.15c-14.6-1.43-29.17-3-43.78-4.31a6.25,6.25,0,0,0-4.95,2.26,370.69,370.69,0,0,1-53.33,67.93c-.9.91-1.92,2.55-1.68,3.56,1.2,5,2.81,10,4.35,15.2,26.52-6.83,45.28-22.13,56.58-46.55,5-10.7,10.32-13.32,21.72-10.45,11.18,2.82,22.12,2.22,31.76-4.11a136.39,136.39,0,0,0,23-18.42c11.33-11.65,16.53-25.86,13.64-42.44-1.74-10-6.35-18.51-12-26.77-6.25-9.16-2.75-18.9,7.64-22.57,1.35-.47,2.72-.91,4.08-1.35,29.55-9.56,39.92-43,21-67.56-8-10.33-7.71-15.59,1.24-25,9.91-10.39,11.27-24.61,3.41-35.83-8-11.44-23.05-16-35.59-10.25-3.81,1.74-7.2,4.65-10.35,7.5-7.41,6.71-13.72,7.16-21.76,1.05-1.39-1.06-2.71-2.24-4.16-3.21-13.7-9.16-28.23-10.62-43-3.4-16.32,7.95-23.92,21.72-24.44,39.64-.26,9.24-6.68,15.12-15.83,14.43-2.22-.16-4.43-.53-6.64-.78A56.2,56.2,0,0,0,280.49,217Zm20.41-33.73c5.69-21.12,17.57-37.24,35.56-46.69,23-12.09,46.05-11.82,69.07.27a7,7,0,0,0,5.83,0c1-.63,1.36-3.57,1-5.24A42.84,42.84,0,0,0,362,99.23c-13.05,2.67-19.65-2.68-20-16-.14-5.68-3-10-7.77-12.94s-9.42-2.22-13.91.77c-1.33.88-2.64,1.79-4,2.58a14.05,14.05,0,0,1-17.79-3c-1.79-2.18-2.95-4.88-4.3-7.39C286.51,48.93,274.51,40.65,258.31,40c-19.28-.82-33.14,8.22-41.65,25.57-5.25,10.69-13.61,13-23.46,6.46-5-3.32-10-4.93-15.6-1.72-5.85,3.38-8.88,8.28-8.56,15.32.34,7.37-5,13.71-11.92,14.3a35.59,35.59,0,0,1-9.44-.91c-22.29-4.17-45.5,11.72-49.37,34-.22,1.26.35,3.32,1.27,4,1.16.8,3.08.74,4.64.6,1-.08,2-.94,3-1.47a71.19,71.19,0,0,1,79.9,9.18,73.31,73.31,0,0,1,23.47,39.77,45.54,45.54,0,0,1,6.32.35c9.5,1.87,19.5,2.59,28.27,6.25,7.71,3.21,13.54,3.12,21.25.2C277.1,187.82,288.71,186.2,300.9,183.31Z"/></svg>