<svg id="圖層_1" data-name="圖層 1" xmlns="http://www.w3.org/2000/svg" viewBox="0 0 512 512"><defs><style>.cls-1{fill:#3f6e29;}</style></defs><path class="cls-1" d="M134.63,9.68h242a10.67,10.67,0,0,0,1.75.74c19.41,4.18,32.39,17.12,35,36.52,1.24,9.14.41,18.56.73,27.84a17.29,17.29,0,0,0,1.62,6.84c8,16.38,16.05,32.78,24.43,49,3.59,6.91,3.55,13.25-1.18,19.29-5.49,7-11.31,13.79-17.34,21.09.39.56,1.28,1.86,2.19,3.14,12.19,17,18.86,36.06,18.92,57q.32,100,0,200.11c-.09,31.71-21.79,59.68-52.28,68.28-3.65,1-7.35,1.88-11,2.82H131.74a15.22,15.22,0,0,0-2.61-.9A72,72,0,0,1,68.4,430.26q-.18-98.86,0-197.73c0-21.64,6.61-41.26,19.26-58.82.83-1.15,1.62-2.33,1.85-2.65-6.27-7.75-12.37-14.91-18-22.39-4-5.35-4-11.18-.84-17.19,5.16-9.94,9.45-20.39,15.2-30C94.76,86.62,99.4,71,97.18,53.63a8.67,8.67,0,0,1,0-1.44c.55-14,6-25.77,17.52-33.64C120.63,14.53,127.94,12.57,134.63,9.68Zm34.73,154a5.67,5.67,0,0,0-1.13.61c-13.42,13-29.08,20-48.13,18.45-1.49-.12-3.51,1.3-4.64,2.57-11.54,12.9-18.08,28.11-18.15,45.4q-.39,100.05,0,200.12c.06,23.31,18.95,42.48,42.14,42.54q116.19.33,232.38,0A42.57,42.57,0,0,0,414,430.86q.3-100,0-200.12c-.06-17.11-6.55-32.14-17.7-45.14a7.42,7.42,0,0,0-7-2.94,54,54,0,0,1-36.58-10.45c-3.72-2.68-7.2-5.68-10.92-8.64-12,11.93-26,19.33-43.18,19.28s-31-7.7-42.85-19.35C229,189.67,195,188.88,169.36,163.65Zm86.27-67.37q-65.5,0-131-.06c-2.89,0-4.57.64-5.91,3.42-5.76,12-11.82,23.79-17.65,35.72-.62,1.26-1.11,3.23-.57,4.32,4.43,8.9,20.07,16,30.18,13.82,11.86-2.53,19.37-10.61,25.56-20.3,6.92-10.82,18.72-10.59,26.08,0a69.88,69.88,0,0,0,13.81,15.09c10.28,8,22.59,8,32.8-.14A72,72,0,0,0,242.66,133c7.17-10.26,18.78-10.31,25.91,0a70.59,70.59,0,0,0,12.6,14.31c11,9.13,24.13,9.24,35.12.16,5.08-4.2,9.33-9.63,13.17-15.06,6.71-9.49,18.63-9.66,25.08,0a83.12,83.12,0,0,0,7.16,9.6c14.39,16,32.86,15.95,47.36,0,2.14-2.34,2.61-4.18,1.07-7.13-5.83-11.21-11.52-22.5-16.94-33.92-1.65-3.48-3.54-4.78-7.5-4.77C342.34,96.34,299,96.28,255.63,96.28ZM126,67.08H385.26c0-4,0-7.67,0-11.33,0-11.83-5.43-17.2-17.38-17.2H143.3c-1.27,0-2.56-.06-3.83,0A14.38,14.38,0,0,0,126.08,52C125.79,56.88,126,61.84,126,67.08Z"/><path class="cls-1" d="M240.66,271.66c0-5.32-.09-10.3,0-15.27.18-8.84,6.66-15.42,15-15.38s14.71,6.63,14.87,15.54c.1,5,0,9.94,0,14.78,6.24,1.42,12.14,2.4,17.81,4.1,29.17,8.76,44.85,31.68,41.79,62.06-3.1,30.63-12.9,59.14-30.41,84.55a92.56,92.56,0,0,1-19.11,20.11c-15.4,12-33.54,11.82-49.54.63-14.49-10.14-23.63-24.62-31.19-40.16a197.37,197.37,0,0,1-18.88-63.79c-3.95-33.58,16.13-59.53,51.11-65.76C234.79,272.6,237.41,272.19,240.66,271.66Zm17.52,28.5c-9.34,1.18-16.34,1.61-23.14,3-18.36,3.8-26.45,15.46-24,34.05a141.13,141.13,0,0,0,2.8,15.71c5.24,21,12.61,41.09,26.62,58,11,13.26,19.65,13.46,30.3-.13,18.38-23.44,27.7-50.58,29.65-80.19.79-12-5.07-20.9-16.37-24.68C275.05,302.92,265.44,301.72,258.18,300.16Z"/></svg>