<svg xmlns="http://www.w3.org/2000/svg" viewBox="0 0 512 512"><defs><style>.cls-1{fill:#3f6e29;}.cls-2{fill:#fff;}</style></defs><g id="圖層_1" data-name="圖層 1"><rect class="cls-1" width="512" height="512" rx="256"/></g><g id="圖層_2" data-name="圖層 2"><path class="cls-2" d="M410,277.29a9.33,9.33,0,0,0-9.59-4.91,38.32,38.32,0,0,1-4.19.05h-.83V243.14c0-23.47,0-47.73,0-71.6,0-11.17-6.54-19.49-17-21.72a27.72,27.72,0,0,0-5.64-.44c-84.32,0-160.68,0-233.46,0-13.77,0-22.67,8.94-22.68,22.76q0,34.41,0,68.83v31.37a29,29,0,0,1-3.51.05c-3.93-.11-8.4-.24-11.13,5l-.17.33v32.39l.19.34c2.53,4.45,6.69,5,10.78,4.84,2.54-.07,4.12-.1,4.69.34s1,2,1.65,4.44l0,.14c.42,1.55.83,3.1,1.25,4.64,1.48,5.56,3,11.3,4.63,16.93a28,28,0,0,0,26.91,20.77c10.77.14,21.42.14,31.65,0a28.27,28.27,0,0,0,26.74-20.61l.37-1.27c.38-1.33.76-2.67,1.21-4,.14.53.28,1.05.4,1.58,2.4,10.65,7.68,17.67,16.14,21.45a32.13,32.13,0,0,0,11.73,2.79c5.19.17,10.36.24,15.54.24,5.35,0,10.72-.07,16.14-.15A28.29,28.29,0,0,0,298.62,342l.33-1.15c.4-1.38.81-2.78,1.28-4.18.46,1.66.93,3.31,1.4,5a28.14,28.14,0,0,0,27.11,20.9c9.53.13,19.59.14,30.76,0,13.35-.14,23.92-8.22,27.58-21.08,2.32-8.17,4.61-16.59,6.79-25,.35-1.34.55-1.33,1.43-1.24a23.88,23.88,0,0,0,2.53,0,16.32,16.32,0,0,1,2.22,0c4.47.43,7.82-1.18,10-4.78l.21-.35V277.63Zm-31.27,38.09c-.56,2-1.1,4.07-1.63,6.06-1.66,6.28-3.23,12.2-5.27,18.09-1.73,5-6,7.91-11.82,8-11.58.19-21.9.18-31.56,0-5.86-.12-10.07-3.1-11.85-8.39-1.94-5.78-3.47-11.59-5.09-17.75-.51-2-1-4-1.59-6Zm-88.44-.08c-.1.39-.2.77-.29,1.14-.54,2.12-1.07,4.17-1.61,6.21l-.69,2.56c-1.08,4.05-2.2,8.24-3.38,12.33a13.36,13.36,0,0,1-13.06,10c-9.94.09-20.25.09-30.65,0-5.94-.05-10.84-3.48-12.48-8.73-1.81-5.76-3.34-11.5-5-17.58-.53-2-1.06-4-1.6-6Zm-88.24.05c-.56,2.07-1.11,4.13-1.64,6.13-1.67,6.29-3.24,12.23-5.3,18.11-1.76,5-6,7.87-11.86,8-9.07.14-19,.14-31.28,0a12.57,12.57,0,0,1-12.2-8.74c-1.8-5.79-3.34-11.53-5-17.61-.52-1.95-1-3.9-1.58-5.86Zm193.06-28v12.75H116.94V287.34h278.2ZM224.45,229.41c3.42-10,7.44-17.59,12.65-23.88a49.3,49.3,0,0,1,9.18-8.7C253.06,192,259.69,192,266,197a57.26,57.26,0,0,1,11.82,12.61,83.15,83.15,0,0,1,14.57,43.88,59.33,59.33,0,0,1-1.28,12.29c-.32,1.86-.66,3.78-.91,5.69-.11.82-.32.95-1,1l-.45,0c-.72-.07-1.43-.09-2.14-.09s-1.32,0-2,0l-.83,0c-.27,0-.53,0-.79,0H229.18c-.23,0-.46,0-.7,0h-.94c-2.95,0-4.74,0-5.39-.58s-1-2.35-1.61-5.32l0-.11C218.29,255.25,219.51,243.85,224.45,229.41Zm155.87,29.2a43.81,43.81,0,0,1-1.23,8.11c-.32,1.48-.65,3-.89,4.55-.15.94-.27,1.21-1.79,1.17-8.09-.06-16.32-.05-24.27,0H335.61c-7.83,0-15.93,0-23.9.07-1.39,0-1.63-.17-2-1.52-3.15-10.59-2.91-21.72.77-35,3.76-13.63,8.88-23.84,16.1-32.12a45.17,45.17,0,0,1,9.6-8.12,14.68,14.68,0,0,1,7.93-2.49,13.58,13.58,0,0,1,7.61,2.43A45.23,45.23,0,0,1,363,205.72C374.92,221.73,380.77,239.52,380.32,258.61Zm.16-60.43v6.4c-4.82-7.89-9.74-13.68-15.4-18.12-13.94-10.94-29.12-10.76-42.74.48C313,194.63,306.13,204.8,300,219.88c-4.6-11.36-9.61-19.74-16-26.84-5-5.6-13.1-13.18-24.88-14.36a30.27,30.27,0,0,0-3.25-.17c-13.11,0-22.11,8.16-27.87,14.52-6.39,7.05-11.4,15.43-16,26.85-5.75-14.2-12.48-24.35-21.15-31.94-14.73-12.9-31.92-12.74-46,.41a84.92,84.92,0,0,0-9.62,11.42c-1.2,1.6-2.43,3.25-3.68,4.82l0,0c0-11.9,0-22,0-32.43,0-5.68,2.26-7.89,8-7.89h233c5.75,0,8,2.21,8,7.88C380.49,180.74,380.48,189.3,380.48,198.18ZM133.2,241.05c3.39-15.38,9.07-27.57,17.36-37.25a43,43,0,0,1,9.59-8.12,14.67,14.67,0,0,1,7.91-2.47,13.67,13.67,0,0,1,7.64,2.43,44.45,44.45,0,0,1,11.08,9.85c12,15.93,17.92,33.71,17.55,52.83a44.42,44.42,0,0,1-1.24,8.33c-.32,1.51-.65,3.07-.89,4.63-.14.88-.19,1.2-1.79,1.16-8.09-.06-16.32-.05-24.27,0H159.61c-7.83,0-15.93,0-23.9.07-1.37,0-1.63-.17-2-1.53-2.73-9.17-2.89-18.94-.47-29.87Z"/></g></svg>