<svg id="圖層_1" data-name="圖層 1" xmlns="http://www.w3.org/2000/svg" viewBox="0 0 98.17 106.76"><defs><style>.cls-1{fill:#fff;}</style></defs><path class="cls-1" d="M26.68,96.81a1.79,1.79,0,0,0-.84-.21,1.18,1.18,0,0,0-.66.21,1.31,1.31,0,0,0-.43.48,1.29,1.29,0,0,0,.42,1.58c.13.12.25.23.35.34a1.34,1.34,0,0,1,.24.34.41.41,0,0,1,0,.37.4.4,0,0,1-.37.25,1.18,1.18,0,0,1-.5-.12,1.31,1.31,0,0,1-.43-.36,1.9,1.9,0,0,1-.32-.58l-.64.33a1.8,1.8,0,0,0,.43.74,2.35,2.35,0,0,0,.71.54,2,2,0,0,0,.92.24,1.37,1.37,0,0,0,.72-.23,1.45,1.45,0,0,0,.47-.54,1,1,0,0,0,.06-.82,2.31,2.31,0,0,0-.5-.71c-.12-.11-.23-.23-.34-.34a.86.86,0,0,1-.24-.33.44.44,0,0,1,0-.37.37.37,0,0,1,.33-.21.81.81,0,0,1,.47.09,1.59,1.59,0,0,1,.36.3,1.18,1.18,0,0,1,.26.43l.62-.37a1.92,1.92,0,0,0-.43-.61A2.71,2.71,0,0,0,26.68,96.81Z"/><rect class="cls-1" x="27.71" y="100.14" width="4.18" height="1.01" transform="translate(-74.73 91.16) rotate(-68.32)"/><path class="cls-1" d="M31.37,96.81a.66.66,0,0,0-.44,0,.47.47,0,0,0-.31.29.46.46,0,0,0,0,.44.6.6,0,0,0,.32.29.58.58,0,0,0,.43,0,.49.49,0,0,0,.31-.3.5.5,0,0,0,0-.43A.57.57,0,0,0,31.37,96.81Z"/><path class="cls-1" d="M36.11,100.41a2,2,0,0,0-1.07,0,1.54,1.54,0,0,0-.81.49l.16-.79-.87-.25-1.18,4,1,.28.54-1.83a1.78,1.78,0,0,1,.66-1,1.1,1.1,0,0,1,1-.17.77.77,0,0,1,.48.36.76.76,0,0,1,0,.56l-.77,2.63,1,.28.87-3a1.23,1.23,0,0,0-.13-1A1.34,1.34,0,0,0,36.11,100.41Z"/><path class="cls-1" d="M41.77,101.73a2.31,2.31,0,0,0-1.11.07,2.13,2.13,0,0,0-.93.61,2.2,2.2,0,0,0-.51,1.1,2.24,2.24,0,0,0,.09,1.19,2,2,0,0,0,.67.89,2.55,2.55,0,0,0,1.14.47,2.38,2.38,0,0,0,.8,0,2.09,2.09,0,0,0,.73-.24l-.39-.71a1.46,1.46,0,0,1-.43.15,1.62,1.62,0,0,1-.49,0,1.52,1.52,0,0,1-.67-.3,1.32,1.32,0,0,1-.4-.57,1.31,1.31,0,0,1-.05-.71,1.41,1.41,0,0,1,.28-.66,1.32,1.32,0,0,1,.54-.4,1.18,1.18,0,0,1,.67-.07,1.61,1.61,0,0,1,.57.21,2.07,2.07,0,0,1,.38.32l.6-.55a2,2,0,0,0-.61-.51A2.84,2.84,0,0,0,41.77,101.73Z"/><path class="cls-1" d="M48.86,102.89a2,2,0,0,0-1.36-.58,2.27,2.27,0,0,0-1.19.23,2.25,2.25,0,0,0-.9.74,2.15,2.15,0,0,0-.39,1.11,2.48,2.48,0,0,0,.21,1.16,1.9,1.9,0,0,0,.75.84,2.54,2.54,0,0,0,1.22.36,2.51,2.51,0,0,0,.76-.07,3.18,3.18,0,0,0,.73-.29l-.41-.78a1.77,1.77,0,0,1-.48.23,1.35,1.35,0,0,1-.53,0,1.27,1.27,0,0,1-.64-.2,1.3,1.3,0,0,1-.45-.48l3.34-.91A2.39,2.39,0,0,0,48.86,102.89ZM46,104.6a1.48,1.48,0,0,1,0-.21,1.37,1.37,0,0,1,.41-1,1.18,1.18,0,0,1,.94-.32,1,1,0,0,1,.67.26,1.48,1.48,0,0,1,.35.53Z"/><path class="cls-1" d="M56.44,105.51c.3-.41.58-.82.86-1.24A6.16,6.16,0,0,0,58,103a2.74,2.74,0,0,0,.2-1.25,2.23,2.23,0,0,0-.36-1,2.11,2.11,0,0,0-.81-.7,2,2,0,0,0-1.13-.19,2.58,2.58,0,0,0-1.26.41,2,2,0,0,0-.72.85,2.07,2.07,0,0,0-.18,1,2.29,2.29,0,0,0,.14.56,2.68,2.68,0,0,0,.32.57,1.3,1.3,0,0,0,.45.4l.59-.65a1.39,1.39,0,0,1-.48-1,1,1,0,0,1,.07-.48,1.09,1.09,0,0,1,1-.68,1.34,1.34,0,0,1,.6.07,1,1,0,0,1,.48.34,1.3,1.3,0,0,1,.23.66,2.2,2.2,0,0,1-.18,1,5.29,5.29,0,0,1-.63,1.15,15.31,15.31,0,0,1-.93,1.23l-1.09,1.33,4.51-.42-.09-1Z"/><path class="cls-1" d="M65.08,99.85a2.54,2.54,0,0,0-2.69-1,3,3,0,0,0-1.35.66,2.48,2.48,0,0,0-.71,1.29,4.49,4.49,0,0,0,.07,1.91,4.19,4.19,0,0,0,.74,1.68,2.78,2.78,0,0,0,1.2.92,2.59,2.59,0,0,0,1.49.07,2.55,2.55,0,0,0,2-2,4.27,4.27,0,0,0,0-1.87A4.18,4.18,0,0,0,65.08,99.85ZM64.83,103a1.85,1.85,0,0,1-.37.93,1.51,1.51,0,0,1-.86.5,1.38,1.38,0,0,1-1-.1,1.7,1.7,0,0,1-.72-.69,3.27,3.27,0,0,1-.44-1.14,3.45,3.45,0,0,1-.08-1.22,1.69,1.69,0,0,1,.36-.92,1.43,1.43,0,0,1,.84-.49,1.39,1.39,0,0,1,1.38.35,3,3,0,0,1,.77,1.54A3.86,3.86,0,0,1,64.83,103Z"/><polygon class="cls-1" points="66.69 97.81 67.02 98.77 67.69 98.54 69.47 103.83 70.46 103.49 68.36 97.25 66.69 97.81"/><path class="cls-1" d="M74.92,95.77a2.17,2.17,0,0,0-1.13-.4,2.44,2.44,0,0,0-1.23.22,2.36,2.36,0,0,0-.92.73,2.26,2.26,0,0,0-.46,1.09,2.31,2.31,0,0,0,.21,1.26,2,2,0,0,0,.71.87,2.12,2.12,0,0,0,1,.38,1.91,1.91,0,0,0,1-.14,2.54,2.54,0,0,0,.57-.36A1.52,1.52,0,0,0,75,99a4.65,4.65,0,0,1-.48,1.26,8.35,8.35,0,0,1-1,1.42l1,.42q.38-.58.72-1.23a6.58,6.58,0,0,0,.57-1.31A4.34,4.34,0,0,0,76,98.16a3.52,3.52,0,0,0-.32-1.42A2.3,2.3,0,0,0,74.92,95.77Zm-.17,2.36a1.31,1.31,0,0,1-.7.67,1.26,1.26,0,0,1-1,.06,1.21,1.21,0,0,1-.72-.7,1.25,1.25,0,0,1-.06-1,1.29,1.29,0,0,1,.68-.7,1.24,1.24,0,0,1,.65-.1,1.36,1.36,0,0,1,.61.22,1.19,1.19,0,0,1,.42.49l.08.18A1.07,1.07,0,0,1,74.75,98.13Z"/><path class="cls-1" d="M97.68,30.42,51.47,2.68a1,1,0,0,0-1,0L25.64,17.57A10.05,10.05,0,1,0,9.13,12a7,7,0,0,0-1.77-.23,7.36,7.36,0,0,0-.48,14.7v2.18a1.29,1.29,0,0,0,0,.19L4.24,30.42a1,1,0,0,0-.49.85V77.6a1,1,0,0,0,2,0V31.84l14.12-8.48a.9.9,0,0,0,.39-.23L51,4.7,96.17,31.84V77.6a1,1,0,0,0,2,0V31.27A1,1,0,0,0,97.68,30.42ZM20.55,20a10.34,10.34,0,0,0,1.93-.51l-1.93,1.16ZM19,2a8.05,8.05,0,0,1,1.56,16V13.21a1,1,0,0,0-2,0v4.87A8,8,0,0,1,14,16.37,8.21,8.21,0,0,1,12.67,15l-.08-.1c-.16-.21-.31-.44-.45-.66,0-.06-.07-.11-.1-.16q-.21-.37-.39-.75A8,8,0,0,1,19,2ZM2,19.1a5.37,5.37,0,0,1,5.36-5.36,5.44,5.44,0,0,1,2.58.66,1.09,1.09,0,0,0,.08.15c.1.21.22.42.34.63l.16.26c.14.22.29.43.44.63l.16.21c.18.22.36.44.56.65l.11.12a10.27,10.27,0,0,0,.77.71,5.53,5.53,0,0,1,.17,1.34,5.35,5.35,0,0,1-3.85,5.12V21.66a1,1,0,0,0-2,0v2.76A5.36,5.36,0,0,1,2,19.1Zm6.88,7.2a7.35,7.35,0,0,0,5.84-7.16,10.09,10.09,0,0,0,3.83.94v1.74L8.88,27.63Z"/><circle class="cls-1" cx="36.25" cy="41.01" r="0.8"/><path class="cls-1" d="M68.66,45.06c-4.48-1.05-8.3-.54-11.35,1.51-3.78,2.54-5.28,6.75-5.8,8.72-11.28-3.36-8.8-15.48-8.69-16a1,1,0,0,0-.76-1.19,1,1,0,0,0-1.19.76C40.84,39,37.7,54.11,52,57.5l1,.25.18-1.06c0-.06,1-5.63,5.19-8.47C61,46.5,64.29,46.09,68.21,47c6.15,1.44,8.22,6.79,8.13,10.93-.11,4.74-2.88,10-8.81,11.14a1,1,0,0,0,.18,2,.62.62,0,0,0,.19,0c7-1.3,10.31-7.68,10.44-13.06C78.48,51.54,74.69,46.47,68.66,45.06Z"/><path class="cls-1" d="M67.83,58.6a1,1,0,0,0-1.09-.91,1,1,0,0,0-.9,1.09c0,.56,1,13.7-15,15.41l-.35,0-4,3.93V75.27a1.06,1.06,0,0,0-1-1,16.52,16.52,0,0,1-2.66-1c-11.59-5.13-9.14-18.27-9-18.83a1,1,0,0,0-.5-1.07C30.68,52,31.06,50.16,31.1,50a.67.67,0,0,0,0-.24c.07-1.43,1.8-2.78,2.46-3.18a1,1,0,0,0-.83-1.8c-1.08.36-2-.9-2.62-2a5,5,0,0,0,4.22-3.31c1-2.85,7.32-2.67,9.64-2.35a1,1,0,0,0,1.13-.86,1,1,0,0,0-.86-1.13h-.06c1.44-3,1.75-5.1.94-6.46a2.53,2.53,0,0,0-1.84-1.22,2.94,2.94,0,0,0-2.48.43,3.46,3.46,0,0,0-1,1.21,2.41,2.41,0,0,0-1.26-.19,2.77,2.77,0,0,0-2.07,1,3.22,3.22,0,0,0-.62,1.36,4.15,4.15,0,0,0-1.59.15l-.18.07a2.89,2.89,0,0,0-1.52,1.92,5.61,5.61,0,0,0,.88,3.77,4.44,4.44,0,0,0-1,1.58,3.31,3.31,0,0,1-3.74,2,1,1,0,0,0-.93.33,1,1,0,0,0-.19,1,8.16,8.16,0,0,0,3.09,4.26,5.33,5.33,0,0,0-1.57,3.18c-.13.63-.47,3.24,2.64,5.25-.39,3.08-1.15,15.28,10.3,20.34a25,25,0,0,0,2.44.93v6L42,83.81a1,1,0,0,0-.27,1.39,1,1,0,0,0,.83.44,1,1,0,0,0,.56-.17l2.36-1.6,2,1.55a1,1,0,0,0,.61.22,1,1,0,0,0,.79-.39,1,1,0,0,0-.17-1.4l-2.18-1.7V81l4.9-4.83C69.06,74.06,67.84,58.75,67.83,58.6ZM34.56,33.9a.83.83,0,0,1,.42-.55c.36-.09.76-.07.87.08h0a.29.29,0,0,0,0,.09h0a1,1,0,0,0,1.94-.46,2.87,2.87,0,0,1,.27-1.89c.09-.13.26-.27.74-.3.25,0,.4.14.47.55a1,1,0,0,0,1,.83,1,1,0,0,0,.95-.94A2.89,2.89,0,0,1,42,29.5a1,1,0,0,1,.88-.08l.17,0a.49.49,0,0,1,.39.28c.14.27.5,1.42-1.12,4.72a1,1,0,0,0-.08.52,15.89,15.89,0,0,0-7.12,1.1A3.56,3.56,0,0,1,34.56,33.9Z"/><path class="cls-1" d="M25.08,84.14a.51.51,0,0,0,.5-.5V78.31a.5.5,0,0,0-.5-.5.5.5,0,0,0-.5.5v5.33A.5.5,0,0,0,25.08,84.14Z"/><path class="cls-1" d="M29,83.64V78.31a.5.5,0,0,0-.5-.5.5.5,0,0,0-.5.5v5.33a.5.5,0,0,0,.5.5A.51.51,0,0,0,29,83.64Z"/><path class="cls-1" d="M21.64,77.81a.5.5,0,0,0-.5.5v5.33a.5.5,0,0,0,.5.5.51.51,0,0,0,.5-.5V78.31A.5.5,0,0,0,21.64,77.81Z"/><path class="cls-1" d="M18.2,77.81a.5.5,0,0,0-.5.5v5.33a.5.5,0,0,0,.5.5.51.51,0,0,0,.5-.5V78.31A.5.5,0,0,0,18.2,77.81Z"/><path class="cls-1" d="M14.76,77.81a.5.5,0,0,0-.5.5v5.33a.5.5,0,0,0,.5.5.51.51,0,0,0,.5-.5V78.31A.5.5,0,0,0,14.76,77.81Z"/><path class="cls-1" d="M85.15,77.81a.5.5,0,0,0-.5.5v5.33a.51.51,0,0,0,.5.5.5.5,0,0,0,.5-.5V78.31A.5.5,0,0,0,85.15,77.81Z"/><path class="cls-1" d="M88.59,77.81a.5.5,0,0,0-.5.5v5.33a.51.51,0,0,0,.5.5.5.5,0,0,0,.5-.5V78.31A.5.5,0,0,0,88.59,77.81Z"/><path class="cls-1" d="M81.71,77.81a.5.5,0,0,0-.5.5v5.33a.51.51,0,0,0,.5.5.5.5,0,0,0,.5-.5V78.31A.5.5,0,0,0,81.71,77.81Z"/><path class="cls-1" d="M78.27,77.81a.5.5,0,0,0-.5.5v5.33a.51.51,0,0,0,.5.5.5.5,0,0,0,.5-.5V78.31A.5.5,0,0,0,78.27,77.81Z"/><path class="cls-1" d="M74.33,78.31v5.33a.51.51,0,0,0,.5.5.5.5,0,0,0,.5-.5V78.31a.5.5,0,0,0-.5-.5A.5.5,0,0,0,74.33,78.31Z"/></svg>