<?xml version="1.0" encoding="utf-8"?>
<!-- Generator: Adobe Illustrator 25.0.0, SVG Export Plug-In . SVG Version: 6.00 Build 0)  -->
<svg version="1.1" id="圖層_1" xmlns="http://www.w3.org/2000/svg" xmlns:xlink="http://www.w3.org/1999/xlink" x="0px" y="0px"
	 viewBox="0 0 512 450.84" style="enable-background:new 0 0 512 450.84;" xml:space="preserve">
<style type="text/css">
	.st0{fill:#FFFFFF;}
</style>
<g>
	<path class="st0" d="M512,80.48c-7.54,26.07-15.14,52.12-22.62,78.21c-12.2,42.58-24.31,85.19-36.47,127.78
		c-3.1,10.85-7.79,14.36-19.1,14.36c-87.65,0.01-175.3,0-262.95,0.01c-3,0-5.98-0.03-8.94,0.71c-6.67,1.66-11.39,7.44-11.34,14.06
		c0.06,6.62,4.8,12.23,11.55,13.86c2.97,0.72,5.95,0.66,8.94,0.66c86.98,0,173.96,0,260.95,0.01c2.17,0,4.34-0.08,6.5,0.09
		c7.99,0.63,13.91,7.36,13.79,15.58c-0.11,7.92-6.09,14.56-13.93,14.91c-6.65,0.3-13.32,0.06-20.17,0.37
		c11.88,3.64,21.35,10.41,27.7,21.07c6.44,10.81,8.31,22.49,4.98,34.64c-6.09,22.22-24.68,35.21-47.97,33.92
		c-19.67-1.09-37.61-17.58-40.81-37.92c-3.01-19.14,5.86-42.77,34.11-51.78c-63.61,0-126.67,0-191.15,0
		c13.65,4.07,23.5,11.21,29.74,22.8c6.26,11.63,7.16,23.72,3.17,36.25c-6.34,19.93-26.44,32.62-48.46,30.56
		c-19.47-1.82-37.07-18.98-39.58-38.72c-2.64-20.81,8.27-42.92,33.72-51.08c-6.2,0-12.41,0.06-18.61-0.01
		c-21.68-0.25-38.73-13.71-44.31-34.95c-4.97-18.89,4.03-39.71,21.96-49.79c3.59-2.02,3.37-4.25,2.68-7.35
		c-8.99-40.29-17.95-80.6-26.91-120.9c-8.28-37.21-16.59-74.42-24.75-111.66c-0.86-3.91-2.33-5.48-6.58-5.44
		c-22.83,0.21-45.66-0.14-68.48,0.22C10.03,31.1,3.8,28.3,0,20.48c0-3.33,0-6.67,0-10C3.8,2.65,10.03-0.1,18.68,0
		c27.33,0.34,54.66,0.12,82,0.13c13.11,0,17.64,3.56,20.49,16.26c2.78,12.35,5.75,24.66,8.07,37.09c1,5.36,3.22,6.78,8.58,6.77
		c118.5-0.17,236.99-0.07,355.49-0.24c8.65-0.01,14.88,2.65,18.69,10.47C512,73.81,512,77.15,512,80.48z M307.62,90.83
		c-54.48,0-108.96,0-163.44,0c-6.31,0-6.42,0.16-5.1,6.11c12.43,56.06,24.9,112.12,37.24,168.2c0.84,3.81,2.47,5.06,6.38,5.06
		c79.14-0.1,158.28-0.1,237.41,0c3.87,0,5.55-1.33,6.6-4.99c15.91-56.06,31.96-112.08,47.95-168.11c1.78-6.25,1.74-6.27-4.59-6.27
		C415.91,90.83,361.77,90.83,307.62,90.83z M209.41,405.52c0.03-7.68-6.53-14.32-14.25-14.45c-7.65-0.12-14.35,6.38-14.57,14.13
		c-0.22,7.81,6.65,14.77,14.5,14.69C202.8,419.82,209.39,413.21,209.41,405.52z M407.16,419.89c7.73-0.13,14.28-6.77,14.25-14.45
		c-0.03-7.7-6.62-14.3-14.33-14.37c-7.85-0.07-14.72,6.9-14.49,14.7C392.81,413.52,399.52,420.01,407.16,419.89z"/>
</g>
</svg>
