<?xml version="1.0" encoding="utf-8"?>
<!-- Generator: Adobe Illustrator 25.0.0, SVG Export Plug-In . SVG Version: 6.00 Build 0)  -->
<svg version="1.1" id="圖層_1" xmlns="http://www.w3.org/2000/svg" xmlns:xlink="http://www.w3.org/1999/xlink" x="0px" y="0px"
	 viewBox="0 0 384 384" style="enable-background:new 0 0 384 384;" xml:space="preserve">
<style type="text/css">
	.st0{fill:#FFFFFF;}
</style>
<path class="st0" d="M192,0C85.96,0,0,85.96,0,192s85.96,192,192,192s192-85.96,192-192S298.04,0,192,0z M300.73,269.43
	c0,6.66-2.08,12.65-5.9,18.04c-5.26,7.43-12.59,11.57-21.42,13.27c-18.67,0-37.35,0-56.02,0c-0.05-0.63-0.16-1.26-0.16-1.9
	c-0.01-24.19,0.01-48.38-0.04-72.57c0-1.92,0.58-2.57,2.53-2.55c8.98,0.08,17.97-0.04,26.95,0.09c2.22,0.03,2.94-0.82,3.26-2.83
	c1.74-10.81,3.56-21.61,5.37-32.41c0.43-2.54,0.34-2.68-2.19-2.68c-10.96,0-21.93,0-32.89,0c-2.98,0-2.99-0.01-2.99-2.87
	c-0.01-6.65-0.01-13.3,0-19.95c0-3.4,0.01-3.4,3.31-3.4c10.96,0,21.93-0.02,32.89,0.02c1.65,0.01,2.46-0.41,2.45-2.25
	c-0.06-11.18-0.05-22.35-0.01-33.53c0-1.55-0.59-2.15-2.13-2.12c-13.15,0.21-26.31-0.49-39.45,0.37c-10.9,0.72-19.7,5.7-26.55,14.11
	c-6.24,7.65-8.45,16.63-8.38,26.32c0.05,6.93-0.05,13.86,0.04,20.8c0.03,1.95-0.62,2.56-2.55,2.54c-6.72-0.09-13.44-0.04-20.16-0.03
	c-2.71,0-2.79,0.07-2.79,2.71c-0.01,10.82-0.01,21.64,0,32.47c0,2.62,0.08,2.69,2.8,2.69c6.51,0.01,13.02,0,19.52,0
	c3.13,0,3.13,0.01,3.13,3.15c0,23.77,0,47.53-0.01,71.3c0,0.84-0.1,1.69-0.16,2.53c-22.92,0-45.84,0-68.76,0
	c-4.96-1-9.63-2.68-13.78-5.64c-7.46-5.32-11.68-12.64-13.38-21.52c0-54.33,0-108.65,0-162.98c0.12-0.55,0.25-1.1,0.37-1.65
	c3.48-15.51,16.11-25.67,32-25.67c51.19-0.01,102.38-0.03,153.57,0.02c17.24,0.02,31.49,14.27,31.51,31.51
	C300.76,166.34,300.73,217.89,300.73,269.43z"/>
</svg>
