<?xml version="1.0" encoding="utf-8"?>
<!-- Generator: Adobe Illustrator 25.0.0, SVG Export Plug-In . SVG Version: 6.00 Build 0)  -->
<svg version="1.1" id="圖層_1" xmlns="http://www.w3.org/2000/svg" xmlns:xlink="http://www.w3.org/1999/xlink" x="0px" y="0px"
	 viewBox="0 0 242.14 89.96" style="enable-background:new 0 0 242.14 89.96;" xml:space="preserve">
<style type="text/css">
	.st0{fill:none;stroke:#231815;stroke-width:0.8264;stroke-miterlimit:10;}
	.st1{fill:none;stroke:#231815;stroke-miterlimit:10;}
	.st2{fill:#231815;}
	.st3{fill:none;stroke:#231815;stroke-width:2;stroke-linecap:round;stroke-linejoin:round;stroke-miterlimit:10;}
	.st4{fill:none;stroke:#231815;stroke-width:2;stroke-linecap:round;stroke-miterlimit:10;}
	.st5{fill:none;stroke:#000000;stroke-width:1.9531;stroke-linecap:round;stroke-linejoin:round;stroke-miterlimit:10;}
	.st6{fill:url(#SVGID_1_);}
	.st7{fill:none;stroke:#B4B4B5;stroke-miterlimit:10;}
	.st8{fill:#80BC63;}
	.st9{fill:#FFA015;}
	.st10{fill:#C8BCA6;}
	.st11{fill:#3F6E29;}
	.st12{fill:url(#SVGID_2_);}
	.st13{fill:url(#SVGID_3_);}
	.st14{fill:url(#SVGID_4_);}
	.st15{fill:url(#SVGID_5_);}
	.st16{fill:url(#SVGID_6_);}
	.st17{fill:url(#SVGID_7_);}
	.st18{fill:url(#SVGID_8_);}
	.st19{fill:url(#SVGID_9_);}
	.st20{fill:url(#SVGID_10_);}
	.st21{fill:url(#SVGID_11_);}
	.st22{fill:url(#SVGID_12_);}
	.st23{fill:url(#SVGID_13_);}
	.st24{fill:url(#SVGID_14_);}
	.st25{fill:url(#SVGID_15_);}
	.st26{fill:url(#SVGID_16_);}
	.st27{fill:url(#SVGID_17_);}
	.st28{fill:url(#SVGID_18_);}
	.st29{fill:url(#SVGID_19_);}
	.st30{fill:url(#SVGID_20_);}
	.st31{fill:url(#SVGID_21_);}
	.st32{fill:url(#SVGID_22_);}
	.st33{fill:url(#SVGID_23_);}
	.st34{fill:url(#SVGID_24_);}
	.st35{fill:url(#SVGID_25_);}
	.st36{fill:url(#SVGID_26_);}
	.st37{fill:url(#SVGID_27_);}
	.st38{fill:url(#SVGID_28_);}
	.st39{fill:url(#SVGID_29_);}
	.st40{fill:#A5BE7D;}
	.st41{fill:#203455;}
	.st42{fill:url(#SVGID_30_);}
	.st43{fill:none;stroke:#FFFFFF;stroke-width:2;stroke-linecap:round;stroke-linejoin:round;stroke-miterlimit:10;}
	.st44{fill:#DFC7C2;}
	.st45{fill:none;stroke:#FFFFFF;stroke-linecap:round;stroke-linejoin:round;stroke-miterlimit:10;}
</style>
<g>
	<path class="st11" d="M90.18,45.26c-0.14,0.55-0.28,1.12-0.42,1.69c0.04,0,0.07,0,0.11,0c-0.04,0.49-0.1,0.98-0.11,1.47
		c-0.01,0.2,0.1,0.4,0.12,0.6c0.04,0.31,0.04,0.62,0.09,0.92c0.03,0.16,0.13,0.31,0.19,0.42c-0.15,0.32-0.37,0.68-0.5,1.07
		c-0.13,0.39-0.46,0.85,0.19,1.14c0.07,0.03,0.11,0.24,0.08,0.35c-0.32,1.23-0.68,2.46-0.97,3.69c-0.09,0.39-0.01,0.83-0.07,1.23
		c-0.05,0.3-0.22,0.59-0.29,0.89c-0.02,0.07,0.16,0.18,0.19,0.28c0.05,0.2,0.13,0.43,0.08,0.61c-0.2,0.65-0.41,1.3-0.7,1.91
		c-0.41,0.85-0.9,1.67-1.39,2.56c0.14,0.04,0.31,0.08,0.51,0.14c-0.05,0.35,0.08,0.68-0.54,0.84c-0.3,0.08-0.5,0.9-0.57,1.41
		c-0.06,0.46-0.08,0.81-0.56,1.09c-0.29,0.17-0.4,0.62-0.61,0.94c-0.57,0.88-1.13,1.78-1.74,2.64c-0.23,0.32-0.58,0.54-0.89,0.8
		c-0.48,0.4-1,0.76-1.44,1.2c-0.37,0.39-0.61,0.9-0.98,1.3c-0.35,0.38-0.78,0.69-1.18,1.02c-0.17,0.14-0.46,0.21-0.54,0.38
		c-0.8,1.7-2.52,2.54-3.62,3.96c-0.23,0.3-0.75,0.45-1.17,0.52c-0.55,0.09-0.8,0.33-0.95,0.85c-0.1,0.34-0.1,0.97-0.8,0.72
		c-0.52,0.98-1.73,0.29-2.41,1.02c-0.72,0.76-1.62,1.28-2.75,1.34c-0.23,0.01-0.38,0.55-0.65,0.71c-0.87,0.53-1.76,1.01-2.66,1.47
		c-0.3,0.15-0.68,0.29-0.99,0.23c-0.93-0.17-1.66,0.78-2.66,0.35c-0.28-0.12-0.77,0.33-1.19,0.45c-0.69,0.2-1.4,0.33-2.1,0.5
		c-0.02-0.07-0.03-0.14-0.05-0.21c-0.12,0.17-0.23,0.34-0.31,0.45c-1.21-0.31-2.3-0.35-3.46,0.19c-0.54,0.26-1.2,0.79-1.95,0.33
		c-0.12-0.08-0.35,0.03-0.53,0.01c-0.59-0.05-1.12,0.33-1.8,0c-0.42-0.21-1.23,0.06-1.71,0.35c-0.55,0.34-1.11,0.4-1.7,0.47
		c-0.31,0.04-0.62,0.09-0.92,0.24c-0.37-0.16-0.75-0.45-1.05,0.16c-0.56-0.5-3.71-0.99-4.02-0.82c-0.56-0.08-0.96-0.03-1.24-0.19
		c-0.63-0.35-1.34,0.16-1.94-0.27c-0.12-0.08-0.37-0.06-0.53-0.01c-1,0.32-1.92,0-2.86-0.27c-0.39-0.11-0.8-0.14-1.34-0.23
		c-0.29-0.37-0.77-0.51-1.46-0.44c-0.49,0.05-1.03-0.24-1.52-0.43c-0.29-0.11-0.55-0.34-0.65-0.41c-0.32-0.43-0.55-0.73-0.77-1.03
		c-0.32-0.43-0.73-0.81-0.94-1.29c-0.52-1.21-1.73-1.5-2.68-2.13c-0.85-0.57-1.75-1.07-2.62-1.6c-0.63-0.38-1.27-0.76-1.9-1.15
		c-0.22-0.13-0.51-0.27-0.59-0.47c-0.19-0.48-0.57-0.68-0.95-0.98c-1.08-0.84-2.05-1.79-2.81-3c-0.54-0.86-1.32-1.58-1.75-2.55
		c-0.34-0.76-0.78-1.47-1.17-2.21c-0.34-0.64-0.76-1.25-0.97-1.93c-0.25-0.8-1.26-3.4-1.6-4.12c-0.44-0.92-0.76-1.91-1.07-2.88
		c-0.4-1.25-0.75-2.52-1.08-3.79c-0.36-1.38-0.74-2.76-1-4.16c-0.28-1.49-0.46-3-0.61-4.51c-0.15-1.44-0.07-2.92-0.34-4.33
		c-0.34-1.79,0.25-3.49,0.28-5.24c0.02-1.44,0.53-2.87,0.82-4.3c0.03-0.17,0.1-0.34,0.09-0.51c-0.08-1.1,0.43-2.05,0.77-3.04
		c0.12-0.35,0.1-0.74,0.14-1.12c0.01-0.12-0.04-0.28,0.01-0.37c0.72-1.14,0.62-2.62,1.57-3.68c0.16-0.18,0.02-0.6,0.14-0.85
		c0.15-0.35,0.48-0.63,0.62-0.99c0.3-0.77,0.5-1.58,0.79-2.36c0.14-0.36,0.4-0.66,0.62-0.99c0.48-0.72,0.97-1.43,1.46-2.14
		c0.22-0.32,0.9-0.26,0.74-0.9c0.95-0.6,0.94-2.02,2.28-2.41c0.74-0.22,1.4-1.08,1.85-1.8c0.4-0.65,0.88-1.02,1.51-1.41
		c0.91-0.56,1.71-1.31,2.52-2.03c0.73-0.64,1.3-1.6,2.14-1.96C24,8.16,24.54,6.71,26.03,6.6c0.45-0.03,0.82-0.72,1.29-1.03
		c0.48-0.31,1.03-0.51,1.54-0.76c0.05-0.02,0.11-0.03,0.14-0.06c1.14-1.25,2.85-1.29,4.24-2c0.86-0.44,1.78-0.77,2.7-1.09
		c1.45-0.5,2.91-0.94,4.37-1.4c0.14-0.05,0.3-0.05,0.46-0.06c0.84-0.07,1.69-0.16,2.53-0.18c1.1-0.02,2.2-0.03,3.29,0.05
		c1.48,0.1,2.95,0.35,4.44,0.43c1.3,0.07,2.47,0.43,3.54,1.13c0.09,0.06,0.2,0.13,0.29,0.12c1.87-0.21,3.13,1.23,4.73,1.78
		c1.05,0.36,1.97,1.1,2.97,1.63c0.69,0.37,1.41,0.68,2.12,1.02c1.79,0.87,3.66,1.61,5.33,2.66c0.74,0.47,1.67,0.46,2.24,1.06
		c0.86,0.92,2.11,1.4,2.73,2.63c0.27,0.54,0.95,0.86,1.44,1.29c0.4,0.35,0.81,0.68,1.2,1.05c0.33,0.32,0.75,0.62,0.93,1.01
		c0.51,1.15,1.88,1.46,2.34,2.72c0.53,1.46,1.69,2.56,2.9,3.56c0.26,0.22,0.44,0.56,0.59,0.88c0.36,0.79,0.7,1.6,1.02,2.41
		c0.15,0.38,0.51,0.56,0.71,0.96c0.61,1.22,0.69,2.51,0.96,3.78c0.12,0.55,0.43,1.05,0.65,1.58c0.05,0.12,0.1,0.25,0.13,0.38
		c0.31,1.21,0.52,2.46,0.94,3.63c0.55,1.54,0.52,3.07,0.46,4.66c-0.03,0.75,0.34,1.5,0.44,2.27c0.05,0.4-0.02,0.84-0.14,1.22
		C89.36,44.53,89.69,45.2,90.18,45.26z M51.53,32.11c-0.73-1.01-1.53-1.78-1.9-2.72c-0.53-1.35-1.81-1.99-2.58-3.11
		c-0.57-0.83-1.71-1.31-2.66-1.83c-0.65-0.35-1.07-0.77-1.31-1.46c-0.28-0.8-1.02-0.95-1.7-0.44c-1.23,0.92-1.57,2.12-0.44,3.82
		c0.53,0.8,1.07,1.61,1.7,2.33c0.83,0.95,1.72,1.84,2.64,2.69c0.56,0.52,1.24,0.91,1.86,1.35c0.97,0.7,1.93,1.42,2.93,2.07
		c0.62,0.4,1.34,1.71,1.14,2.44c-0.3,1.12-0.69,2.22-1.01,3.34c-0.16,0.54-0.24,1.1-0.4,1.83c-0.27-0.29-0.43-0.46-0.6-0.64
		c-0.43-0.47-0.77-1.06-1.29-1.38c-1.67-1.01-2.84-2.55-4.2-3.88c-0.51-0.5-1.12-1.15-1.18-1.79c-0.13-1.26-0.52-2.24-1.44-3.14
		c-0.96-0.94-1.89-1.65-3.33-1.62c-1.38,0.03-2.38,1.02-2.19,2.43c0.2,1.44,0.82,2.71,1.82,3.73c0.76,0.78,1.22,1.88,2.43,2.22
		c0.56,0.16,0.57,1.08,0.94,1.3c1.34,0.82,2.21,2.12,3.41,3.06c0.49,0.39,1.06,0.67,1.58,1.04c0.44,0.31,0.87,0.62,1.25,0.99
		c0.31,0.3,0.47,0.75,0.79,1.02c0.56,0.46,0.78,1.09,0.5,1.77c-0.6,1.47-1.14,2.96-1.8,4.4c-0.44,0.96-1.04,1.86-1.6,2.85
		c-0.37-0.66-0.8-1.24-1.5-1.6c-0.2-0.1-0.3-0.45-0.41-0.7c-0.1-0.24-0.1-0.53-0.23-0.74c-0.72-1.11-1.45-2.2-2.2-3.29
		c-0.29-0.42-0.57-0.92-0.98-1.17c-1.2-0.74-1.55-1.85-1.25-2.96c0.21-0.79,0.12-1.51-0.36-2.17c-0.38-0.52-0.88-0.96-1.18-1.52
		c-0.85-1.59-2.31-2.46-3.82-3.2c-0.59-0.28-1.45-0.55-2.09,0.2c-0.57,0.66-0.77,1.69-0.5,2.36c0.81,1.99,2.21,3.61,3.39,5.35
		c0.32,0.47,0.85,0.8,1.21,1.25c0.72,0.93,1.38,1.91,2.09,2.85c0.16,0.21,0.44,0.34,0.6,0.55c0.84,1.17,1.62,2.38,2.5,3.52
		c0.66,0.85,1.43,1.61,2.16,2.4c0.33,0.36,0.74,0.65,1.06,1.01c0.22,0.25,0.55,0.61,0.51,0.87c-0.21,1.25-0.49,2.5-0.84,3.72
		c-0.11,0.38-0.46,0.85-0.8,0.96c-0.25,0.08-0.68-0.34-1-0.57c-0.22-0.16-0.37-0.4-0.57-0.6c-0.42-0.43-0.83-0.88-1.29-1.27
		c-1-0.83-1.36-2.34-2.82-2.7c-0.09-0.02-0.14-0.15-0.22-0.22c-0.93-0.78-1.82-1.61-2.79-2.34c-0.97-0.72-1.83-1.54-2.53-2.52
		c-0.64-0.89-1.27-1.79-1.91-2.69c-0.7,0.35-0.81,0.67-0.42,1.31c0.17,0.29,0.34,0.59,0.54,0.86c0.55,0.73,1.12,1.45,1.68,2.18
		c0.47,0.6,0.91,1.23,1.42,1.8c0.47,0.53,1.04,0.97,1.53,1.49c0.44,0.47,0.83,1,1.24,1.5c0.37,0.45,0.8,0.87,1.11,1.37
		c0.69,1.08,1.41,2.15,1.95,3.3c0.62,1.31,1.61,2.11,2.9,2.64c-0.11,1.48-1.12,2.52-1.79,3.73c-0.21,0.37-0.51,0.76-0.87,0.97
		c-0.91,0.53-1.85,1.05-2.84,1.4c-1.88,0.65-3.81,1.06-5.82,1.05c-0.44,0-1.08,0.35-1.26,0.71c-0.22,0.46-0.05,1.1-0.05,1.61
		c-0.13,0.45-0.49,1.12-0.33,1.29c0.38,0.39,1.02,0.75,1.54,0.74c0.88-0.02,1.77-0.27,2.62-0.54c0.86-0.27,1.68-0.65,2.49-1.04
		c0.45-0.22,1.05-0.47,1.21-0.85c0.57-1.44,2.01-1.92,3.01-2.85c0.77-0.72,1.43-1.52,1.78-2.38c0.49-1.21,0.96-2.43,1.5-3.61
		c0.13-0.28,0.44-0.51,0.72-0.67c0.36-0.21,0.78-0.32,1.16-0.5c0.24-0.11,0.44-0.29,0.68-0.37c1.33-0.45,2.65-0.91,3.99-1.32
		c0.79-0.24,1.62-0.36,2.4-0.62c1.51-0.5,3.22-0.44,4.51-1.58c0.11-0.1,0.27-0.19,0.42-0.21c0.87-0.09,1.42-0.72,1.99-1.26
		c0.6-0.56,0.41-1.7-0.35-1.79c-1.33-0.16-2.71-0.18-4.05-0.03c-1,0.12-1.93,0.69-2.92,0.92c-1.85,0.43-3.33,1.57-4.96,2.41
		c-0.49,0.25-0.98,0.49-1.62,0.82c0.67-1.94,1.27-3.67,1.83-5.3c0.7,0,1.19,0.01,1.68,0c0.3-0.01,0.63-0.15,0.91-0.08
		c0.75,0.18,1.38-0.09,2.03-0.4c0.54-0.25,1.12-0.4,1.56-0.56c0.59-0.32,1.06-0.62,1.58-0.83c0.51-0.2,1.07-0.26,1.58-0.46
		c1.85-0.71,3.7-1.4,5.52-2.19c1.02-0.44,1.99-1,2.94-1.59c0.57-0.35,0.78-1.59,0.48-2.38c-0.28-0.74-0.86-1.19-1.64-1.12
		c-1.11,0.1-2.24,0.21-3.29,0.55c-1.33,0.43-2.62,1.02-3.85,1.68c-1.05,0.56-2.46,0.32-3.22,1.49c-0.02,0.04-0.16-0.01-0.23,0.01
		c-0.52,0.21-1.04,0.43-1.55,0.65c-0.67,0.3-1.34,0.61-2.11,0.97c-0.11-1.69,1.07-2.6,1.65-3.77c0.01-0.02,0.04-0.06,0.05-0.06
		c0.75,0.27,1.15-0.47,1.75-0.62c1.3-0.32,2.37-1,3.3-1.99c0.94-1,1.92-1.98,3-2.79c0.71-0.53,1.53-0.84,2.15-1.6
		c1.3-1.6,3.16-2.67,3.66-4.96c0.32-1.49,0.64-2.87,0.21-4.36c-0.25-0.88-0.55-1.09-1.21-0.47c-0.89,0.83-1.6,1.84-2.39,2.77
		c-0.01,0.02,0,0.06-0.01,0.07c-0.63,0.96-1.18,1.94-2.29,2.52c-0.99,0.52-1.87,1.28-2.75,2c-0.5,0.41-0.84,1.02-1.34,1.42
		c-0.63,0.51-1.36,0.91-2.14,1.42c0.12-0.52,0.11-1.11,0.38-1.51c0.8-1.16,0.99-2.49,1.33-3.78c0.24-0.93,0.17-1.98,1.31-2.52
		c0.39-0.18,0.8-0.78,0.83-1.2c0.06-1.02,0.85-1.56,1.26-2.34c0.39-0.74,0.75-1.5,1.09-2.26c0.2-0.45,0.28-0.96,0.53-1.37
		c1.2-1.97,1.03-4.12,0.87-6.27c-0.04-0.58-0.4-0.87-0.91-0.89c-0.45-0.02-0.98,0.03-1.14,0.61c-0.2,0.72-0.44,1.45-0.55,2.19
		c-0.19,1.25-0.53,2.4-1.68,3.26c-0.02-0.44,0-0.81-0.06-1.16c-0.26-1.58-0.75-3.16-0.77-4.75c-0.02-1.76-1.36-2.1-2.4-2.83
		c-0.07-0.05-0.24-0.01-0.35,0.03c-0.47,0.15-0.93,0.31-1.51,0.5c-0.51,2.14,1.12,3.75,1.91,5.63c-0.08-0.03-0.13-0.03-0.17-0.06
		c-1.51-1.33-3.07-2.58-4.87-3.51c-0.23-0.12-0.36-0.42-0.56-0.62c-0.41-0.41-0.81-0.83-1.25-1.2c-0.16-0.13-0.54-0.26-0.6-0.19
		c-0.17,0.2-0.38,0.54-0.32,0.75c0.26,0.8,0.47,1.71,0.99,2.32c0.95,1.09,2.16,1.93,3.01,3.15c0.99,1.42,2.26,2.65,2.52,4.48
		C51.16,29.69,51.34,30.83,51.53,32.11z M61.92,76.45c0-0.06,0-0.13-0.01-0.19c-0.63-0.04-1.2-0.33-1.74-0.55
		c-0.57-0.23-0.82-0.12-1.16,0.21c-0.33,0.32-0.6,0.75-0.99,0.95c-0.63,0.31-0.19,0.9-0.46,1.28c0.18,0.02,0.38,0.11,0.53,0.05
		c0.54-0.22,1.09-0.3,1.59-0.76C60.24,76.9,61.16,76.76,61.92,76.45z M22.12,76.17c-0.06,0.06-0.12,0.11-0.18,0.17
		c0.96,1.16,1.92,2.32,2.9,3.51c0.13-0.23,0.24-0.41,0.36-0.62c0.29,0.38,0.54,0.72,0.85,1.13c0.07-0.38,0.12-0.67,0.18-0.96
		c-0.06,0.04-0.12,0.08-0.19,0.11c-0.15-0.26-0.25-0.57-0.46-0.76c-0.94-0.82-1.91-1.6-2.88-2.38
		C22.54,76.27,22.31,76.24,22.12,76.17z M36.87,7.31c-1.66,0.71-3.11,1.32-4.56,1.93C34.96,9.24,35.62,9.27,36.87,7.31z
		 M14.85,28.03c0.24-0.4,0.44-0.85,0.74-1.2c0.63-0.72,0.65-0.7,0.43-1.12C15.16,26.23,14.91,27.07,14.85,28.03z M8.84,50.05
		c0.3-0.82,1.21-1.65,0-2.52C8.84,48.41,8.84,49.23,8.84,50.05z M14.05,54.61c0.38-0.34,0.64-0.57,0.87-0.77
		c-0.1-0.2-0.16-0.39-0.27-0.56c-0.09-0.15-0.22-0.27-0.33-0.41c-0.14,0.14-0.39,0.28-0.4,0.42C13.9,53.67,13.99,54.06,14.05,54.61z
		"/>
	<g>
		<g>
			<g>
				<path class="st11" d="M127.52,35.88c0.03-1.27,0.14-2.62-0.66-3.81c-0.97-1.44-2.33-2.21-4.05-2.4
					c-1.09-0.12-2.18-0.33-3.27-0.48c-0.27-0.04-0.55-0.01-0.85-0.01c0.07-0.23,0.11-0.39,0.16-0.55c0.16-0.48,0.45-0.6,0.88-0.33
					c0.31,0.2,0.61,0.46,0.89-0.04c0.03-0.05,0.16-0.06,0.25-0.06c0.86,0.03,1.75-0.24,2.55,0.36c0.17,0.13,0.55-0.04,0.83-0.01
					c1.67,0.23,3.12,0.83,4.03,2.36c0.11,0.19,0.36,0.3,0.54,0.44c0.1,0.08,0.27,0.13,0.31,0.24c0.32,0.74,0.69,1.48,0.91,2.25
					c0.32,1.16,0.37,2.44,0.85,3.52c0.48,1.08,0.75,2.18,1.03,3.3c0.11,0.45,0.49,0.83,0.74,1.25c0.06,0.09,0.13,0.19,0.15,0.29
					c0.24,0.97,0.79,1.77,1.29,2.62c0.21,0.36,0.2,0.84,0.31,1.26c0.03,0.11,0.12,0.21,0.2,0.3c0.8,0.91,1.23,2,1.68,3.11
					c0.21,0.51,0.17,1.35,0.98,1.56c0.06,0.02,0.08,0.2,0.13,0.3c0.38,0.76,0.64,1.61,1.17,2.25c0.52,0.63,0.59,1.38,0.92,2.06
					c0.38,0.79,0.18,1.6,0,2.4c-0.03,0.13-0.1,0.3-0.2,0.35c-0.72,0.37-1.42,0.86-2.18,1.01c-0.82,0.16-1.47-0.42-2.03-1.03
					c-0.34-0.37-0.81-0.63-1.17-0.99c-0.17-0.17-0.2-0.48-0.32-0.71c-0.18-0.33-0.42-0.64-0.58-0.98c-0.45-0.91-1.06-1.8-1.26-2.77
					c-0.25-1.23-0.85-2.31-1.15-3.5c-0.23-0.88-0.69-1.69-1.01-2.54c-0.13-0.33-0.16-0.7-0.24-1.05c-0.1-0.47-0.23-0.94-0.3-1.42
					c-0.1-0.73-0.51-1.34-0.63-2.1c-0.13-0.78,0.01-1.59-0.26-2.32c-0.07-0.2-0.49-0.47-0.64-0.41c-1.33,0.49-2.52,0.05-3.78-0.32
					c-1.16-0.34-2.39-0.39-3.6-0.57c-0.22-0.03-0.45-0.09-0.67-0.13c-0.91-0.15-1.82-0.27-2.72-0.47c-0.35-0.08-0.89-0.31-0.93-0.54
					c-0.07-0.45-0.54-1.05,0.05-1.41c0.44-0.27,1.01-0.47,1.52-0.46c1.66,0.01,3.31,0.19,4.97,0.2c1.3,0,2.61-0.18,3.91-0.23
					C126.65,35.66,127.08,35.81,127.52,35.88z"/>
				<path class="st11" d="M126.11,60.57c-1.32,0.15-2.45,0.27-3.58,0.42c-0.62,0.08-1.23,0.24-1.85,0.34
					c-0.33,0.06-0.67,0.07-1.01,0.11c-0.48,0.06-0.96,0.17-1.45,0.18c-0.67,0.02-1.34-0.02-2.01-0.05c-0.09,0-0.21-0.12-0.25-0.21
					c-0.27-0.54-0.02-1.89,0.41-2.33c0.11-0.11,0.26-0.22,0.29-0.35c0.25-1.18,0.5-2.36,0.7-3.56c0.03-0.16-0.18-0.44-0.35-0.53
					c-0.5-0.26-1.28-0.32-1.51-0.71c-0.58-0.97-1.38-1.89-1.36-3.13c0.03-1.56-0.06-3.13,0.14-4.67c0.11-0.84,0.64-1.67,1.12-2.41
					c0.56-0.86,1.54-0.85,2.45-0.82c0.84,0.02,0.85-0.1,0.98-0.86c0.12-0.72,0.53-1.39,0.86-2.19c0.38,0.24,0.57,0.37,0.81,0.52
					c-0.17,0.18-0.27,0.34-0.41,0.43c-0.75,0.46-0.49,1.18-0.34,1.76c0.08,0.3,0.62,0.58,1,0.68c0.64,0.17,1.18,0.56,1.74,0.75
					c1.22,0.39,1.9,1.28,2.73,2.1c0.67,0.66,1.04,1.84,0.74,2.76c-0.19,0.57-0.32,1.17-0.42,1.77c-0.09,0.57-0.45,0.86-0.93,1.07
					c-0.15,0.06-0.35,0.12-0.41,0.24c-0.18,0.4-0.34,0.77-0.87,0.75c-0.05,0-0.13,0.06-0.16,0.11c-0.78,1.32-2.13,1.57-3.46,1.88
					c-0.14,0.03-0.37,0.36-0.33,0.43c0.52,0.95-0.05,1.86-0.06,2.79c-0.01,0.3,0,0.6,0,0.94c2.17-0.54,4.2-1.04,6.24-1.54
					c0.13-0.46,0.24-0.93,0.42-1.37c0.08-0.2,0.27-0.42,0.47-0.49c0.85-0.32,1.11-0.23,1.42,0.66c0.24,0.7,0.32,1.45,0.48,2.17
					c0.18,0.8,0.45,1.6,0.53,2.41c0.09,1.03,0.04,2.07,0.01,3.1c0,0.12-0.31,0.35-0.35,0.32c-0.49-0.28-1.09,0.8-1.48-0.09
					c-0.23-0.52-0.35-1.08-0.5-1.63C126.39,61.72,126.25,61.12,126.11,60.57z M118.28,50.35c0-1.77,0-3.42,0-5.07
					c-1.33-0.13-1.37-0.16-1.7,0.32c-0.88,1.25-0.8,2.64-0.65,3.89C116.74,49.79,117.41,50.03,118.28,50.35z M119.88,45.41
					c-0.05,0.06-0.09,0.12-0.14,0.17c0.07,1.47,0.14,2.94,0.22,4.52c0.74-0.37,1.4-0.7,2.07-1.03c0.72-0.35,0.98-1.34,0.38-1.86
					C121.63,46.55,120.73,46.01,119.88,45.41z"/>
				<path class="st11" d="M113.93,26.68c0.38,0.09,0.6,0.14,0.82,0.18c0.55,0.12,0.75,0.57,0.57,0.98
					c-0.56,1.28-0.44,2.64-0.62,3.96c-0.14,1.03-0.32,2.06-0.48,3.09c-0.06,0.42-0.11,0.84-0.18,1.25c-0.23,1.28-0.45,2.55-0.7,3.83
					c-0.15,0.77-0.37,1.53-0.51,2.3c-0.38,2.06-0.73,4.12-1.12,6.18c-0.12,0.67-0.33,1.32-0.46,1.98c-0.17,0.85-0.28,1.7-0.44,2.55
					c-0.11,0.62-0.28,1.23-0.37,1.86c-0.14,0.95-0.17,1.92-0.38,2.85c-0.17,0.76-0.08,1.61-0.75,2.25
					c-0.77,0.73-1.55,0.71-2.43,0.18c-0.8-0.47-0.98-1.22-1.25-1.93c-0.12-0.32,0.17-0.76,0.13-1.14c-0.09-1,0.37-1.79,0.76-2.65
					c0.37-0.83,0.53-1.75,0.8-2.63c0.14-0.47,0.31-0.93,0.44-1.41c0.12-0.46,0.21-0.92,0.33-1.38c0.04-0.15,0.06-0.33,0.15-0.44
					c0.54-0.61,0.73-1.3,0.66-2.1c-0.01-0.1,0.04-0.21,0.07-0.31c0.38-1.18,0.77-2.35,1.15-3.53c0.05-0.15,0.14-0.32,0.11-0.46
					c-0.15-0.64,0.26-1.12,0.42-1.67c0.3-1.04,0.57-2.08,0.83-3.12c0.42-1.68,0.84-3.36,1.21-5.05c0.28-1.28,0.45-2.58,0.71-3.86
					C113.53,27.84,113.75,27.26,113.93,26.68z"/>
			</g>
			<g>
				<path class="st11" d="M180.51,47.51c-0.48-0.4-0.34-1.94,0.35-2.51c0.36-0.3,0.75-0.58,1.16-0.79c0.23-0.12,0.56-0.07,0.84-0.08
					c0.95-0.04,1.9-0.06,2.84-0.1c1.26-0.05,2.53-0.08,3.79-0.15c1.54-0.08,3.08-0.16,4.62-0.29c0.39-0.03,0.76-0.3,1.16-0.35
					c0.5-0.07,1.03-0.12,1.53-0.04c0.75,0.13,0.87,0.43,0.7,1.16c-0.1,0.44-0.15,0.88-0.23,1.37c-1.37,0.41-2.79,0.19-4.2,0.21
					c-1.13,0.02-2.27-0.31-3.4,0.09c-0.12,0.04-0.26,0.02-0.39,0c-1.76-0.24-3.53-0.46-5.32-0.42c-0.46,0.01-1.04-0.26-1.35-0.06
					c-0.28,0.17-0.32,0.81-0.35,1.25c-0.07,0.97-0.12,1.96-0.09,2.93c0.02,0.48,0.14,0.93-0.04,1.44c-0.2,0.58-0.19,1.24-0.22,1.87
					c-0.03,0.76-0.01,1.53-0.01,2.37c0.19,0.02,0.4,0.09,0.58,0.06c2.38-0.4,4.76-0.81,7.14-1.21c0.74-0.12,1.5-0.17,2.24-0.29
					c0.18-0.03,0.32-0.26,0.5-0.31c0.46-0.12,0.93-0.16,1.39-0.28c0.82-0.21,1.66-0.39,2.45-0.69c0.79-0.3,1.52-0.14,2.16,0.21
					c0.36,0.2,0.56,0.74,0.75,1.16c0.14,0.3,0.15,0.67,0.2,1c0.01,0.07-0.02,0.16-0.06,0.22c-0.63,0.95-1.38,1.55-2.65,1.37
					c-0.92-0.13-1.87-0.01-2.81-0.01c-0.38,0-0.8,0.08-1.13-0.05c-0.96-0.38-1.76,0.18-2.65,0.3c1.45,1.02,2.85,2.01,4.26,3.01
					c0.36-0.47,0.73-1.06,1.22-1.54c0.84-0.82,2.14-0.53,2.41,0.51c0.08,0.3-0.05,0.67-0.14,0.99c-0.17,0.58-0.44,1.09-0.93,1.5
					c-0.26,0.22-0.38,0.61-0.48,0.78c0.27,0.38,0.46,0.6,0.59,0.84c0.3,0.53,0.65,0.94,1.19,1.31c1.1,0.75,1.38,2.15,0.67,3.25
					c-0.23,0.35-1.27,0.28-1.8-0.07c-0.15-0.1-0.37-0.1-0.56-0.15c-0.11-0.03-0.27-0.01-0.31-0.07c-0.37-0.54-0.76-1.07-1.08-1.64
					c-0.3-0.53-0.53-1.11-0.77-1.6c-0.92,0.47-1.79,1.08-2.76,1.35c-0.86,0.24-1.78,0.25-2.67,0.47c-0.58,0.14-1.24,0.04-1.85-0.06
					c-0.53-0.08-1.07-0.24-1.54-0.49c-0.66-0.35-1.39-0.48-1.99-1.06c-0.86-0.82-1.41-1.68-1.63-2.86
					c-0.05-0.29-0.37-0.56-0.26-0.96c0.01-0.05-0.14-0.14-0.22-0.21c-0.07,0.1-0.23,0.22-0.21,0.28c0.22,0.59-0.01,1.11-0.27,1.58
					c-0.26,0.46-0.66,0.84-1.12,1.4c-0.08-0.45-0.12-0.66-0.14-0.78c-0.26,0.19-0.5,0.51-0.73,0.5c-0.37-0.01-0.81-0.14-1.08-0.38
					c-0.42-0.37-0.56-0.9-0.34-1.49c0.1-0.28,0.04-0.62,0.14-0.9c0.21-0.57,0.48-1.12,0.73-1.68c0.78-1.71,1.31-3.5,1.46-5.38
					c0.08-0.98,0.02-1.97,0.13-2.94C180.04,49.51,180.29,48.6,180.51,47.51z M192.66,61.67c-0.09-0.11-0.15-0.21-0.23-0.28
					c-0.1-0.09-0.26-0.13-0.33-0.24c-0.92-1.28-2.26-2.08-3.47-3.02c-0.36-0.28-0.86-0.42-0.85-1.02c0-0.07-0.19-0.2-0.29-0.2
					c-1.06,0-2.11,0.05-3.17,0.04c-0.54,0-1.08-0.04-1.61-0.11c-0.64-0.08-1.09,0.25-0.93,0.87c0.31,1.17,0.75,2.31,1.13,3.47
					c0.57,1.75,2.01,2.29,3.6,2.57c0.54,0.1,1.14,0.16,1.67,0.04c0.95-0.22,1.84-0.72,2.79-0.88
					C191.8,62.77,192.16,62.2,192.66,61.67z"/>
				<path class="st11" d="M185.39,25.38c1.1-0.04,2.3-0.11,3.5-0.13c0.71-0.01,1.41,0.09,2.12,0.08c0.19,0,0.4-0.2,0.56-0.34
					c0.09-0.08,0.07-0.29,0.16-0.37c0.31-0.24,0.65-0.45,0.97-0.67c0.12,0.31,0.38,0.63,0.35,0.92c-0.08,0.85,0.7,0.78,1.09,1.07
					c0.61,0.45,1.4,0.67,1.96,1.16c0.55,0.48,1.31,0.81,1.5,1.66c0.11,0.49,0.48,0.94,0.52,1.42c0.1,1.44,0.22,2.9,0.09,4.34
					c-0.08,0.93-0.66,1.81-0.87,2.74c-0.23,1.01-0.87,1.64-1.62,2.2c-0.39,0.29-0.82,0.58-1.28,0.74c-1.36,0.47-2.73,0.9-4.2,0.72
					c-0.15-0.02-0.3-0.11-0.45-0.13c-0.25-0.04-0.53-0.14-0.75-0.07c-0.81,0.27-1.58,0.43-2.42,0.06c-0.27-0.12-0.64,0-0.96-0.02
					c-1.57-0.1-2.89-0.69-3.84-1.99c-0.11-0.15-0.31-0.28-0.5-0.34c-1.16-0.4-1.57-1.38-1.86-2.42c-0.59-2.1-0.22-4.09,0.78-6.01
					c0.39-0.74,0.62-1.57,0.85-2.38c0.22-0.8,0.84-1.28,1.67-1.17c0.63,0.08,1.07-0.26,1.16-0.9c0-0.02,0-0.05,0.01-0.07
					c0.14-0.38-0.12-1.09,0.59-0.99C184.84,24.54,185.09,25.05,185.39,25.38z M185.28,28.61c0,0.32-0.01,0.38,0,0.45
					c0.22,1.3,0.48,2.6,0.17,3.93c-0.11,0.48,0.44,1.13,0.86,1.1c0.78-0.06,1.55-0.16,2.33-0.23c0.61-0.06,1.23-0.16,1.83-0.13
					c0.78,0.04,0.94-0.02,0.98-0.81c0.05-1.1,0.17-2.2,0.06-3.29c-0.05-0.52,0.14-1.37-0.67-1.54c-0.59-0.13-1.24-0.12-1.84-0.05
					C187.76,28.19,186.53,28.42,185.28,28.61z M185.76,35.37c0,0.3-0.02,0.61,0,0.92c0.05,0.6,0.09,1.21,0.21,1.8
					c0.07,0.32,0.28,0.41,0.71,0.36c0.87-0.11,1.77,0.05,2.65-0.01c0.5-0.04,1.32-0.2,1.41-0.49c0.25-0.77,0.19-1.65,0.25-2.58
					C189.18,35.37,187.5,35.37,185.76,35.37z M193.29,28.58c-0.07,0.62-0.08,1.26-0.22,1.86c-0.15,0.71-0.27,1.39-0.11,2.13
					c0.21,0.98,0.14,0.99,1.17,0.91c0.15-0.01,0.31,0.03,0.47,0.05c0.75,0.1,1.01-0.13,0.97-0.85c-0.03-0.49-0.04-0.99-0.05-1.48
					C195.5,29.81,194.58,28.74,193.29,28.58z M183.79,29.24c-0.47,0.32-0.8,0.68-1.2,0.79c-0.36,0.1-0.38,0.24-0.43,0.54
					c-0.06,0.39-0.22,0.77-0.33,1.15c0.66,0.72-0.3,1.86,0.47,2.67c0.26-1.04,0.95-0.3,1.51-0.37
					C183.81,32.44,184.33,30.87,183.79,29.24z M183.92,38.11c-0.31-1.15,0.43-2.15,0.02-3.02c-0.62,0.06-1.09,0.1-1.59,0.14
					C182.67,36.25,182.54,37.45,183.92,38.11z M192.93,37.67c0.92-0.47,2.07-0.75,1.91-2.22c-0.54,0.04-1.05,0.12-1.56,0.1
					c-0.5-0.02-0.58,0.21-0.53,0.61C192.81,36.65,192.87,37.13,192.93,37.67z"/>
				<path class="st11" d="M193.81,50.53c-0.61-0.13-1.22-0.29-1.84-0.38c-0.36-0.05-0.73-0.02-1.1,0.01
					c-1.26,0.1-2.52,0.22-3.78,0.33c-0.07,0.01-0.15,0.02-0.2-0.01c-1.24-0.55-2.48-0.07-3.73-0.02c-0.18,0.01-0.36-0.13-0.53-0.2
					c0.1-0.16,0.16-0.4,0.3-0.47c0.4-0.17,0.78-0.51,1.27-0.24c0.05,0.03,0.15,0.05,0.19,0.02c1.37-0.85,2.96-0.75,4.45-0.85
					c1.04-0.07,2.1-0.24,3.22,0.04c0.93,0.24,2.02-0.11,3.04-0.19c0.69-0.06,1.39,0.57,1.42,1.25c0.02,0.56-0.53,1.01-1.11,0.89
					c-0.52-0.11-1.04-0.23-1.56-0.34C193.83,50.42,193.82,50.48,193.81,50.53z"/>
			</g>
			<g>
				<path class="st11" d="M238.68,45.83c0.2,1.14,0.41,2.27,0.6,3.41c0.03,0.19-0.02,0.39,0,0.58c0.09,0.67,0.28,1.34,0.29,2.02
					c0.01,0.69-0.15,1.38-0.23,2.07c-0.07,0.69-0.07,1.39-0.22,2.06c-0.2,0.94-0.46,1.88-0.78,2.79c-0.13,0.36-0.49,0.65-0.74,0.97
					c-0.04,0.05-0.07,0.12-0.09,0.18c-0.62,1.39-1.83,2.31-2.8,3.43c-0.1,0.12-0.23,0.23-0.36,0.31c-0.81,0.47-1.59,1.01-2.44,1.37
					c-0.96,0.4-1.99,0.64-2.99,0.95c-0.15,0.05-0.3,0.08-0.45,0.13c-1.52,0.46-3.01,1.07-4.55,1.33c-1.48,0.25-3.05,0.3-4.54,0.14
					c-1.28-0.14-2.52-0.68-3.77-1.06c-0.77-0.23-1.55-0.45-2.28-0.76c-0.66-0.28-1.23-0.67-1.69-1.3c-0.41-0.56-0.95-1.11-1.77-1.2
					c-0.23-0.02-0.56-0.2-0.64-0.39c-0.45-1-1.09-1.93-0.95-3.16c0.08-0.7-0.24-1.44-0.32-2.17c-0.04-0.32,0.12-0.67,0.08-0.99
					c-0.23-1.96-0.01-3.89,0.33-5.82c0.18-1,0.26-2.02,0.43-3.02c0.09-0.53,0.29-1.04,0.41-1.57c0.19-0.86,0.3-1.74,0.52-2.59
					c0.21-0.84,0.48-1.66,0.76-2.47c0.49-1.4,1.04-2.77,1.51-4.17c0.3-0.89,0.47-1.82,0.76-2.7c0.35-1.06,0.73-2.12,1.2-3.13
					c0.4-0.87,0.89-1.7,1.45-2.48c0.26-0.36,0.8-0.51,1.16-0.81c1.08-0.88,2.31-1.42,3.65-1.76c0.66-0.17,1.26-0.38,1.99-0.25
					c0.57,0.1,1.21-0.16,1.79-0.1c1.16,0.13,2.35,0.1,3.37,0.88c0.57,0.43,1.31,0.64,1.93,1.02c0.94,0.57,1.88,1.15,2.75,1.81
					c0.46,0.35,0.77,0.88,1.15,1.32c0.53,0.63,1.09,1.23,1.59,1.89c0.25,0.32,0.44,0.71,0.56,1.1c0.3,0.99,0.52,2,0.82,3
					c0.45,1.5,1.03,2.96,1.3,4.53c0.17,1.03,0.59,2.01,0.89,3.02c0.16,0.53,0.31,1.05,0.46,1.58
					C238.78,45.81,238.73,45.82,238.68,45.83z M228.15,61.96c1.29-0.58,2.49-1.11,3.69-1.64c0.04-0.02,0.08-0.05,0.11-0.08
					c0.39-0.53,0.82-1.05,1.17-1.6c0.37-0.58,0.56-1.35,1.05-1.78c0.72-0.64,0.88-1.29,0.73-2.17c-0.07-0.4,0-0.9,0.19-1.26
					c0.33-0.65,0.29-1.29,0.19-1.95c-0.11-0.75-0.29-1.5-0.37-2.25c-0.06-0.53-0.01-1.08-0.03-1.62c-0.01-0.16-0.14-0.32-0.17-0.49
					c-0.11-0.69-0.18-1.39-0.32-2.08c-0.15-0.74-0.53-1.48-0.52-2.21c0.03-1.14-0.53-2.1-0.7-3.16c-0.17-1.05-0.52-2.08-0.75-3.12
					c-0.07-0.32,0-0.66-0.03-0.99c-0.01-0.11-0.11-0.23-0.18-0.33c-0.36-0.56-0.73-1.1-1.08-1.66c-0.3-0.49-0.51-1.04-0.84-1.5
					c-0.53-0.74-1.25-1.28-1.91-1.89c-1.17-1.09-2.51-1.64-4.02-1.81c-0.84-0.09-1.71-0.01-2.56,0.05
					c-0.75,0.05-1.57-0.02-2.22,0.28c-0.86,0.4-1.66,1.03-2.34,1.7c-1.19,1.17-1.81,2.69-2.35,4.25c-0.14,0.4-0.42,0.75-0.5,1.15
					c-0.33,1.75-0.6,3.52-0.89,5.28c-0.18,1.09-0.39,2.18-0.55,3.27c-0.08,0.53-0.07,1.08-0.14,1.61c-0.06,0.42-0.23,0.84-0.26,1.26
					c-0.12,1.42-0.19,2.85-0.29,4.28c-0.12,1.73-0.26,3.46-0.39,5.19c0.06,0.01,0.13,0.03,0.19,0.04c0.11-0.16,0.21-0.33,0.32-0.49
					c0.33-0.48,0.57-1.09,1.02-1.38c0.37-0.23,0.63-0.54,0.71-0.84c0.22-0.9,1.18-1.38,1.26-2.34c0.01-0.07,0.18-0.13,0.25-0.21
					c0.36-0.38,1.09-0.24,1.26-0.9c0.01-0.02,0.2,0.01,0.39,0.02c-0.21,0.62-0.58,1.12-0.28,1.83c0.22,0.53-0.04,1.23,0.05,1.83
					c0.14,0.9,0.35,1.79,0.61,2.66c0.31,1.03,1.04,1.56,2.1,1.52c0.74-0.03,1.49-0.16,2.21-0.33c0.88-0.21,1.04-0.91,0.59-1.7
					c-0.51-0.89-0.93-1.85-1.29-2.81c-0.09-0.25,0.16-0.72,0.38-0.96c0.12-0.13,0.65-0.08,0.78,0.07c0.32,0.39,0.51,0.89,0.78,1.33
					c0.33,0.55,0.69,1.09,1.14,1.79c0.84-1.23,1.56-2.28,2.24-3.28c0.53,0.1,0.96,0.18,1.59,0.3c0.03,0.24,0,0.67,0.16,1
					c0.4,0.85,0.09,1.52-0.41,2.19c-0.4,0.54-0.71,1.19-1.21,1.63c-0.67,0.59-0.67,0.67-0.11,1.4
					C227.21,59.86,228.06,60.58,228.15,61.96z M216.4,52.25c-0.12-0.01-0.24-0.02-0.37-0.03c-0.33,0.75-0.6,1.55-1.01,2.25
					c-0.53,0.92-0.92,1.85-1.08,2.91c-0.06,0.41-0.42,0.95-0.78,1.09c-0.27,0.11-0.76-0.31-1.14-0.51c-0.1-0.05-0.16-0.17-0.24-0.27
					c-0.46,0.75,0.01,1.35,0.3,1.93c0.26,0.53,0.57,1.17,1.05,1.44c0.89,0.51,1.56,1.29,2.69,1.56c1.95,0.45,3.8,1.14,5.88,1.05
					c1.65-0.07,3.19-0.4,4.85-1.09c-1.43-0.41-1.51-1.8-2.17-2.57c-0.6,0.24-1.08,0.43-1.56,0.64c-1.58,0.67-3.16,0.52-4.61-0.26
					c-0.54-0.29-0.79-1.09-1.31-1.49c-0.81-0.62-0.87-1.52-0.88-2.33c-0.02-1.09,0.25-2.18,0.38-3.28
					C216.43,52.94,216.4,52.6,216.4,52.25z"/>
				<path class="st11" d="M223.45,31.93c0.04,0.39,0.08,0.77,0.14,1.28c0.64-0.08,1.33-0.06,1.95-0.26
					c0.75-0.24,1.43-0.43,2.12,0.34c0,0.07-0.02,0.29,0,0.5c0.09,0.89-0.38,1.24-1.25,1.1c-0.57-0.09-1.18,0.08-1.78,0.13
					c-0.26,0.02-0.53,0.06-0.91,0.1c-0.06,1.05-0.13,2.14-0.2,3.4c0.71-0.14,1.3-0.32,1.89-0.34c0.72-0.03,1.46,0.03,2.17,0.14
					c0.11,0.02,0.2,0.46,0.24,0.72c0.05,0.31,0.1,0.64,0.03,0.93c-0.24,0.94-1.1,1.12-1.86,1.21c-0.93,0.11-1.89-0.03-2.84-0.01
					c-1.22,0.02-2.44,0.12-3.65,0.12c-0.65,0-1.29-0.16-1.94-0.21c-0.8-0.06-1.6-0.05-2.39-0.15c-0.21-0.03-0.52-0.33-0.53-0.52
					c-0.01-0.21,0.24-0.59,0.43-0.64c0.76-0.16,1.55-0.23,2.33-0.32c0.25-0.03,0.5-0.02,0.74-0.05c1.02-0.12,2.04-0.24,3.06-0.39
					c0.17-0.03,0.42-0.22,0.45-0.37c0.22-1.09,0.39-2.18,0.58-3.24c-0.39-0.4-0.77-0.39-1.24-0.26c-0.67,0.18-1.36,0.29-2.05,0.36
					c-0.18,0.02-0.56-0.27-0.55-0.36c0.06-0.34,0.19-0.89,0.41-0.96c0.98-0.27,1.99-0.41,2.99-0.59c0.36-0.07,0.59-0.21,0.64-0.65
					C222.49,32.45,222.51,31.8,223.45,31.93z"/>
				<path class="st11" d="M219.06,49.89c-0.45-0.02-0.8,0.02-1.11-0.07c-0.24-0.07-0.4-0.42-0.63-0.47
					c-1.14-0.2-1.35-1.19-1.85-1.98c-0.18-0.28-0.61-0.47-0.96-0.55c-0.41-0.09-1.06,0.02-1.05-0.49c0.01-0.56,0.33-1.14,0.63-1.64
					c0.12-0.2,0.55-0.21,0.84-0.31c0.17-0.06,0.38-0.07,0.5-0.18c0.64-0.59,1.44-0.7,2.24-0.81c0.08-0.01,0.18,0,0.25-0.04
					c1.15-0.61,2.4-0.73,3.66-0.93c0.97-0.16,1.79,0.1,2.63,0.36c1.34,0.42,2.15,1.44,2.67,2.72c0.49,1.19,0.41,2.33-0.58,3.08
					c-1.05,0.79-2.25,1.42-3.61,1.6c-0.85,0.11-1.7,0.21-2.56,0.22C219.71,50.4,219.17,50.34,219.06,49.89z M215.94,46.95
					c0.34,0.52,0.62,1.01,0.96,1.46c0.12,0.16,0.36,0.29,0.56,0.34c0.44,0.11,0.89,0.16,1.34,0.22c0.15,0.02,0.33,0.1,0.43,0.04
					c0.76-0.45,1.46-0.18,2.13,0.13c0.19-0.18,0.33-0.38,0.52-0.46c0.63-0.29,1.32-0.47,1.92-0.82c0.41-0.23,0.96-0.64,0.99-1
					c0.04-0.43-0.31-1.08-0.69-1.32c-1.34-0.85-2.83-0.76-4.3-0.31c-0.95,0.3-1.85,0.73-2.8,0.98
					C216.48,46.35,216.05,46.46,215.94,46.95z"/>
			</g>
			<g>
				<path class="st11" d="M149.41,36.22c1.28,0,2.69-0.01,4.09,0c1.28,0.01,2.55,0.05,3.83,0.09c1.38,0.05,2.76,0.08,4.14,0.19
					c0.51,0.04,1.01,0.26,1.49,0.47c0.35,0.15,0.67,0.38,0.97,0.61c1.26,0.97,1.86,2.41,2.48,3.79c0.27,0.6,0.16,1.41,0.06,2.1
					c-0.06,0.43-0.42,0.83-0.65,1.24c-0.3,0.53-0.59,1.08-0.93,1.59c-0.11,0.16-0.42,0.33-0.58,0.28c-0.92-0.27-1.75,0.28-2.65,0.26
					c-1.6-0.02-3.21,0.05-4.81,0.11c-0.61,0.02-1.22,0.13-1.83,0.11c-1.08-0.04-2.16-0.15-3.24-0.24c-0.35-0.03-0.72-0.2-1.03-0.12
					c-0.72,0.17-1.24-0.29-1.68-0.61c-0.57-0.41-1.16-0.91-1.11-1.87c0.04-0.82-0.34-1.66-0.4-2.5c-0.09-1.22-0.13-2.45-0.05-3.66
					c0.03-0.5,0.33-1.05,0.67-1.45C148.38,36.38,148.88,36.38,149.41,36.22z M149.06,42.27c-0.09,0.66,0.43,1.97,1.12,2.11
					c0.66,0.14,1.36,0.18,2.04,0.17c0.67-0.01,1.34-0.16,2.01-0.21c1.12-0.08,2.24-0.1,3.35-0.21c1.6-0.15,3.18-0.39,4.78-0.53
					c0.63-0.06,1.46-0.8,1.26-1.38c-0.27-0.76-0.67-1.49-1.12-2.16c-0.49-0.72-1.29-0.81-2.12-0.81c-1.13,0-2.25-0.08-3.38-0.1
					c-0.36-0.01-0.71,0.07-1.07,0.06c-0.79-0.02-1.59-0.16-2.38-0.11c-1.47,0.09-2.93,0.26-4.39,0.42
					c-0.68,0.07-0.89,0.56-0.58,1.18c0.1,0.19,0.07,0.44,0.13,0.66C148.82,41.67,148.95,41.97,149.06,42.27z"/>
				<path class="st11" d="M150.59,35.41c-0.53-0.79-0.28-1.57-0.16-2.41c0.2-1.46,0.17-2.95,0.24-4.44
					c-1.08-0.1-2.03-0.29-2.98-0.25c-1.08,0.05-2.15,0.28-3.22,0.46c-0.32,0.05-0.76,0.36-0.84-0.12c-0.06-0.37,0.18-0.84,0.41-1.18
					c0.1-0.14,0.53-0.05,0.91-0.07c0.28-0.51,0.96-0.44,1.52-0.52c1.26-0.19,2.53-0.28,3.8-0.41c0.11-0.01,0.21-0.04,0.34-0.07
					c-0.09-0.99-0.19-1.93-0.25-2.89c-0.02-0.38,0.89-1.38,1.24-1.36c0.14,0.01,0.27,0.18,0.38,0.27c-0.4,0.46-0.73,0.85-1.1,1.27
					c0.81,0.36,0.55,1.18,0.63,1.85c0.09,0.73,0.19,0.86,0.93,0.78c1.32-0.15,2.66-0.16,3.94-0.46c0.81-0.19,1.63-0.07,2.42-0.3
					c0.26-0.08,0.5-0.22,0.75-0.33c-0.47-1.04-0.17-1.99,0.82-2.6c0.19,0.39,0.46,0.76,0.55,1.16c0.09,0.43,0.02,0.9,0.02,1.5
					c0.54-0.11,0.94-0.21,1.34-0.27c0.75-0.1,1.51-0.16,2.26-0.27c1.14-0.16,2.27-0.39,3.42-0.51c0.34-0.03,0.71,0.23,1.01,0.34
					c0.03,0.43,0.04,0.8,0.07,1.17c0.17,2.05-1.85,2.89-3.5,2.82c-0.65-0.03-1.3,0.01-1.95-0.01c-0.66-0.02-1.31-0.06-2.11-0.1
					c0.12,0.67,0.19,1.28,0.34,1.88c0.25,0.97,0.15,1.84-0.41,2.69c-0.22,0.34-0.35,0.67-0.86,0.68c-0.52,0.02-0.83-0.24-1.03-0.62
					c-0.16-0.3-0.21-0.68-0.24-1.02c-0.08-1.16-0.12-2.32-0.17-3.56c-1.71,0-3.41,0.01-5.12,0c-0.48,0-0.95-0.07-1.43-0.08
					c-0.49-0.01-0.67,0.21-0.62,0.73c0.08,0.8,0.01,1.61,0.1,2.4c0.09,0.84,0.31,1.66,0.45,2.49c0.12,0.69-0.39,1.28-1.09,1.3
					C151.15,35.34,150.86,35.38,150.59,35.41z"/>
				<path class="st11" d="M150.2,52.33c0.3-0.94,1.03-1.13,1.68-0.54c1.58-0.34,3.08-0.36,4.73-0.21c0-0.94-0.01-1.84,0-2.74
					c0.01-0.52,0.58-1.25,1.04-1.37c0.38-0.1,0.59,0.29,0.49,0.8c-0.21,1.05-0.02,2.07,0.33,3.07c0.04,0.1,0.25,0.2,0.38,0.19
					c1.89-0.1,3.79-0.2,5.68-0.32c0.22-0.01,0.45-0.08,0.65-0.18c0.76-0.42,1.48-0.16,2.12,0.2c0.59,0.32,0.19,0.92,0.02,1.28
					c-0.65,1.4-0.85,1.44-2.5,0.96c-0.17-0.05-0.35-0.04-0.53-0.05c-1.86-0.07-3.73-0.13-5.68-0.2c0.07,0.38,0.13,0.71,0.18,1.04
					c0.23,1.44-0.01,2.86-0.42,4.2c-0.3,0.98-0.43,2.09-1.28,2.88c-0.21,0.2-0.15,0.66-0.29,0.96c-0.21,0.46-0.64,0.87-0.71,1.34
					c-0.12,0.75-1.24,0.9-1,1.85c0.03,0.14-0.33,0.51-0.56,0.55c-0.66,0.13-1.35,0.13-2.02,0.22c-0.61,0.08-0.91-0.24-0.99-0.76
					c-0.08-0.46,0.06-0.97-0.1-1.39c-0.3-0.83,0.18-1.37,0.55-1.96c0.27-0.43,0.69-0.76,0.97-1.18c0.52-0.77,0.91-1.63,1.5-2.33
					c0.51-0.59,0.94-1.17,1.3-1.87c0.6-1.16,0.72-2.35,0.69-3.66c-0.85-0.23-1.69-0.62-2.61-0.22c-0.12,0.05-0.31,0.01-0.46-0.03
					c-0.74-0.2-1.46-0.4-2.26-0.19c-0.25,0.06-0.6-0.23-0.9-0.35L150.2,52.33z"/>
				<path class="st11" d="M150.19,52.31c-0.55,0.1-1.1,0.23-1.65,0.28c-0.1,0.01-0.34-0.29-0.32-0.42c0.02-0.17,0.2-0.42,0.37-0.47
					c0.68-0.21,1.21,0.06,1.61,0.63C150.2,52.33,150.19,52.31,150.19,52.31z"/>
				<path class="st11" d="M151.3,42.82c-0.1-1,0.15-1.2,1.05-1.08c0.5,0.07,1.02-0.03,1.53-0.04c1.16-0.04,2.33-0.05,3.49-0.13
					c0.96-0.06,1.92-0.19,2.88-0.29c0.75-0.07,0.96,0.06,1.04,0.69c0.12-0.1,0.2-0.18,0.29-0.26c0.18-0.14,0.45-0.44,0.53-0.4
					c0.29,0.16,0.59,0.4,0.75,0.68c0.09,0.15-0.01,0.59-0.15,0.65c-0.32,0.15-0.71,0.17-1.07,0.21c-0.23,0.02-0.47-0.02-0.7-0.02
					c-1.03-0.02-2.06-0.04-3.1-0.05c-1.02-0.01-2.06,0.1-3.06-0.05c-0.79-0.12-1.59,0.26-2.38-0.19
					C152.17,42.42,151.7,42.71,151.3,42.82z"/>
				<path class="st11" d="M150.35,42.81c-0.21-0.26-0.41-0.52-0.68-0.86c0.37-0.07,0.65-0.12,1.05-0.2
					c-0.04,0.39-0.08,0.7-0.11,1.01C150.52,42.77,150.44,42.79,150.35,42.81z"/>
			</g>
		</g>
	</g>
</g>
</svg>
