<?xml version="1.0" encoding="utf-8"?>
<!-- Generator: Adobe Illustrator 25.0.0, SVG Export Plug-In . SVG Version: 6.00 Build 0)  -->
<svg version="1.1" id="圖層_1" xmlns="http://www.w3.org/2000/svg" xmlns:xlink="http://www.w3.org/1999/xlink" x="0px" y="0px"
	 viewBox="0 0 512 512" style="enable-background:new 0 0 512 512;" xml:space="preserve">
<style type="text/css">
	.st0{fill:#FFFFFF;}
</style>
<g>
	<path class="st0" d="M513,236c0,14,0,28,0,42c-1.24,8.72-1.93,17.56-3.82,26.14c-22.52,102.16-83.82,168.89-183.65,200.12
		c-15.45,4.83-31.5,6.86-47.53,8.74c-14,0-28,0-42,0c-8.39-1.2-16.89-1.91-25.15-3.69C108.11,487.18,41.18,425.7,9.73,325.54
		C4.98,310.41,3.06,294.67,1,279c0-14.67,0-29.33,0-44c1.2-8.06,2.2-16.15,3.62-24.17C21.56,114.77,95.09,34.73,189.41,9.41
		C204.4,5.38,219.67,3.06,235,1c14.67,0,29.33,0,44,0c10.17,1.63,20.5,2.35,30.53,4.79c99.8,24.24,164.87,85.42,194.97,183.64
		C509.15,204.59,511.13,220.3,513,236z M257.39,110.2c-23.82,0.86-47.53-0.08-71.1,2.19c-26.72,2.57-48.46,13.95-62.68,37.5
		c-8.87,14.69-11.67,31.11-12.19,47.91c-1.19,37.98-1.35,75.97-0.16,113.96c0.25,8.01,0.71,16,2.19,23.85
		c6.2,32.66,24.8,54.18,57.19,63.23c8.08,2.26,16.37,3.43,24.66,3.64c44.14,1.15,88.31,2.45,132.39-0.95
		c26.14-2.02,47.51-13.43,61.88-36.19c9-14.26,12.42-30.24,12.89-46.68c1.25-43.97,2.11-87.96-0.77-131.91
		c-2.7-41.29-33.25-71.59-74.55-74.52C303.84,110.59,280.51,111.13,257.39,110.2z"/>
	<path class="st0" d="M257,378.23c-20.16,0.08-40.33,0.18-60.46-1c-15.18-0.89-29.75-3.79-41.63-14.43
		c-13.32-11.93-17.21-27.76-18.1-44.59c-1.81-34.13-1.2-68.3-0.77-102.45c0.14-11.27,0.23-22.64,2.47-33.83
		c5.16-25.69,22.51-41.67,48.57-44.24c29.58-2.92,59.25-1.71,88.89-1.89c16.82-0.1,33.64,0.15,50.4,1.83
		c28.63,2.87,47.09,21.41,49.99,50.17c2.03,20.09,1.82,40.25,1.85,60.4c0.03,22.99,0.23,45.98-0.95,68.96
		c-0.31,6-1.01,11.95-2.42,17.79c-5.78,23.97-23.01,38.79-47.96,41.35C303.65,378.7,280.32,378.1,257,378.23z M256.73,331.73
		c41.57,0.06,74.88-32.91,75-74.22c0.12-41.87-32.86-75.19-74.46-75.24c-41.58-0.06-74.89,32.9-75,74.21
		C182.15,298.33,215.14,331.67,256.73,331.73z M352.58,178.53c0.01-8.96-7.84-16.92-16.86-17.1c-9.2-0.19-17.25,7.76-17.32,17.1
		c-0.07,9.05,7.66,16.89,16.82,17.07C344.43,195.77,352.57,187.77,352.58,178.53z"/>
	<path class="st0" d="M256.96,207.62c27.7-0.01,49.43,21.74,49.42,49.45c-0.01,27.64-21.82,49.34-49.58,49.3
		c-27.57-0.03-49.23-21.92-49.18-49.71C207.67,229.34,229.51,207.63,256.96,207.62z"/>
</g>
</svg>
