<svg id="圖層_1" data-name="圖層 1" xmlns="http://www.w3.org/2000/svg" viewBox="0 0 374.54 374.65"><defs><style>.cls-1{fill:#fff;}</style></defs><circle cx="186" cy="189" r="186"/><path class="cls-1" d="M298.75,133.83c-14-23.28-34.91-38.29-59.92-47.88-22.68-8.69-46.19-11.24-70.29-8.52S122,88.09,102.25,102.51s-34.12,33.11-40,57.43c-1,4.27-1.53,8.66-2.28,13v12.3c.87,5,1.42,10,2.66,14.92,5.31,20.92,17.09,37.73,33.58,51.33,19.25,15.88,41.57,24.84,66.07,28.76a52.29,52.29,0,0,1,9.86,2.81,7,7,0,0,1,4.88,7.49c-.53,6.6-1.41,13.17-2.14,19.75a22.39,22.39,0,0,0-.24,2.44c0,3.56,1.68,5.29,5.21,4.78a25.72,25.72,0,0,0,7.45-2.28c13.44-6.54,25.86-14.79,38.15-23.23,18.87-12.95,37.15-26.67,53.3-43,10-10.12,19.1-21,25-34.12C316.36,187,314.35,159.83,298.75,133.83Zm-161.54,79q-13.14.18-26.28,0a6.08,6.08,0,0,1-5.73-5.19,19.53,19.53,0,0,1-.22-3.42q0-23.1,0-46.18a22.08,22.08,0,0,1,.11-2.7,6.54,6.54,0,0,1,6.84-6,6.38,6.38,0,0,1,6.18,6.4c.13,5.48.06,11,.06,16.46,0,9,0,18,0,27.43,5.62,0,10.93,0,16.24,0a18.48,18.48,0,0,1,3.65.28,6.41,6.41,0,0,1,5.1,6.83A6.22,6.22,0,0,1,137.21,212.81Zm25.24-7.05c0,4.29-2.67,7.08-6.48,7.12a6.39,6.39,0,0,1-6.53-5.76,20,20,0,0,1-.11-2.45q0-23.61,0-47.22a12.53,12.53,0,0,1,.46-3.87,6.5,6.5,0,0,1,12.6,2.26c.11,7.95.05,15.9.06,23.85v1.48C162.47,189.36,162.51,197.56,162.45,205.76Zm60.32-35.58v34.68c0,4.21-1.59,6.83-4.67,7.78s-5.69-.13-8.15-3.49l-22.65-31a6.51,6.51,0,0,0-2.19-2v2.47c0,9,0,18,0,27,0,4.44-2.71,7.24-6.65,7.2a6.4,6.4,0,0,1-6.36-5.68A10.18,10.18,0,0,1,172,206q0-24.83,0-49.67a8,8,0,0,1,.5-2.87c2-5,8.05-5.54,11.46-1,5.45,7.28,10.79,14.64,16.18,22L209,186.46l.5-.17V164.23c0-2.54,0-5.09,0-7.63.05-4.32,2.77-7.29,6.63-7.28s6.56,3,6.6,7.34C222.8,161.17,222.77,165.68,222.77,170.18Zm44.48,41.22a8.41,8.41,0,0,1-4.29,1.43c-8.19.13-16.39.11-24.58,0-4.12,0-6.74-2.69-6.75-6.83q-.06-24.95,0-49.9a6.45,6.45,0,0,1,6.79-6.82q12.29-.08,24.58,0a6.62,6.62,0,1,1,0,13.24c-6,.07-11.93,0-18,0v11.86c6,0,11.88,0,17.76,0,3.49,0,6.06,1.94,6.81,4.92a6.52,6.52,0,0,1-6.26,8.32c-5.16.12-10.33,0-15.49,0H245v11.75c.81,0,1.67.1,2.54.11,5.16,0,10.32-.06,15.48,0a6.56,6.56,0,0,1,6.42,4.48A6.31,6.31,0,0,1,267.25,211.4Z"/></svg>