<?xml version="1.0" encoding="utf-8"?>
<!-- Generator: Adobe Illustrator 25.0.0, SVG Export Plug-In . SVG Version: 6.00 Build 0)  -->
<svg version="1.1" id="圖層_1" xmlns="http://www.w3.org/2000/svg" xmlns:xlink="http://www.w3.org/1999/xlink" x="0px" y="0px"
	 viewBox="0 0 374.54 374.65" style="enable-background:new 0 0 374.54 374.65;" xml:space="preserve">
<style type="text/css">
	.st0{fill:#FFFFFF;}
</style>
<g>
	<path class="st0" d="M216.16,149.32c-3.86-0.01-6.58,2.96-6.63,7.28c-0.03,2.54-0.01,5.08-0.01,7.62c0,7.35,0,14.71,0,22.06
		c-0.17,0.06-0.34,0.11-0.51,0.17c-2.96-4.02-5.91-8.04-8.87-12.07c-5.39-7.33-10.72-14.69-16.18-21.97
		c-3.41-4.55-9.46-3.98-11.46,1c-0.35,0.89-0.5,1.91-0.5,2.87c-0.03,16.56-0.02,33.11-0.02,49.67c0,0.41,0.04,0.82,0.09,1.23
		c0.41,3.27,3.07,5.65,6.36,5.68c3.94,0.04,6.62-2.76,6.65-7.2c0.06-9.02,0.02-18.03,0.02-27.05c0-0.82,0-1.64,0-2.47
		c1.11,0.63,1.67,1.33,2.19,2.05c7.55,10.31,15.09,20.63,22.64,30.94c2.46,3.36,5.02,4.45,8.15,3.49c3.08-0.95,4.67-3.57,4.67-7.78
		c0.01-11.56,0-23.11,0-34.67c0-4.51,0.03-9.02-0.01-13.52C222.72,152.34,219.98,149.33,216.16,149.32z"/>
	<path class="st0" d="M162.47,179.69c-0.01-7.95,0.05-15.9-0.06-23.85c-0.05-3.47-2.43-6.04-5.6-6.47c-3-0.41-6.05,1.32-7,4.22
		c-0.4,1.21-0.46,2.58-0.46,3.87c-0.03,15.74-0.02,31.48-0.02,47.21c0,0.82,0.01,1.64,0.11,2.45c0.4,3.4,3.13,5.79,6.53,5.76
		c3.81-0.04,6.45-2.83,6.48-7.12c0.06-8.2,0.02-16.39,0.02-24.59C162.47,180.68,162.47,180.18,162.47,179.69z"/>
	<path class="st0" d="M138.05,199.91c-1.19-0.25-2.44-0.27-3.66-0.27c-5.31-0.03-10.61-0.01-16.23-0.01c0-9.44,0-18.44,0-27.44
		c0-5.49,0.06-10.97-0.06-16.46c-0.08-3.62-2.76-6.24-6.18-6.4c-3.53-0.16-6.39,2.32-6.84,5.99c-0.11,0.89-0.11,1.8-0.11,2.7
		c-0.01,15.39-0.01,30.79,0,46.18c0,1.14,0.03,2.3,0.22,3.42c0.51,2.86,2.84,5.15,5.73,5.19c8.76,0.11,17.52,0.12,26.28,0
		c3.28-0.05,5.77-2.82,5.95-6.07C143.33,203.4,141.28,200.58,138.05,199.91z"/>
	<path class="st0" d="M263,199.66c-5.16-0.11-10.32-0.03-15.49-0.05c-0.86,0-1.72-0.07-2.54-0.11c0-4.04,0-7.78,0-11.75
		c1.03,0,1.92,0,2.8,0c5.16-0.01,10.33,0.08,15.48-0.05c4.45-0.1,7.34-4.06,6.26-8.32c-0.75-2.98-3.32-4.9-6.81-4.92
		c-5.88-0.05-11.75-0.01-17.77-0.01c0-3.99,0-7.73,0-11.87c6.12,0,12.08,0.05,18.04-0.02c3.95-0.05,6.77-2.9,6.77-6.63
		c0-3.71-2.86-6.59-6.78-6.61c-8.19-0.05-16.39-0.05-24.58,0c-4.06,0.03-6.77,2.73-6.78,6.82c-0.04,16.63-0.04,33.27,0,49.9
		c0.01,4.14,2.63,6.79,6.75,6.83c8.19,0.07,16.39,0.09,24.58-0.05c1.45-0.02,3.07-0.62,4.29-1.43c2.31-1.55,3.05-4.6,2.17-7.26
		C268.54,201.49,266.21,199.73,263,199.66z"/>
	<path class="st0" d="M186,3C83.28,3,0,86.28,0,189s83.28,186,186,186s186-83.28,186-186S288.72,3,186,3z M303.79,214.89
		c-5.91,13.1-15,24-25.01,34.13c-16.15,16.33-34.43,30.04-53.3,43c-12.29,8.44-24.71,16.69-38.15,23.23
		c-2.31,1.13-4.9,1.92-7.45,2.29c-3.53,0.51-5.2-1.22-5.21-4.78c0-0.81,0.15-1.63,0.24-2.44c0.73-6.58,1.61-13.15,2.14-19.74
		c0.28-3.53-1.55-6.26-4.88-7.49c-3.2-1.19-6.51-2.27-9.86-2.81c-24.51-3.92-46.82-12.88-66.08-28.76
		c-16.49-13.6-28.27-30.41-33.58-51.33c-1.24-4.89-1.79-9.95-2.66-14.93c0-4.1,0-8.2,0-12.3c0.75-4.34,1.25-8.73,2.28-13
		c5.86-24.31,20.09-42.91,39.97-57.42c19.76-14.42,42.07-22.36,66.3-25.09c24.1-2.72,47.61-0.16,70.29,8.53
		c25.01,9.59,45.95,24.59,59.91,47.87C314.35,159.83,316.36,187.03,303.79,214.89z"/>
</g>
</svg>
