<svg id="圖層_1" data-name="圖層 1" xmlns="http://www.w3.org/2000/svg" viewBox="0 0 153.9 52.06"><defs><style>.cls-1{fill:#3f6e29;}</style></defs><path class="cls-1" d="M1.3,29.63v-26a3,3,0,0,1,3-3H31.36a3,3,0,0,1,3,3v26c0,.6.28.9.91.9h.25v2.81a2.07,2.07,0,0,1-2.07,2.07H31.87q-3.54,0-3.54-3.54V5.2h-21V31.87q0,3.54-3.54,3.54H2.56a2.07,2.07,0,0,1-2-1.74L0,30.53H.4A.8.8,0,0,0,1.3,29.63ZM15,27.46H8.67V15.9a2,2,0,0,1,2-2H15V11.42H9.77A1.42,1.42,0,0,1,8.35,10V7.12H27.42V10A1.42,1.42,0,0,1,26,11.42H20.85v2.49H25a2,2,0,0,1,2,2v8q0,3.54-3.54,3.54h-2.6v3.65h1a1.08,1.08,0,0,0,.83-.32A1.12,1.12,0,0,0,23,30v-1h4.59v3.36a3.14,3.14,0,0,1-1,2.21,2.75,2.75,0,0,1-2,.79H11.11a2.7,2.7,0,0,1-2.66-2.26l-.32-2H15Zm0-9H12.68v4.37H15Zm5.89,4.37h1.23q.9,0,.9-.9V18.5H20.85Z"/><path class="cls-1" d="M50.87,6.29V7.8h-6a1.52,1.52,0,0,0-1.51-1.51H39.88V3.54a2,2,0,0,1,2-2h1.45A1.52,1.52,0,0,0,44.83,0V0h6V1.55H64.35V0h6V1.55h2.93a2,2,0,0,1,2,2V6.29H70.38V7.8h-6V6.29ZM40,30.13V27.06H54.66V24.93h-11a2.1,2.1,0,0,1-2.1-2.09h0V10.51A1.45,1.45,0,0,1,43,9.07h29.3a1.44,1.44,0,0,1,1.44,1.44V21.39q0,3.54-3.54,3.54H60.7v2.13H75.29v3.07a1.52,1.52,0,0,1-1.51,1.52H60.7v2.44a1.33,1.33,0,0,1-1.33,1.32H56a1.33,1.33,0,0,1-1.33-1.32V31.65H41.55A1.52,1.52,0,0,1,40,30.13ZM67.67,15V13.22H47.54V15ZM47.54,18.86v1.92H66.77c.6,0,.9-.28.9-.91v-1Z"/><path class="cls-1" d="M86.88,28.26v3.61q0,3.54-3.54,3.54h0a3.7,3.7,0,0,1-3.65-3.1l-.28-1.78H80a.9.9,0,0,0,.9-.9V18.06a2.27,2.27,0,0,1,2.27-2.27h30.75a1,1,0,0,1,1,1.05v2.67h-28v5.17h27a1,1,0,0,1,1,1v2.56H95.27V31c0,.6.27.91.9.91H99v3.57H92.77q-3.54,0-3.54-3.54V28.26ZM108.31,1.55h2.75a2.72,2.72,0,0,1,2.71,2.71v6.58q0,3.54-3.54,3.54H81V4.26a2.71,2.71,0,0,1,2.71-2.71h6V.14h6V1.55h3.36V.14h6V1.55Zm-18.64,5V4.84H86.45v1.7ZM86.45,9.39v1.7h3.22V9.39ZM114.06,20.7v2.57H88.76V20.7Zm-15-14.16V4.84H95.7v1.7ZM95.7,9.39v1.7h3.36V9.39ZM107.84,30a1.19,1.19,0,0,0,1-.54l.36-.21h4.59l-.94.86a6.11,6.11,0,0,1-4.45,1.59h-.29l.29.29a2,2,0,0,0,1.67.62h5v2a.89.89,0,0,1-.89.89h-8.51A4.15,4.15,0,0,1,102.1,34L98.77,29.2H106l.65.75Zm.47-23.41V4.84H105.1v1.7ZM105.1,9.39v1.7h2.31q.9,0,.9-.9v-.8Z"/><path class="cls-1" d="M120.41,31.11V3.54A2.93,2.93,0,0,1,123.34.61H151a2.93,2.93,0,0,1,2.92,2.93V31.87q0,3.54-3.54,3.54H122.58a2.17,2.17,0,0,1-2.17-2.17h0Zm13.8-21.39V8.53H128V6.25h6.25V4.91H126.3v26.2h20.81a.9.9,0,0,0,.9-.9V4.91h-7.76V6.25h6.07V8.53h-6.07V9.72h6.64v2.85H127.38V9.72Zm-6.5,16.73L126.84,23h.94a1.37,1.37,0,0,0,1.3-.76l.65-1h-1.81V13.77h18.47v3.94q0,3.54-3.58,3.54h-6.54l-1.73,2.45v2.17q0,.9.9.9h.33v3.44h-3.58q-3.54,0-3.54-3.54v-.22Zm11.89-8.06c.6,0,.9-.28.9-.9v-.87h-6.69v1.77Zm2.63,5.35a.85.85,0,0,0,.91-.69l.32-.5h3.72l-1,1.95c-.53,1-1.71,1.52-3.54,1.52h-.22l.11.32c.09.48.49.72,1.19.72H147v3.15h-6.22c-1.95,0-3.12-.74-3.5-2.21l-1.66-5.31h5.74l.33,1Z"/><path class="cls-1" d="M31.9,43.57h1.64l-.26,2.93c-.07.68-.14,1.39-.24,2.08h0c.26-.69.57-1.41.82-2.08l1.23-2.93h1.33V46.5c0,.66-.06,1.38-.1,2.08h0c.22-.7.48-1.41.68-2.08l1-2.93h1.52l-2.46,6.49h-2l.08-2.78c0-.39.06-1,.11-1.51h0c-.17.48-.38,1-.57,1.51L33.6,50.06h-2Z"/><path class="cls-1" d="M41.58,45.06h1.6l-1,5h-1.6Zm.22-1.38a.94.94,0,0,1,1-.9.78.78,0,0,1,.84.75.91.91,0,0,1-1,.89A.76.76,0,0,1,41.8,43.68Z"/><path class="cls-1" d="M45.82,45.06h1.3v.64h0a2.62,2.62,0,0,1,1.66-.76c.82,0,1.18.44,1.18,1.3a3.69,3.69,0,0,1-.08.72l-.62,3.1H47.7l.58-2.9a2.31,2.31,0,0,0,.08-.44.38.38,0,0,0-.42-.42c-.28,0-.52.18-.88.56l-.62,3.2h-1.6Z"/><path class="cls-1" d="M55.9,44.56l.28-1.45h1.6l-1.4,7h-1.3v-.62h0a2.24,2.24,0,0,1-1.5.74c-.88,0-1.4-.66-1.4-1.84,0-1.9,1.28-3.4,2.66-3.4a1.07,1.07,0,0,1,1,.56h0Zm-.74,3.66.32-1.6a.63.63,0,0,0-.54-.38c-.58,0-1.12.78-1.12,1.9,0,.52.18.74.46.74S54.88,48.76,55.16,48.22Z"/><path class="cls-1" d="M62.94,47.42a3.71,3.71,0,0,1,3.6-4,2,2,0,0,1,1.88,1.06l-1.08.84a1,1,0,0,0-.88-.52c-1,0-1.88,1.1-1.88,2.5,0,.94.36,1.5,1.28,1.5a1.08,1.08,0,0,0,.56-.16l.24-1.08h-1l.24-1.3H68.3l-.62,3.22a3.55,3.55,0,0,1-2.1.68A2.48,2.48,0,0,1,62.94,47.42Z"/><path class="cls-1" d="M71.14,45.06h1.3l0,1h0A2,2,0,0,1,74,44.94a1.06,1.06,0,0,1,.54.1L74,46.42a1.14,1.14,0,0,0-.52-.08c-.42,0-.78.26-1.16.92l-.54,2.8h-1.6Z"/><path class="cls-1" d="M75.76,48.34c0-1.9,1.28-3.4,2.66-3.4a1.17,1.17,0,0,1,1,.62h0l.22-.5H81l-1,5h-1.3v-.62h0a2.24,2.24,0,0,1-1.5.74C76.28,50.18,75.76,49.52,75.76,48.34Zm3-.12.32-1.6a.63.63,0,0,0-.54-.38c-.58,0-1.12.78-1.12,1.9,0,.52.18.74.46.74A1,1,0,0,0,78.76,48.22Z"/><path class="cls-1" d="M82.46,49.2l.92-.76a1.36,1.36,0,0,0,1,.58c.3,0,.56-.14.56-.34s-.32-.36-.84-.66a1.67,1.67,0,0,1-1-1.4,1.85,1.85,0,0,1,2-1.68,2.33,2.33,0,0,1,1.7.8l-.86.82a1.25,1.25,0,0,0-.84-.44c-.32,0-.52.16-.52.36s.42.4.8.62a1.6,1.6,0,0,1,1,1.4c0,1-.9,1.68-2.16,1.68A2.31,2.31,0,0,1,82.46,49.2Z"/><path class="cls-1" d="M88.28,49.2l.92-.76a1.36,1.36,0,0,0,1,.58c.3,0,.56-.14.56-.34s-.32-.36-.84-.66a1.67,1.67,0,0,1-1-1.4,1.85,1.85,0,0,1,2-1.68,2.33,2.33,0,0,1,1.7.8l-.86.82a1.25,1.25,0,0,0-.84-.44c-.32,0-.52.16-.52.36s.42.4.8.62a1.6,1.6,0,0,1,1,1.4c0,1-.9,1.68-2.16,1.68A2.31,2.31,0,0,1,88.28,49.2Z"/><path class="cls-1" d="M99.26,43.57h4L103,44.9h-2.38l-.26,1.34h2l-.26,1.34h-2l-.5,2.48H98Z"/><path class="cls-1" d="M104.54,48.34c0-1.9,1.28-3.4,2.66-3.4a1.17,1.17,0,0,1,1,.62h0l.22-.5h1.28l-1,5h-1.3v-.62h0a2.24,2.24,0,0,1-1.5.74C105.06,50.18,104.54,49.52,104.54,48.34Zm3-.12.32-1.6a.63.63,0,0,0-.54-.38c-.58,0-1.12.78-1.12,1.9,0,.52.18.74.46.74A1,1,0,0,0,107.54,48.22Z"/><path class="cls-1" d="M112.4,45.06h1.3l0,1h0a2,2,0,0,1,1.52-1.1,1.06,1.06,0,0,1,.54.1l-.52,1.38a1.14,1.14,0,0,0-.52-.08c-.42,0-.78.26-1.16.92l-.54,2.8h-1.6Z"/><path class="cls-1" d="M117.9,45.06h1.3v.64h0a2.61,2.61,0,0,1,1.6-.76,1,1,0,0,1,1.16.84,2.61,2.61,0,0,1,1.66-.84c.82,0,1.18.44,1.18,1.3a3.69,3.69,0,0,1-.08.72l-.62,3.1h-1.6l.58-2.9a2.31,2.31,0,0,0,.08-.44.38.38,0,0,0-.42-.42c-.2,0-.46.18-.82.56l-.64,3.2h-1.6l.58-2.9a2.31,2.31,0,0,0,.08-.44.37.37,0,0,0-.4-.42c-.22,0-.48.18-.84.56l-.62,3.2h-1.6Z"/></svg>