<svg id="圖層_1" data-name="圖層 1" xmlns="http://www.w3.org/2000/svg" viewBox="0 0 303.16 106.24"><defs><style>.cls-1{fill:#fff;}</style></defs><path class="cls-1" d="M101.38,53.46l-.49,2H101c0,.58-.11,1.16-.13,1.74a5.83,5.83,0,0,0,.15.7c0,.37,0,.74.11,1.1a2,2,0,0,0,.22.49,10.56,10.56,0,0,0-.59,1.26c-.15.46-.54,1,.22,1.35.09,0,.14.28.1.41-.37,1.45-.79,2.9-1.15,4.36-.11.46,0,1-.08,1.45s-.26.7-.34,1c0,.09.19.21.23.33a1.57,1.57,0,0,1,.09.73A16.4,16.4,0,0,1,99,72.66c-.48,1-1.06,2-1.64,3l.6.16c-.06.42.1.8-.63,1-.35.09-.59,1.07-.67,1.67s-.09,1-.66,1.29c-.33.2-.47.74-.71,1.11-.68,1-1.33,2.1-2,3.12a5.92,5.92,0,0,1-1,.94,19.37,19.37,0,0,0-1.7,1.42c-.44.46-.72,1.07-1.15,1.54A13.3,13.3,0,0,1,88,89.12c-.2.17-.54.25-.63.45-.94,2-3,3-4.28,4.68a2.24,2.24,0,0,1-1.37.62,1.2,1.2,0,0,0-1.12,1c-.12.4-.11,1.15-.94.86-.62,1.15-2,.34-2.85,1.2a4.73,4.73,0,0,1-3.25,1.58c-.26,0-.45.65-.76.84-1,.62-2.08,1.19-3.15,1.73a2,2,0,0,1-1.17.27c-1.1-.19-2,.93-3.15.42-.32-.14-.91.39-1.4.53-.82.23-1.65.39-2.48.59l-.06-.25-.37.54a5.69,5.69,0,0,0-4.08.22c-.64.31-1.41.94-2.3.39-.15-.09-.41,0-.62,0-.7-.06-1.32.39-2.13,0a2.58,2.58,0,0,0-2,.42,4.55,4.55,0,0,1-2,.55,3,3,0,0,0-1.08.28c-.44-.18-.89-.52-1.24.19-.66-.58-4.39-1.16-4.75-1a4.81,4.81,0,0,1-1.46-.22c-.74-.42-1.58.19-2.3-.32a.83.83,0,0,0-.62,0,5.75,5.75,0,0,1-3.38-.32,12.4,12.4,0,0,0-1.59-.27,1.79,1.79,0,0,0-1.72-.52,4.27,4.27,0,0,1-1.8-.51,3.9,3.9,0,0,1-.77-.48l-.91-1.21a8.38,8.38,0,0,1-1.1-1.52c-.62-1.43-2.05-1.77-3.17-2.52s-2.07-1.26-3.1-1.88c-.75-.46-1.51-.9-2.25-1.36-.26-.16-.6-.31-.7-.56-.23-.57-.67-.8-1.13-1.16a13.65,13.65,0,0,1-3.31-3.54,25.43,25.43,0,0,1-2.07-3C9,85,8.45,84.13,8,83.26A14.7,14.7,0,0,1,6.85,81C6.56,80,5.36,77,5,76.12A26.73,26.73,0,0,1,3.7,72.71c-.47-1.48-.88-3-1.28-4.48S1.55,65,1.24,63.32.7,59.78.52,58s-.08-3.45-.4-5.12c-.39-2.11.3-4.12.33-6.19a29.16,29.16,0,0,1,1-5.08,2.15,2.15,0,0,0,.1-.6,9.21,9.21,0,0,1,.91-3.6,5.68,5.68,0,0,0,.16-1.32c0-.14,0-.33,0-.44.85-1.34.73-3.09,1.85-4.34.19-.21,0-.7.16-1s.57-.75.73-1.17c.36-.91.59-1.87.94-2.78A6.89,6.89,0,0,1,7,25.18c.57-.84,1.14-1.69,1.73-2.53.26-.37,1.06-.3.87-1,1.13-.71,1.11-2.39,2.7-2.86a4.71,4.71,0,0,0,2.18-2.13A5,5,0,0,1,16.29,15a22.37,22.37,0,0,0,3-2.39c.86-.76,1.54-1.89,2.53-2.31,1.44-.61,2.07-2.33,3.84-2.46.53,0,1-.85,1.53-1.21A18.11,18.11,0,0,1,29,5.68a.44.44,0,0,0,.17-.07c1.34-1.47,3.36-1.53,5-2.36A24,24,0,0,1,37.36,2C39.07,1.37,40.8.85,42.52.3a2.42,2.42,0,0,1,.54-.07c1-.08,2-.19,3-.21a38.79,38.79,0,0,1,3.89.06c1.74.12,3.48.41,5.23.5a8.14,8.14,0,0,1,4.19,1.33.61.61,0,0,0,.34.15c2.21-.25,3.7,1.45,5.58,2.1a26.23,26.23,0,0,1,3.51,1.93c.81.44,1.66.81,2.5,1.21a61.45,61.45,0,0,1,6.29,3.14c.87.56,2,.55,2.64,1.26,1,1.08,2.5,1.66,3.22,3.1.32.63,1.12,1,1.7,1.52s1,.81,1.42,1.24a4.22,4.22,0,0,1,1.09,1.19c.6,1.36,2.22,1.72,2.77,3.22a10.53,10.53,0,0,0,3.42,4.21,2.83,2.83,0,0,1,.69,1c.43.94.83,1.89,1.21,2.85.18.45.6.66.84,1.13a17.2,17.2,0,0,1,1.13,4.46,11.21,11.21,0,0,0,.78,1.87,3.39,3.39,0,0,1,.15.45c.36,1.43.62,2.9,1.11,4.29a14.42,14.42,0,0,1,.54,5.5,17.22,17.22,0,0,0,.52,2.67,3.42,3.42,0,0,1-.16,1.45A1.19,1.19,0,0,0,101.38,53.46ZM55.74,37.92a17.43,17.43,0,0,1-2.24-3.21c-.63-1.6-2.13-2.35-3-3.67a8.66,8.66,0,0,0-3.14-2.16,3,3,0,0,1-1.54-1.72,1.19,1.19,0,0,0-2-.52c-1.45,1.09-1.84,2.51-.52,4.52a25.81,25.81,0,0,0,2,2.75,39,39,0,0,0,3.12,3.18,22.09,22.09,0,0,0,2.2,1.6c1.15.82,2.28,1.68,3.46,2.45A3.46,3.46,0,0,1,55.38,44c-.36,1.33-.81,2.63-1.19,3.95-.19.64-.29,1.3-.48,2.16l-.7-.76a8.47,8.47,0,0,0-1.52-1.63c-2-1.19-3.35-3-5-4.58a4.15,4.15,0,0,1-1.4-2.11,5.56,5.56,0,0,0-1.7-3.71,5.2,5.2,0,0,0-3.93-1.91,2.48,2.48,0,0,0-2.59,2.87,7.65,7.65,0,0,0,2.15,4.4c.9.92,1.44,2.23,2.87,2.63.67.19.68,1.28,1.1,1.54,1.59,1,2.62,2.5,4,3.62.58.46,1.26.79,1.86,1.22a10.58,10.58,0,0,1,1.48,1.17c.36.35.56.89.94,1.2a1.73,1.73,0,0,1,.59,2.09c-.71,1.73-1.35,3.5-2.13,5.2-.52,1.14-1.22,2.19-1.89,3.36a4.26,4.26,0,0,0-1.76-1.88c-.24-.12-.36-.53-.49-.83a6.28,6.28,0,0,0-.27-.87c-.85-1.3-1.71-2.6-2.6-3.88a4.73,4.73,0,0,0-1.15-1.38,3,3,0,0,1-1.48-3.49,2.87,2.87,0,0,0-.43-2.57A17,17,0,0,1,38.33,48a9.3,9.3,0,0,0-4.51-3.78,1.93,1.93,0,0,0-2.47.23,3,3,0,0,0-.59,2.79c.95,2.35,2.6,4.26,4,6.32.38.56,1,.94,1.43,1.48.86,1.1,1.63,2.25,2.47,3.37.19.25.52.4.71.65,1,1.38,1.91,2.81,3,4.16.78,1,1.68,1.9,2.56,2.83.39.42.87.76,1.25,1.19s.65.73.6,1a38.73,38.73,0,0,1-1,4.39,1.82,1.82,0,0,1-.94,1.13c-.29.1-.81-.39-1.19-.67a9,9,0,0,1-.67-.71c-.5-.51-1-1-1.52-1.5-1.19-1-1.61-2.77-3.33-3.2-.1,0-.17-.17-.26-.25-1.1-.93-2.15-1.91-3.3-2.76a13.42,13.42,0,0,1-3-3q-1.12-1.57-2.25-3.18c-.82.42-1,.79-.5,1.55a9.71,9.71,0,0,0,.64,1c.65.87,1.32,1.72,2,2.57s1.08,1.45,1.68,2.12,1.23,1.15,1.8,1.77,1,1.17,1.46,1.77A18.51,18.51,0,0,1,37.66,71a35.6,35.6,0,0,1,2.3,3.9A6.15,6.15,0,0,0,43.38,78c-.12,1.75-1.32,3-2.11,4.4a3.09,3.09,0,0,1-1,1.15A19.28,19.28,0,0,1,30,86.45a1.92,1.92,0,0,0-1.49.84,4.83,4.83,0,0,0-.06,1.9c-.15.53-.58,1.33-.39,1.53a2.82,2.82,0,0,0,1.83.87A11.19,11.19,0,0,0,33,91a22.77,22.77,0,0,0,2.94-1.22c.53-.26,1.24-.56,1.43-1,.67-1.7,2.37-2.27,3.55-3.37A8.09,8.09,0,0,0,43,82.54c.58-1.43,1.13-2.87,1.78-4.27a2,2,0,0,1,.85-.79c.43-.25.92-.38,1.37-.59.28-.12.52-.34.81-.44,1.56-.53,3.13-1.07,4.71-1.56.93-.28,1.91-.42,2.83-.73,1.79-.59,3.8-.52,5.33-1.86a1,1,0,0,1,.49-.25,4.17,4.17,0,0,0,2.35-1.48c.71-.67.48-2-.41-2.12a20.66,20.66,0,0,0-4.78,0,34.39,34.39,0,0,0-3.45,1.09C52.71,70,51,71.37,49,72.37l-1.91,1,2.16-6.25c.84,0,1.41,0,2,0A4.42,4.42,0,0,1,52.34,67a3.59,3.59,0,0,0,2.4-.48,16.56,16.56,0,0,1,1.84-.65,19,19,0,0,1,1.86-1c.6-.24,1.27-.31,1.87-.54,2.18-.84,4.37-1.66,6.52-2.59a26.91,26.91,0,0,0,3.46-1.88,2.67,2.67,0,0,0,.57-2.81,1.82,1.82,0,0,0-1.93-1.32,17.29,17.29,0,0,0-3.88.64,29.13,29.13,0,0,0-4.55,2c-1.24.66-2.91.38-3.81,1.76,0,0-.19,0-.27,0-.62.25-1.23.5-1.83.77-.8.35-1.58.73-2.49,1.15-.13-2,1.26-3.07,1.95-4.46,0,0,0-.07.05-.07.89.32,1.36-.55,2.07-.73a7.82,7.82,0,0,0,3.9-2.35,28.44,28.44,0,0,1,3.55-3.3,12.14,12.14,0,0,0,2.54-1.89c1.53-1.88,3.73-3.15,4.32-5.86a10,10,0,0,0,.25-5.15c-.3-1-.64-1.28-1.42-.55A35.39,35.39,0,0,0,66.49,41s0,.06,0,.09a7.59,7.59,0,0,1-2.71,3,19.92,19.92,0,0,0-3.25,2.36c-.59.48-1,1.2-1.58,1.68-.75.6-1.6,1.07-2.53,1.67A5.67,5.67,0,0,1,56.85,48a13.11,13.11,0,0,0,1.57-4.47c.29-1.1.2-2.34,1.55-3a2,2,0,0,0,1-1.42c.07-1.21,1-1.84,1.48-2.76s.88-1.77,1.29-2.67a14.31,14.31,0,0,1,.63-1.62c1.41-2.33,1.21-4.86,1-7.41a1,1,0,0,0-1.07-1.05c-.54,0-1.16,0-1.35.71a23.4,23.4,0,0,0-.66,2.59,5.33,5.33,0,0,1-2,3.85,11.15,11.15,0,0,0-.07-1.37,39.23,39.23,0,0,1-.91-5.61c0-2.08-1.61-2.49-2.84-3.34-.09-.06-.28,0-.41,0-.55.17-1.09.36-1.78.59-.61,2.53,1.33,4.42,2.25,6.65a1,1,0,0,1-.19-.07,28.72,28.72,0,0,0-5.75-4.15c-.27-.14-.42-.5-.66-.73a19.71,19.71,0,0,0-1.47-1.42c-.18-.16-.64-.3-.7-.23-.21.24-.46.64-.38.88a8,8,0,0,0,1.18,2.74,46.41,46.41,0,0,1,3.55,3.72c1.16,1.68,2.67,3.13,3,5.29C55.3,35.07,55.51,36.41,55.74,37.92ZM68,90.29v-.23a6.73,6.73,0,0,1-2-.65,1.05,1.05,0,0,0-1.38.24c-.39.38-.7.89-1.16,1.12-.75.37-.23,1.06-.55,1.51.21,0,.45.12.62,0a5,5,0,0,0,1.88-.9A8.71,8.71,0,0,1,68,90.29ZM21,90l-.22.2,3.43,4.15.42-.73,1,1.33.2-1.13-.22.13a3.31,3.31,0,0,0-.54-.89c-1.11-1-2.25-1.89-3.4-2.8A2.14,2.14,0,0,0,21,90ZM38.42,8.64,33,10.92C36.17,10.91,37,11,38.42,8.64Zm-26,24.47a9.67,9.67,0,0,1,.88-1.42c.74-.85.77-.82.51-1.33A3.12,3.12,0,0,0,12.42,33.11Zm-7.09,26c.36-1,1.43-2,0-3Zm6.14,5.39,1-.91a6.8,6.8,0,0,0-.31-.66,5.84,5.84,0,0,0-.39-.48c-.17.16-.46.32-.47.5A9.71,9.71,0,0,0,11.47,64.49Z"/><path class="cls-1" d="M150.55,34.86c0-1.73.2-3.56-.9-5.19a7.34,7.34,0,0,0-5.52-3.27c-1.49-.17-3-.45-4.46-.65a8.74,8.74,0,0,0-1.15,0c.09-.31.15-.53.22-.74.21-.66.61-.82,1.2-.45.42.27.82.64,1.2-.05,0-.07.23-.09.34-.09,1.17.05,2.38-.32,3.47.5.24.18.76-.06,1.13,0a6.93,6.93,0,0,1,5.48,3.22,2.74,2.74,0,0,0,.74.6c.14.11.37.19.43.33A24.57,24.57,0,0,1,154,32.12c.44,1.59.5,3.32,1.15,4.8a25.91,25.91,0,0,1,1.4,4.49,7.12,7.12,0,0,0,1,1.7,1.35,1.35,0,0,1,.21.39,13.61,13.61,0,0,0,1.75,3.57,6.57,6.57,0,0,1,.43,1.72,1.13,1.13,0,0,0,.27.4,13.75,13.75,0,0,1,2.28,4.23c.28.69.23,1.84,1.33,2.12.09,0,.11.27.18.41A15.79,15.79,0,0,0,165.55,59a11.61,11.61,0,0,1,1.25,2.8,4.77,4.77,0,0,1,0,3.27.74.74,0,0,1-.27.48,12.08,12.08,0,0,1-3,1.38c-1.12.21-2-.57-2.78-1.41-.46-.51-1.1-.86-1.59-1.35-.24-.24-.27-.66-.44-1s-.57-.87-.8-1.33a16.56,16.56,0,0,1-1.71-3.78c-.34-1.67-1.15-3.14-1.57-4.77a35.1,35.1,0,0,0-1.38-3.46,8.61,8.61,0,0,1-.33-1.42c-.14-.65-.32-1.29-.41-1.94-.13-1-.69-1.83-.86-2.86a16.53,16.53,0,0,0-.35-3.16c-.09-.27-.66-.63-.87-.56-1.81.67-3.43.07-5.15-.43a36.08,36.08,0,0,0-4.89-.77c-.31,0-.61-.13-.91-.18-1.24-.21-2.49-.37-3.71-.64-.47-.11-1.21-.42-1.26-.73-.09-.61-.73-1.43.07-1.92a4.25,4.25,0,0,1,2.07-.63c2.25,0,4.51.26,6.77.27,1.77,0,3.55-.25,5.32-.32A9.42,9.42,0,0,1,150.55,34.86Z"/><path class="cls-1" d="M148.63,68.49c-1.8.21-3.34.36-4.87.57-.85.11-1.68.32-2.52.47-.45.07-.92.09-1.38.14-.66.08-1.31.23-2,.25-.91,0-1.83,0-2.74-.06a.58.58,0,0,1-.35-.29,3.78,3.78,0,0,1,.56-3.17c.15-.15.36-.3.4-.48.34-1.61.68-3.22,1-4.84a1,1,0,0,0-.48-.73c-.68-.36-1.74-.43-2.06-1-.78-1.32-1.88-2.57-1.85-4.26a56.09,56.09,0,0,1,.2-6.36,8.59,8.59,0,0,1,1.52-3.28c.76-1.16,2.1-1.15,3.34-1.12s1.16-.14,1.33-1.18a14.88,14.88,0,0,1,1.17-3l1.1.72a3.48,3.48,0,0,1-.56.58c-1,.62-.67,1.61-.46,2.39.11.41.84.78,1.36.92.87.23,1.61.77,2.38,1,1.66.53,2.59,1.74,3.71,2.86a4,4,0,0,1,1,3.76,15.09,15.09,0,0,0-.57,2.41,1.84,1.84,0,0,1-1.26,1.45c-.2.09-.49.17-.56.33-.23.54-.45,1-1.18,1a.31.31,0,0,0-.22.16c-1.07,1.79-2.91,2.13-4.72,2.55-.19.05-.5.49-.45.59.71,1.29-.06,2.53-.09,3.79V66l8.5-2.11c.19-.62.33-1.26.57-1.85a1.27,1.27,0,0,1,.64-.67c1.16-.44,1.51-.31,1.93.9a26,26,0,0,1,.66,3,28.66,28.66,0,0,1,.72,3.28,37.12,37.12,0,0,1,0,4.22c0,.15-.41.47-.48.44-.67-.38-1.48,1.08-2-.13a15,15,0,0,1-.68-2.22C149,70.05,148.82,69.23,148.63,68.49ZM138,54.56V47.65c-1.81-.18-1.86-.21-2.32.44a7.22,7.22,0,0,0-.88,5.3Zm2.19-6.72-.2.24c.1,2,.2,4,.3,6.16,1-.5,1.91-1,2.82-1.4a1.58,1.58,0,0,0,.52-2.54A42.06,42.06,0,0,0,140.15,47.84Z"/><path class="cls-1" d="M132,22.33l1.12.25a1,1,0,0,1,.77,1.33c-.77,1.74-.6,3.59-.85,5.39-.19,1.41-.43,2.81-.65,4.21-.08.57-.14,1.14-.24,1.71-.31,1.74-.62,3.48-1,5.21-.21,1-.5,2.08-.7,3.13-.52,2.81-1,5.62-1.52,8.42-.17.91-.45,1.79-.62,2.7-.23,1.15-.39,2.31-.6,3.47-.15.85-.38,1.68-.5,2.53-.19,1.29-.23,2.61-.52,3.88-.23,1-.11,2.19-1,3.06a2.45,2.45,0,0,1-3.31.25,4.27,4.27,0,0,1-1.7-2.63c-.17-.43.23-1,.18-1.56a7.06,7.06,0,0,1,1-3.6A27.05,27.05,0,0,0,123,56.49c.19-.64.42-1.27.6-1.92s.29-1.25.44-1.88a1.65,1.65,0,0,1,.21-.6,3.61,3.61,0,0,0,.9-2.86,1.35,1.35,0,0,1,.1-.42c.53-1.61,1-3.21,1.58-4.81.06-.2.19-.44.14-.62-.2-.87.36-1.52.57-2.28.41-1.41.79-2.82,1.14-4.25.57-2.29,1.15-4.57,1.65-6.88.38-1.74.61-3.51,1-5.26C131.5,23.9,131.8,23.12,132,22.33Z"/><path class="cls-1" d="M222.71,50.69c-.65-.54-.46-2.64.48-3.42a8.06,8.06,0,0,1,1.59-1.07,2.83,2.83,0,0,1,1.14-.11l3.87-.13c1.72-.06,3.44-.11,5.16-.2,2.1-.11,4.2-.22,6.29-.39.54,0,1-.41,1.58-.48a6.61,6.61,0,0,1,2.08,0c1,.18,1.19.58,1,1.57-.14.6-.21,1.21-.32,1.87-1.87.55-3.81.25-5.73.29-1.54,0-3.09-.42-4.62.11a1.18,1.18,0,0,1-.53,0,45.12,45.12,0,0,0-7.24-.58c-.63,0-1.42-.35-1.85-.08s-.43,1.11-.48,1.71a37.9,37.9,0,0,0-.12,4,5,5,0,0,1-.05,2,9.45,9.45,0,0,0-.3,2.56c0,1,0,2.08,0,3.22a3.07,3.07,0,0,0,.79.08c3.24-.54,6.48-1.11,9.72-1.64,1-.17,2-.24,3.06-.4.24,0,.43-.36.68-.42.62-.17,1.27-.22,1.89-.38a28.8,28.8,0,0,0,3.33-.94,3.44,3.44,0,0,1,2.95.28c.49.27.76,1,1,1.59a5.55,5.55,0,0,1,.27,1.37.44.44,0,0,1-.08.29,3.45,3.45,0,0,1-3.61,1.87,28.63,28.63,0,0,0-3.82,0,4.36,4.36,0,0,1-1.54-.07c-1.31-.52-2.39.25-3.61.41l5.81,4.1a17.72,17.72,0,0,1,1.65-2.09,1.91,1.91,0,0,1,3.28.69,2.8,2.8,0,0,1-.18,1.35,4,4,0,0,1-1.27,2,3.38,3.38,0,0,0-.64,1.07,13.66,13.66,0,0,1,.8,1.14,5,5,0,0,0,1.62,1.78,3.18,3.18,0,0,1,.91,4.43c-.31.48-1.73.37-2.46-.09a2.6,2.6,0,0,0-.75-.21c-.15,0-.37,0-.43-.09-.51-.74-1-1.47-1.47-2.24s-.73-1.51-1.05-2.19a21.48,21.48,0,0,1-3.76,1.85c-1.16.32-2.43.33-3.64.63a6.51,6.51,0,0,1-2.52-.08,6.64,6.64,0,0,1-2.09-.67,9.92,9.92,0,0,1-2.72-1.44,6.92,6.92,0,0,1-2.22-3.89c-.07-.39-.5-.77-.35-1.3,0-.06-.19-.19-.3-.29-.1.13-.31.3-.28.38a2.5,2.5,0,0,1-.38,2.15,15.91,15.91,0,0,1-1.52,1.91l-.2-1.06c-.36.26-.68.69-1,.68a2.48,2.48,0,0,1-1.47-.52,1.73,1.73,0,0,1-.46-2c.14-.38,0-.85.19-1.23.28-.78.65-1.53,1-2.28a22.07,22.07,0,0,0,2-7.33c.11-1.33,0-2.68.18-4S222.41,52.18,222.71,50.69ZM239.26,70a2.79,2.79,0,0,0-.31-.39c-.14-.12-.35-.18-.45-.32-1.25-1.74-3.07-2.83-4.72-4.11-.49-.39-1.18-.57-1.16-1.39,0-.09-.26-.27-.4-.27-1.44,0-2.87.06-4.31.06a17.93,17.93,0,0,1-2.2-.15c-.87-.1-1.48.35-1.26,1.19.41,1.6,1,3.15,1.53,4.72.77,2.38,2.73,3.11,4.91,3.5a5.79,5.79,0,0,0,2.27.05c1.29-.31,2.5-1,3.79-1.2S238.59,70.71,239.26,70Z"/><path class="cls-1" d="M229.37,20.55c1.49-.05,3.13-.15,4.76-.17,1,0,1.93.13,2.89.12.26,0,.54-.27.77-.47s.09-.4.21-.5c.42-.33.88-.6,1.33-.9.17.41.51.85.47,1.25-.11,1.16.95,1.05,1.49,1.45.82.61,1.9.91,2.67,1.58s1.78,1.1,2,2.26c.15.66.66,1.28.7,1.94a37.54,37.54,0,0,1,.13,5.9c-.11,1.27-.9,2.47-1.18,3.74a5.1,5.1,0,0,1-2.22,3,7,7,0,0,1-1.73,1,12.93,12.93,0,0,1-5.73,1c-.21,0-.4-.15-.61-.18a2.28,2.28,0,0,0-1-.1,4.27,4.27,0,0,1-3.29.08c-.37-.16-.88,0-1.31,0a6.64,6.64,0,0,1-5.24-2.71,1.36,1.36,0,0,0-.68-.46c-1.57-.55-2.13-1.89-2.53-3.29a10.86,10.86,0,0,1,1.06-8.19,16.53,16.53,0,0,0,1.16-3.25A2,2,0,0,1,225.79,22a1.32,1.32,0,0,0,1.58-1.23s0-.06,0-.09c.19-.52-.17-1.48.8-1.35C228.61,19.41,229,20.11,229.37,20.55ZM229.22,25c0,.43,0,.52,0,.61a13.26,13.26,0,0,1,.23,5.36,1.39,1.39,0,0,0,1.18,1.49c1.05-.09,2.11-.21,3.17-.31a17.51,17.51,0,0,1,2.49-.19c1.06.06,1.28,0,1.34-1.09a30.48,30.48,0,0,0,.07-4.48c-.07-.7.19-1.86-.91-2.1a7.55,7.55,0,0,0-2.51-.07C232.59,24.38,230.91,24.69,229.22,25Zm.65,9.2c0,.41,0,.84,0,1.26a22.42,22.42,0,0,0,.29,2.45c.09.44.39.55,1,.48,1.19-.14,2.41.08,3.61,0,.68-.06,1.8-.27,1.93-.67a15.43,15.43,0,0,0,.34-3.51Zm10.25-9.25c-.1.85-.12,1.71-.3,2.54a6.75,6.75,0,0,0-.15,2.9c.28,1.34.2,1.35,1.6,1.24a2.72,2.72,0,0,1,.63.08c1,.14,1.38-.18,1.33-1.16,0-.67-.06-1.35-.06-2A3.52,3.52,0,0,0,240.12,24.91Zm-12.93.9a7,7,0,0,1-1.64,1.08c-.49.14-.52.33-.58.74a11.18,11.18,0,0,1-.45,1.57c.9,1-.4,2.53.64,3.63.35-1.42,1.3-.41,2.06-.5C227.21,30.17,227.92,28,227.19,25.81Zm.17,12.08c-.42-1.57.59-2.93,0-4.11l-2.16.19C225.66,35.36,225.48,37,227.36,37.89Zm12.27-.59c1.26-.65,2.83-1,2.6-3a19.44,19.44,0,0,1-2.12.13c-.68,0-.79.28-.73.83S239.54,36.56,239.63,37.3Z"/><path class="cls-1" d="M240.83,54.81c-.83-.18-1.66-.4-2.5-.52a6.28,6.28,0,0,0-1.5,0l-5.14.45a.86.86,0,0,1-.28,0c-1.69-.75-3.38-.1-5.08,0a2.15,2.15,0,0,1-.72-.28c.13-.22.21-.55.41-.63.54-.24,1.06-.69,1.73-.33a.31.31,0,0,0,.26,0c1.87-1.15,4-1,6.06-1.15a13.45,13.45,0,0,1,4.38.06c1.27.32,2.75-.15,4.13-.27a1.89,1.89,0,0,1,1.93,1.7A1.26,1.26,0,0,1,243,55.06l-2.12-.47Z"/><path class="cls-1" d="M302,48.41c.27,1.55.55,3.1.82,4.65,0,.26,0,.54,0,.79a21.67,21.67,0,0,1,.39,2.75,22.49,22.49,0,0,1-.3,2.82c-.1.93-.11,1.89-.3,2.8A29.17,29.17,0,0,1,301.5,66a5.66,5.66,0,0,1-1,1.32,1.19,1.19,0,0,0-.13.25c-.85,1.9-2.5,3.15-3.81,4.67a2.18,2.18,0,0,1-.49.42,32,32,0,0,1-3.33,1.86c-1.31.55-2.71.87-4.07,1.29l-.61.17a52.8,52.8,0,0,1-6.2,1.81,22.92,22.92,0,0,1-6.19.18,28,28,0,0,1-5.13-1.44c-1-.32-2.1-.61-3.1-1a5.38,5.38,0,0,1-2.31-1.78,3.48,3.48,0,0,0-2.41-1.63,1.22,1.22,0,0,1-.87-.52c-.61-1.37-1.48-2.63-1.29-4.3a14.07,14.07,0,0,0-.45-3c-.05-.44.17-.91.11-1.35a27.42,27.42,0,0,1,.45-7.93c.24-1.36.36-2.75.59-4.11.12-.72.4-1.42.55-2.13.26-1.17.42-2.37.71-3.53s.65-2.26,1-3.37c.67-1.9,1.42-3.77,2.06-5.68.41-1.21.64-2.48,1-3.68a42.21,42.21,0,0,1,1.63-4.27,20.67,20.67,0,0,1,2-3.37c.36-.49,1.08-.7,1.59-1.1a12.49,12.49,0,0,1,5-2.4,6.12,6.12,0,0,1,2.7-.33c.78.14,1.64-.22,2.45-.13,1.57.17,3.2.14,4.59,1.2a28.29,28.29,0,0,0,2.62,1.38A42.45,42.45,0,0,1,292.92,26a11.47,11.47,0,0,1,1.57,1.81c.72.85,1.48,1.68,2.16,2.57a4.94,4.94,0,0,1,.76,1.5c.41,1.35.71,2.73,1.12,4.08a51.85,51.85,0,0,1,1.77,6.17,33.87,33.87,0,0,0,1.22,4.11l.63,2.15Zm-14.35,22,5-2.24a.3.3,0,0,0,.14-.11c.54-.73,1.11-1.43,1.6-2.19a11.44,11.44,0,0,1,1.43-2.42,2.86,2.86,0,0,0,1-3,2.91,2.91,0,0,1,.26-1.72,4.15,4.15,0,0,0,.25-2.66c-.15-1-.39-2-.5-3.07-.09-.73,0-1.47-.05-2.21,0-.22-.19-.44-.23-.66-.15-1-.24-1.9-.43-2.83a15.05,15.05,0,0,1-.7-3c0-1.54-.72-2.85-.95-4.31s-.71-2.83-1-4.25a8.63,8.63,0,0,1,0-1.35,1.41,1.41,0,0,0-.24-.45c-.49-.76-1-1.5-1.47-2.27s-.68-1.41-1.13-2a18.12,18.12,0,0,0-2.61-2.57,9.21,9.21,0,0,0-5.47-2.46,20.36,20.36,0,0,0-3.49.06,8.77,8.77,0,0,0-3,.38,11.86,11.86,0,0,0-3.19,2.32,14.28,14.28,0,0,0-3.2,5.79,12.62,12.62,0,0,0-.68,1.57c-.44,2.38-.81,4.79-1.21,7.18-.25,1.49-.53,3-.75,4.45-.11.73-.1,1.47-.2,2.2s-.31,1.14-.36,1.72c-.16,1.93-.26,3.88-.4,5.82-.17,2.35-.35,4.71-.53,7.06l.26.07c.14-.22.28-.45.43-.67a6.36,6.36,0,0,1,1.38-1.87,2.12,2.12,0,0,0,1-1.14c.3-1.23,1.61-1.88,1.71-3.19,0-.1.24-.17.35-.28.49-.52,1.48-.34,1.72-1.23a2.31,2.31,0,0,1,.53,0c-.28.85-.78,1.52-.39,2.49.3.71-.05,1.67.08,2.49a26.36,26.36,0,0,0,.83,3.62,2.66,2.66,0,0,0,2.86,2.07,15.3,15.3,0,0,0,3-.45c1.21-.29,1.41-1.24.8-2.31A24.5,24.5,0,0,1,278.2,59c-.13-.35.21-1,.52-1.31a1.07,1.07,0,0,1,1.06.09,14.07,14.07,0,0,1,1.06,1.81c.45.75.93,1.48,1.54,2.44,1.15-1.67,2.13-3.11,3.05-4.46l2.16.41a4.26,4.26,0,0,0,.22,1.36,2.71,2.71,0,0,1-.56,3,13.61,13.61,0,0,1-1.65,2.22c-.91.8-.91.91-.15,1.91S287.48,68.5,287.6,70.38Zm-16-13.23-.49,0a31.58,31.58,0,0,1-1.39,3.07,11.22,11.22,0,0,0-1.47,4,2.18,2.18,0,0,1-1.06,1.49c-.37.14-1-.43-1.55-.7-.13-.07-.21-.24-.32-.37-.63,1,0,1.84.4,2.63a4.48,4.48,0,0,0,1.42,2c1.22.69,2.13,1.76,3.67,2.12,2.65.62,5.18,1.55,8,1.43a18.7,18.7,0,0,0,6.61-1.49c-2-.55-2.05-2.45-3-3.5-.81.33-1.47.59-2.12.87a7,7,0,0,1-6.28-.36c-.74-.4-1.08-1.48-1.78-2a3.68,3.68,0,0,1-1.2-3.17,35.87,35.87,0,0,1,.52-4.46A13.26,13.26,0,0,0,271.59,57.15Z"/><path class="cls-1" d="M281.2,29.48c.06.53.11,1,.19,1.74a14.8,14.8,0,0,0,2.66-.36c1-.33,1.94-.58,2.89.47a4.89,4.89,0,0,0,0,.68c.13,1.22-.52,1.69-1.71,1.5a9.43,9.43,0,0,0-2.41.18c-.36,0-.72.08-1.24.14-.08,1.44-.17,2.91-.27,4.63a17.67,17.67,0,0,1,2.57-.47,16.36,16.36,0,0,1,3,.19c.15,0,.26.63.32,1a3.4,3.4,0,0,1,0,1.27c-.33,1.28-1.5,1.52-2.54,1.64a38.24,38.24,0,0,1-3.86,0c-1.66,0-3.32.16-5,.16-.88,0-1.76-.22-2.64-.29-1.09-.08-2.18-.07-3.26-.2a1,1,0,0,1-.72-.71,1.08,1.08,0,0,1,.58-.87c1-.22,2.11-.31,3.17-.43.33,0,.68,0,1-.08,1.39-.16,2.78-.32,4.17-.53a.93.93,0,0,0,.62-.5c.3-1.48.53-3,.78-4.41a1.48,1.48,0,0,0-1.69-.35,16.46,16.46,0,0,1-2.79.49c-.24,0-.77-.37-.74-.49.08-.47.25-1.22.55-1.3,1.33-.37,2.71-.55,4.07-.81.5-.09.81-.28.88-.87S279.91,29.3,281.2,29.48Z"/><path class="cls-1" d="M275.22,53.94a6.71,6.71,0,0,1-1.5-.1c-.32-.1-.55-.58-.86-.63-1.55-.28-1.85-1.63-2.52-2.7a2.2,2.2,0,0,0-1.31-.74c-.56-.13-1.44,0-1.42-.67a4.81,4.81,0,0,1,.86-2.23c.17-.27.75-.29,1.15-.42a2,2,0,0,0,.68-.25,5.32,5.32,0,0,1,3.05-1.11,1,1,0,0,0,.34-.05,15.29,15.29,0,0,1,5-1.27,7.63,7.63,0,0,1,3.58.48A5.91,5.91,0,0,1,285.9,48c.66,1.62.55,3.17-.79,4.19a10.45,10.45,0,0,1-4.92,2.17,31.23,31.23,0,0,1-3.48.31C276.1,54.63,275.37,54.56,275.22,53.94Zm-4.25-4c.45.7.85,1.37,1.31,2a1.45,1.45,0,0,0,.76.46c.6.14,1.22.21,1.83.3.2,0,.45.14.59.05a2.89,2.89,0,0,1,2.9.19,3,3,0,0,1,.7-.63c.86-.39,1.8-.65,2.62-1.11.55-.32,1.3-.87,1.34-1.37a2.32,2.32,0,0,0-.93-1.8,6.7,6.7,0,0,0-5.86-.42c-1.29.4-2.52,1-3.82,1.34C271.7,49.12,271.12,49.27,271,49.94Z"/><path class="cls-1" d="M180.36,35.33c1.74,0,3.66,0,5.57,0,1.74,0,3.48.07,5.22.13s3.76.11,5.63.26a6.91,6.91,0,0,1,2,.64,6.34,6.34,0,0,1,1.32.83c1.71,1.32,2.53,3.28,3.37,5.16a5.55,5.55,0,0,1,.08,2.87,5.43,5.43,0,0,1-.88,1.68c-.41.73-.8,1.48-1.27,2.16a1,1,0,0,1-.79.39c-1.26-.36-2.38.38-3.6.36-2.19,0-4.37.07-6.56.14-.83,0-1.66.18-2.49.15-1.47-.06-2.94-.2-4.41-.32a5,5,0,0,0-1.41-.17,2.74,2.74,0,0,1-2.29-.83,2.84,2.84,0,0,1-1.52-2.54,29.26,29.26,0,0,0-.54-3.4,36.14,36.14,0,0,1-.06-5,3.71,3.71,0,0,1,.9-2C179,35.54,179.64,35.54,180.36,35.33Zm-.47,8.24c-.12.9.59,2.68,1.52,2.87a12.29,12.29,0,0,0,2.78.23c.91,0,1.82-.21,2.73-.28,1.53-.11,3.06-.14,4.57-.28,2.18-.21,4.34-.53,6.51-.73.86-.08,2-1.1,1.71-1.88a13.26,13.26,0,0,0-1.53-2.94,3.11,3.11,0,0,0-2.88-1.11c-1.53,0-3.06-.1-4.6-.14-.48,0-1,.1-1.45.08-1.08,0-2.17-.21-3.24-.15-2,.12-4,.36-6,.57-.93.11-1.21.76-.79,1.62a6.09,6.09,0,0,1,.18.89C179.55,42.74,179.73,43.15,179.89,43.57Z"/><path class="cls-1" d="M182,34.22c-.73-1.07-.39-2.14-.23-3.29.28-2,.24-4,.33-6a30.15,30.15,0,0,0-4-.34,36.54,36.54,0,0,0-4.39.63c-.43.07-1,.49-1.14-.16a2.45,2.45,0,0,1,.56-1.6c.14-.2.73-.07,1.25-.09.38-.69,1.3-.6,2.06-.71,1.72-.26,3.45-.38,5.18-.56.14,0,.28-.06.46-.1-.11-1.34-.25-2.64-.33-3.93,0-.52,1.21-1.88,1.68-1.86.19,0,.37.25.53.37l-1.5,1.73c1.11.48.75,1.6.86,2.51s.25,1.18,1.27,1.07a43.49,43.49,0,0,0,5.37-.64c1.11-.26,2.22-.1,3.29-.41a7.83,7.83,0,0,0,1-.45,2.62,2.62,0,0,1,1.11-3.55,7.41,7.41,0,0,1,.75,1.59,10.25,10.25,0,0,1,0,2c.73-.14,1.27-.28,1.83-.36,1-.14,2.06-.22,3.08-.37,1.55-.22,3.1-.53,4.66-.69.46,0,1,.32,1.37.46,0,.59.05,1.09.09,1.59.24,2.8-2.52,3.93-4.76,3.84-.88,0-1.77,0-2.65,0s-1.79-.08-2.87-.13c.16.91.25,1.75.46,2.55a4.28,4.28,0,0,1-.55,3.66c-.31.46-.48.91-1.17.93a1.43,1.43,0,0,1-1.41-.84,3.45,3.45,0,0,1-.32-1.39c-.1-1.58-.16-3.16-.24-4.86h-7c-.65,0-1.29-.1-1.94-.11s-.91.29-.85,1c.11,1.09,0,2.19.14,3.27s.42,2.25.62,3.39a1.52,1.52,0,0,1-1.49,1.77C182.73,34.12,182.34,34.18,182,34.22Z"/><path class="cls-1" d="M181.44,57.27c.41-1.29,1.41-1.54,2.28-.74a20.14,20.14,0,0,1,6.45-.28c0-1.28,0-2.51,0-3.74a2.41,2.41,0,0,1,1.42-1.87c.51-.14.8.39.66,1.1a7.92,7.92,0,0,0,.45,4.17.64.64,0,0,0,.52.27q3.87-.2,7.74-.44a2.23,2.23,0,0,0,.88-.25,2.81,2.81,0,0,1,2.88.27c.8.44.26,1.25,0,1.74-.88,1.9-1.16,2-3.4,1.31a2.89,2.89,0,0,0-.72-.07l-7.74-.27c.09.53.17,1,.25,1.41a12.55,12.55,0,0,1-.58,5.72c-.41,1.34-.59,2.85-1.74,3.92-.29.27-.2.9-.4,1.31-.29.63-.87,1.18-1,1.82-.17,1-1.69,1.24-1.37,2.52,0,.18-.45.69-.76.75-.9.18-1.84.18-2.75.3a1.1,1.1,0,0,1-1.36-1,10.59,10.59,0,0,0-.13-1.89c-.42-1.13.24-1.87.74-2.67.37-.58.94-1,1.33-1.6a30.66,30.66,0,0,1,2-3.17A13.61,13.61,0,0,0,189,63.3a9.76,9.76,0,0,0,.94-5c-1.16-.32-2.29-.85-3.56-.3a1,1,0,0,1-.62,0,5.82,5.82,0,0,0-3.07-.26c-.35.09-.81-.31-1.23-.48Z"/><path class="cls-1" d="M181.42,57.24c-.74.14-1.49.31-2.24.38-.14,0-.46-.4-.44-.58a.91.91,0,0,1,.5-.64,1.88,1.88,0,0,1,2.2.86Z"/><path class="cls-1" d="M182.93,44.3c-.14-1.36.21-1.63,1.43-1.47a12.08,12.08,0,0,0,2.08-.06c1.59-.05,3.17-.07,4.75-.17,1.31-.08,2.62-.26,3.93-.39,1-.1,1.3.08,1.41.93l.4-.35c.24-.19.61-.6.72-.54a2.72,2.72,0,0,1,1,.93.93.93,0,0,1-.2.89,5,5,0,0,1-1.46.29c-.32,0-.64,0-1,0-1.41,0-2.81-.06-4.22-.07a29,29,0,0,1-4.17-.07c-1.07-.17-2.17.35-3.24-.25C184.12,43.76,183.48,44.15,182.93,44.3Z"/><path class="cls-1" d="M181.64,44.29l-.93-1.18,1.43-.27L182,44.22Z"/><path class="cls-1" d="M162.43,94.21c-.57,0-.73.46-.94.94-.43,1-2.25,1.11-3.18.45-1.54-1.1-1.8-2.76-2.11-4.37a27.85,27.85,0,0,1-.32-4.09,3.24,3.24,0,0,1,.38-1.06c.66.32.64.68.53,1.19a3.48,3.48,0,0,0,.16,1.38,19.38,19.38,0,0,0,.63,2.38,16.31,16.31,0,0,0,1.09,2.27c.22.4.64.33.83-.09a9.22,9.22,0,0,0,.9-3.73,10.58,10.58,0,0,1,.21-1.21,7.62,7.62,0,0,1,.08-1,5.49,5.49,0,0,1,.54-1.12c.22-.37,1.69-1,2-.77a2.19,2.19,0,0,1,.82,1,22.19,22.19,0,0,1,.38,2.33,1.49,1.49,0,0,0,.25.61c-.17-1.08.61-1.77,1-2.6s.94-.75,1.35,0a3.8,3.8,0,0,1,.33,1.22,12,12,0,0,1,.27,2.15c0,1.18-.25,2.36-.2,3.53a2.19,2.19,0,0,1-.84,1.76c-.25.25,0,.76-.52.85-.25,0-.49.12-.74.15a2.93,2.93,0,0,1-2.73-1.61A3.4,3.4,0,0,1,162.43,94.21Z"/><path class="cls-1" d="M184.08,90.76a3.94,3.94,0,0,0-.08-.67,4.8,4.8,0,0,1-.2-2.68,1.23,1.23,0,0,1,1.26-.84,3.7,3.7,0,0,1,1,.05,2.25,2.25,0,0,1,1.1,2.58,11.23,11.23,0,0,0,0,1.64c0,.74-.1,1.47-.06,2.2.06,1-.55,2.17.35,3.14a1.45,1.45,0,0,1,.27.69c.11.51-.1.64-.6.62-.85,0-1-.63-1.21-1.24-.23-.76-.27-.77-.9-.28a3.92,3.92,0,0,1-3.79.7,2.45,2.45,0,0,1-1.35-1.76,3.66,3.66,0,0,1,.49-3.25,2.29,2.29,0,0,1,2-1ZM183,92.36c-1,0-1.22.15-1.07,1,0,.2.24.52.36.52a1.79,1.79,0,0,0,.75-.31,3.48,3.48,0,0,0,.66-.48c.13-.11.34-.34.31-.4a1,1,0,0,0-.48-.44A1.28,1.28,0,0,0,183,92.36Z"/><path class="cls-1" d="M253.57,94.83c.05-.55.11-1.09.16-1.64a1.46,1.46,0,0,1,1.15-1.43c.4-.13.78-.32,1.18-.49a.94.94,0,0,1,1.34.71,2.18,2.18,0,0,1-.83,2.18,1.39,1.39,0,0,0-.56,1.15,1.36,1.36,0,0,1-.56,1.42c-.19.11-.1.63-.49.53a3.77,3.77,0,0,1-1-.5c-.16-.09-.31-.21-.46-.31l-.2.51a3.9,3.9,0,0,0-.69.19c-.92.45-1.42.3-1.91-.6a2.27,2.27,0,0,0-.41-.47c-.13.16-.24.34-.38.48a1.45,1.45,0,0,1-.57.4,8,8,0,0,1-1.81.3,4.1,4.1,0,0,1-2.29-1.12c-.56-.41-.45-1.89,0-2.62A4.2,4.2,0,0,1,247.37,92c.13-.06.31-.08.39-.18.33-.37.61-.25.91.13.55-.88,1.49-.53,2.24-.75.2-.06.61.35.82.62a17.84,17.84,0,0,1,1.35,2,4.24,4.24,0,0,1,.3,1Zm-6.12-2a6.15,6.15,0,0,1-.53.84.69.69,0,0,0,.38,1.21c.69.18.95-.44,1.34-.74.21-.17.23-.68.19-1,0-.13-.42-.27-.66-.3s-.3.2-.48.32Z"/><path class="cls-1" d="M267.05,96.92l-.45-.35c-.53.49-.55.48-.79-.17s-.48-1.31-.77-1.94a.9.9,0,0,0-.56-.51c-.18,0-.44.24-.59.43a1.7,1.7,0,0,0-.27.63,1.71,1.71,0,0,1-1.45,1.26,1,1,0,0,1-1.21-1c0-.42.07-.86.08-1.29a2.93,2.93,0,0,0-.13-.57c-.14.11-.34.21-.4.35a16.77,16.77,0,0,0-.69,1.91c-.12.44-.21.92-.73,1a1,1,0,0,1-1.2-.89,5.34,5.34,0,0,1,.88-4,1.54,1.54,0,0,1,.83-.46,2.57,2.57,0,0,1,2.17,0c.57.39,1.1.14,1.62.1A8.25,8.25,0,0,0,264.9,91c.41-.12.64,0,.93.38a12.35,12.35,0,0,1,1.9,2.89,2.58,2.58,0,0,1,0,2.19C267.64,96.69,267.28,96.78,267.05,96.92Z"/><path class="cls-1" d="M201.51,93.11c-.52-.07-1.08-.11-1.63-.22-.1,0-.21-.3-.23-.46a1.78,1.78,0,0,1,2-1.77c.27,0,.58-.09.84,0a1.74,1.74,0,0,1,1.41,1.09c.06.16.35.22.51.35a1.75,1.75,0,0,1,.86,1.61A4.19,4.19,0,0,1,204,96.3c-.71.71-1.65.64-2.46,1h-.06c-.83-.28-1.75,0-2.58-.53a3.32,3.32,0,0,1-1.3-1.12,3.85,3.85,0,0,1-.68-3c.3-1,.54-2,.85-3,.07-.21.34-.36.51-.55.38-.42.74-.86,1.13-1.26s.66-.48,1-.07c.22.24,0,1-.41,1.11a1.85,1.85,0,0,0-1.29,2c0,.6-.21,1.19-.29,1.79a1.83,1.83,0,0,0,1.15,1.92,3.45,3.45,0,0,0,2.88-.14c.19-.06.36-.59.3-.86s-.42-.39-.68-.51S201.74,93.09,201.51,93.11Z"/><path class="cls-1" d="M213.45,91.88a.9.9,0,0,1,.8-.92.36.36,0,0,0,.22-.08,1.49,1.49,0,0,1,1.92-.44,4.27,4.27,0,0,1,1.35,1.27,2.66,2.66,0,0,1,.67,1.41c0,.31.54.54.8.83a2.37,2.37,0,0,1,.18,2.59s-.07.12-.12.15a4.51,4.51,0,0,1-1.17.52,3.21,3.21,0,0,1-1.08-.15,2.86,2.86,0,0,0-.09-.9c-.32-.61-.56-.65-1-.12a4.09,4.09,0,0,1-2.78,1.21,2.11,2.11,0,0,1-2.1-2,4,4,0,0,1,.94-2.61c.13-.21.3-.41.41-.63C212.64,91.55,213,91.5,213.45,91.88Zm-1.08,2.31c.07.66.42.91,1,.68l.46-.22a1.32,1.32,0,0,0,.48-2.34c-.19-.17-.67-.45-.95.06Z"/><path class="cls-1" d="M244.39,92.78c-.29.15-.55.4-.84.42a6.36,6.36,0,0,1-1.63-.1,1.24,1.24,0,0,0-.87,0c-.26.12-.64,0-1.05-.07,0,.27,0,.59.11.77a3,3,0,0,1,.48,1.58c.13.83-.14,1.29-1,1.46-1.22.27-1.41.17-1.52-1.08-.07-.87,0-1.76,0-2.64,0-.51-.11-1-.1-1.55a26.35,26.35,0,0,1,.15-2.66,1,1,0,0,1,.91-.81c1-.12,2-.22,3-.36.4-.06.79-.25,1.19-.29a3.6,3.6,0,0,1,1.27,0c.55.13.47.64.4,1s-.06.72-.65.72c-1.34,0-2.67.15-4,.22-.81,0-.92.17-.78,1,.19,1.17.19,1.17,1.39,1.07.94-.08,1.88-.16,2.82-.22.15,0,.4.08.44.18a4.49,4.49,0,0,1,.18.9A4.12,4.12,0,0,1,244.39,92.78Z"/><path class="cls-1" d="M225.89,96c.07-.27.06-.61.22-.8a2.43,2.43,0,0,0,.34-2.42,2.63,2.63,0,0,1,.23-1.85,3,3,0,0,1,1.33-1.7,1,1,0,0,1,1.27.08c.37.34.16.83-.43,1.2-.29.19-.37,1-.17,1.48a7.7,7.7,0,0,1,.67,1.9,3.37,3.37,0,0,1-.07,2.26,8.21,8.21,0,0,1-.85,1c-.09.1-.16.22-.26.32s-.25.3-.39.32A1.54,1.54,0,0,1,226,96.29c0-.08,0-.16,0-.25Z"/><path class="cls-1" d="M173.09,93.65c.06-1,.09-2,1.21-2.6a4.87,4.87,0,0,1,1.57-.85,1.49,1.49,0,0,1,1.3.23c.42.36,1.1.57,1.31,1a9.89,9.89,0,0,1,.75,2.68c.05.34-.25.75-.42,1.12a.41.41,0,0,1-.31.14A1.66,1.66,0,0,1,176.81,94a1.36,1.36,0,0,0-.23-.58,5.09,5.09,0,0,0-.69-.62,4,4,0,0,0-.52.66,5.74,5.74,0,0,0-.46,1.19.77.77,0,0,1-1,.58c-.33-.12-.57-.57-.78-.92C173,94.12,173.09,93.86,173.09,93.65Z"/><path class="cls-1" d="M223.88,89.28a.69.69,0,0,1-.43,1,1.07,1.07,0,0,0-.42.83,2.65,2.65,0,0,0,1,2.1,3.26,3.26,0,0,1,.61,2.27,3.52,3.52,0,0,1-1.13,1.76,1.33,1.33,0,0,1-2-.26,2.16,2.16,0,0,1,.13-1.28c.07-.28.38-.53.39-.8a2.77,2.77,0,0,0-.24-1.2,3.33,3.33,0,0,1,0-3.53C222.52,89.12,222.81,89.23,223.88,89.28Z"/><path class="cls-1" d="M211,90.32c0,.48.06.92.06,1.35a.67.67,0,0,1-.12.31c-.35.81-1.09.3-1.62.41-1.09.22-1.31.35-1.3,1.47,0,.57,0,1.13,0,1.7a1.11,1.11,0,0,1-.63,1.13c-.64.29-1.11,0-1.09-.72,0-.42.07-.83,0-1.24a10.46,10.46,0,0,1-.19-1.23,3.43,3.43,0,0,1,.34-1.7,4.15,4.15,0,0,1,2.66-1.64,5,5,0,0,1,1.21.11Z"/><path class="cls-1" d="M171.27,95.34a3.39,3.39,0,0,1-.78-.08.66.66,0,0,1-.41-.37,3.19,3.19,0,0,1,.55-3.28c.27.21.68.37.78.64a7.48,7.48,0,0,1,.41,2,3.45,3.45,0,0,1-.37,1.14Z"/><path class="cls-1" d="M168.61,89c0-.48.19-.73.65-.82a7.68,7.68,0,0,0,1.12-.36c.56-.19.89,0,1,.63.11,1.23-.32,1.63-1.58,1.45a1.73,1.73,0,0,1-.78-.17A2,2,0,0,1,168.61,89Z"/></svg>